<?xml version="1.0" encoding="UTF-8" standalone="no"?>
<!-- Created with Inkscape (http://www.inkscape.org/) -->

<svg
   width="44"
   height="60"
   viewBox="0 0 11.641666 15.875"
   version="1.1"
   id="svg1"
   xml:space="preserve"
   inkscape:export-filename="arr_r.svg"
   inkscape:export-xdpi="96"
   inkscape:export-ydpi="96"
   xmlns:inkscape="http://www.inkscape.org/namespaces/inkscape"
   xmlns:sodipodi="http://sodipodi.sourceforge.net/DTD/sodipodi-0.dtd"
   xmlns="http://www.w3.org/2000/svg"
   xmlns:svg="http://www.w3.org/2000/svg"><sodipodi:namedview
     id="namedview1"
     pagecolor="#505050"
     bordercolor="#ffffff"
     borderopacity="1"
     inkscape:showpageshadow="0"
     inkscape:pageopacity="0"
     inkscape:pagecheckerboard="1"
     inkscape:deskcolor="#505050"
     inkscape:document-units="px" /><defs
     id="defs1" /><g
     id="g3"><path
       style="fill:#fefefe"
       d="M 5.2916666,12.170833 V 11.641667 H 4.7624999 4.2333332 V 11.1125 10.583333 H 3.7041666 3.1749999 V 10.054167 9.525 H 2.6458333 2.1166666 V 7.4083333 5.2916667 H 2.6458333 3.1749999 V 4.7625 4.2333333 H 3.7041666 4.2333332 V 3.7041667 3.175 H 6.3499999 8.4666665 V 3.7041667 4.2333333 H 8.9958331 9.5249998 V 7.9375 11.641667 H 8.9958331 8.4666665 V 12.170833 12.7 h -1.5875 -1.5874999 z"
       id="path5" /><path
       style="fill:#3f3f3f"
       d="M 5.2916666,12.170833 V 11.641667 H 4.7624999 4.2333332 V 11.1125 10.583333 H 3.7041666 3.1749999 V 10.054167 9.525 H 2.6458333 2.1166666 V 7.4083333 5.2916667 H 2.6458333 3.1749999 V 4.7625 4.2333333 H 3.7041666 4.2333332 V 3.7041667 3.175 H 6.3499999 8.4666665 V 3.7041667 4.2333333 H 8.9958331 9.5249998 V 7.9375 11.641667 H 8.9958331 8.4666665 V 12.170833 12.7 h -1.5875 -1.5874999 z M 6.3499999,6.8791667 V 4.2333333 H 5.8208332 5.2916666 V 4.7625 5.2916667 H 4.7624999 4.2333332 V 5.8208333 6.35 H 3.7041666 3.1749999 V 6.8791667 7.4083333 H 3.7041666 4.2333332 V 7.9375 8.4666667 H 4.7624999 5.2916666 V 8.9958333 9.525 h 0.5291666 0.5291667 z"
       id="path4" /><path
       style="fill:#000000"
       d="M 5.2916666,12.170833 V 11.641667 H 4.7624999 4.2333332 V 11.1125 10.583333 H 3.7041666 3.1749999 V 10.054167 9.525 H 2.6458333 2.1166666 V 7.4083333 5.2916667 H 2.6458333 3.1749999 V 4.7625 4.2333333 H 3.7041666 4.2333332 V 3.7041667 3.175 H 6.3499999 8.4666665 V 3.7041667 4.2333333 H 8.9958331 9.5249998 V 7.9375 11.641667 H 8.9958331 8.4666665 V 12.170833 12.7 h -1.5875 -1.5874999 z M 7.4083332,11.1125 V 10.583333 H 7.9374998 8.4666665 V 7.9375 5.2916667 H 7.9374998 7.4083332 V 4.7625 4.2333333 H 6.3499999 5.2916666 V 4.7625 5.2916667 H 4.7624999 4.2333332 V 5.8208333 6.35 H 3.7041666 3.1749999 V 7.4083333 8.4666667 H 3.7041666 4.2333332 V 8.9958333 9.525 h 0.5291667 0.5291667 v 0.529167 0.529166 h 0.5291666 0.5291667 v 0.529167 0.529167 h 0.5291666 0.5291667 z"
       id="path3" /></g></svg>
