<?xml version="1.0" encoding="UTF-8" standalone="no"?>
<!-- Created with Inkscape (http://www.inkscape.org/) -->
 
<svg
   width="31.999998"
   height="31.999998"
   viewBox="0 0 8.466666 8.4666661"
   version="1.1"
   id="svg1"
   xml:space="preserve"
   xmlns:inkscape="http://www.inkscape.org/namespaces/inkscape"
   xmlns:sodipodi="http://sodipodi.sourceforge.net/DTD/sodipodi-0.dtd"
   xmlns="http://www.w3.org/2000/svg"
   xmlns:svg="http://www.w3.org/2000/svg"><sodipodi:namedview
     id="namedview1"
     pagecolor="#505050"
     bordercolor="#ffffff"
     borderopacity="1"
     inkscape:showpageshadow="0"
     inkscape:pageopacity="0"
     inkscape:pagecheckerboard="1"
     inkscape:deskcolor="#505050"
     inkscape:document-units="px"
     inkscape:export-bgcolor="#00000000" /><defs
     id="defs1" /><g
     inkscape:label="Layer 1"
     inkscape:groupmode="layer"
     id="layer1"
     style="display:inline"><g
       id="g21"
       style="display:inline"><path
         style="display:inline;fill:#fefe7f"
         d="m 7.4083329,7.9374996 c -1.2347221,0 -2.4694443,0 -3.7041664,0 0,-0.1763889 0,-0.3527778 0,-0.5291667 -0.1763889,0 -0.3527778,0 -0.5291667,0 0,-0.5291666 0,-1.0583333 0,-1.5874999 -0.7055555,0 -1.411111,0 -2.1166665,0 0,-0.1763889 0,-0.3527777 0,-0.5291666 -0.17638889,0 -0.35277777,0 -0.52916666,0 0,-0.1763889 0,-0.3527778 0,-0.5291667 -0.17638888,0 -0.35277776,0 -0.52916664,0 0,-1.411111 0,-2.822222 0,-4.23333306 0.17638888,0 0.35277776,0 0.52916664,0 0,-0.17638888 0,-0.35277776 0,-0.52916664 1.05833326,0 2.11666656,0 3.17499986,0 0,0.17638888 0,0.35277776 0,0.52916664 0.1763889,0 0.3527777,0 0.5291666,0 0,0.17638889 0,0.35277777 0,0.52916666 0.1763889,0 0.3527777,0 0.5291666,0 0,0.3527778 0,0.7055555 0,1.0583333 0.8819444,0 1.7638888,0 2.6458332,0 0,0.1763889 0,0.3527777 0,0.5291666 0.1763889,0 0.3527778,0 0.5291667,0 0,0.5291666 0,1.0583333 0,1.5874999 -0.1763889,0 -0.3527778,0 -0.5291667,0 0,0.5291666 0,1.0583333 0,1.5874999 0.1763889,0 0.3527778,0 0.5291667,0 0,0.5291666 0,1.0583333 0,1.5874999 -0.1763889,0 -0.3527778,0 -0.5291667,0 0,0.1763889 0,0.3527778 0,0.5291667 z"
         id="path26" /><path
         style="display:inline;fill:#7f7ffe"
         d="m 7.4083329,7.9374996 c -1.2347221,0 -2.4694443,0 -3.7041664,0 0,-0.1763889 0,-0.3527778 0,-0.5291667 -0.1763889,0 -0.3527778,0 -0.5291667,0 0,-0.5291666 0,-1.0583333 0,-1.5874999 -0.7055555,0 -1.411111,0 -2.1166665,0 0,-0.1763889 0,-0.3527777 0,-0.5291666 -0.17638889,0 -0.35277777,0 -0.52916666,0 0,-0.1763889 0,-0.3527778 0,-0.5291667 -0.17638888,0 -0.35277776,0 -0.52916664,0 0,-1.411111 0,-2.822222 0,-4.23333306 0.17638888,0 0.35277776,0 0.52916664,0 0,-0.17638888 0,-0.35277776 0,-0.52916664 1.05833326,0 2.11666656,0 3.17499986,0 0,0.17638888 0,0.35277776 0,0.52916664 0.1763889,0 0.3527777,0 0.5291666,0 0,0.17638889 0,0.35277777 0,0.52916666 0.1763889,0 0.3527777,0 0.5291666,0 0,0.3527778 0,0.7055555 0,1.0583333 0.8819444,0 1.7638888,0 2.6458332,0 0,0.1763889 0,0.3527777 0,0.5291666 0.1763889,0 0.3527778,0 0.5291667,0 0,0.5291666 0,1.0583333 0,1.5874999 -0.1763889,0 -0.3527778,0 -0.5291667,0 0,0.5291666 0,1.0583333 0,1.5874999 0.1763889,0.1763889 0.3527778,0.3527778 0.5291667,0.5291667 0,0.3527777 0,0.7055555 0,1.0583332 -0.1763889,0 -0.3527778,0 -0.5291667,0 0,0.1763889 0,0.3527778 0,0.5291667 z M 2.6458332,3.9687498 C 2.6432245,3.8220695 2.5995715,3.634345 2.8134646,3.7041665 c 0.1073583,-0.029118 0.3350881,0.062135 0.3615352,-0.047895 0,-0.160424 0,-0.320848 0,-0.481272 -0.1763889,0 -0.3527777,0 -0.5291666,0 0,0.1763889 0,0.3527778 0,0.5291667 -0.5291666,0 -1.0583333,0 -1.5874999,0 0,-0.8819444 0,-1.7638888 0,-2.6458332 0.5291666,0 1.0583333,0 1.5874999,0 0,0.1763889 0,0.3527777 0,0.5291666 0.1763889,0 0.3527777,0 0.5291666,0 0,-0.1763889 0,-0.3527777 0,-0.5291666 -0.1763889,0 -0.3527777,0 -0.5291666,0 0,-0.17638889 0,-0.35277777 0,-0.52916666 -0.5291666,0 -1.0583333,0 -1.5874999,0 0,0.17638889 0,0.35277777 0,0.52916666 -0.17638889,0 -0.35277777,0 -0.52916666,0 0,0.8819444 0,1.7638888 0,2.6458332 0.17638889,0 0.35277777,0 0.52916666,0 0,0.1763889 0,0.3527777 0,0.5291666 0.5291666,0 1.0583333,0 1.5874999,0 0,-0.088194 0,-0.1763889 0,-0.264583 z"
         id="path25" /><path
         style="display:inline;fill:#000000;fill-opacity:0.5"
         d="M 4.2333331,8.2020829 C 4.2359418,8.0554026 4.2795948,7.8676781 4.0657017,7.9374996 3.9583434,7.9083812 3.7306136,7.9996344 3.7041665,7.8896049 c 0,-0.160424 0,-0.320848 0,-0.481272 -0.1763889,0 -0.3527778,0 -0.5291667,0 0,-0.3527777 0,-0.7055555 0,-1.0583332 -0.5291666,0 -1.0583333,0 -1.5874999,0 0,-0.1763889 0,-0.3527778 0,-0.5291667 -0.1763889,0 -0.3527777,0 -0.5291666,0 0,-0.1763889 0,-0.3527777 0,-0.5291666 -0.17638889,0 -0.35277777,0 -0.52916666,0 0,-0.1763889 0,-0.3527778 0,-0.5291667 -0.17638888,0 -0.35277776,0 -0.52916664,0 0,-1.411111 0,-2.822222 0,-4.23333306 0.17638888,0 0.35277776,0 0.52916664,0 0,-0.17638888 0,-0.35277776 0,-0.52916664 1.05833326,0 2.11666656,0 3.17499986,0 0,0.17638888 0,0.35277776 0,0.52916664 0.1763889,0 0.3527777,0 0.5291666,0 0,0.17638889 0,0.35277777 0,0.52916666 0.1763889,0 0.3527777,0 0.5291666,0 0,0.1763889 0,0.3527777 0,0.5291666 0.1763889,0 0.3527778,0 0.5291667,0 0,0.1763889 0,0.3527778 0,0.5291667 0.7055555,0 1.411111,0 2.1166665,0 0,0.1763889 0,0.3527777 0,0.5291666 0.1763889,0 0.3527778,0 0.5291667,0 0,0.1763889 0,0.3527777 0,0.5291666 0.1763889,0 0.3527777,0 0.5291666,0 0,0.5291666 0,1.0583333 0,1.5874999 -0.1763889,0 -0.3527777,0 -0.5291666,0 0,0.5291667 0,1.0583333 0,1.5875 0.1763889,0 0.3527777,0 0.5291666,0 0,0.5291666 0,1.0583333 0,1.5874999 -0.1763889,0 -0.3527777,0 -0.5291666,0 0,0.1763889 0,0.3527777 0,0.5291666 -1.2347222,0 -2.4694443,0 -3.7041665,0 0,-0.088194 0,-0.1763889 0,-0.2645833 z M 6.3499997,6.0854163 C 6.3526084,5.938736 6.3962614,5.7510115 6.1823683,5.820833 c -0.6496784,0 -1.2993568,0 -1.9490352,0 0,-0.3527778 0,-0.7055555 0,-1.0583333 0.5291666,0 1.0583333,0 1.5874999,0 0,-0.1763889 0,-0.3527777 0,-0.5291666 -0.5291666,0 -1.0583333,0 -1.5874999,0 0,-0.3527778 0,-0.7055555 0,-1.0583333 0.7055555,0 1.4111111,0 2.1166666,0 0,-0.1763889 0,-0.3527777 0,-0.5291666 -0.8819444,0 -1.7638888,0 -2.6458332,0 0,1.2347222 0,2.4694443 0,3.7041665 0.8819444,0 1.7638888,0 2.6458332,0 0,-0.088194 0,-0.1763889 0,-0.2645834 z M 2.6458332,3.9687498 C 2.6432245,3.8220695 2.5995715,3.634345 2.8134646,3.7041665 c 0.1073583,-0.029118 0.3350881,0.062135 0.3615352,-0.047895 0,-0.160424 0,-0.320848 0,-0.481272 -0.1763889,0 -0.3527777,0 -0.5291666,0 0,0.1763889 0,0.3527778 0,0.5291667 -0.5291666,0 -1.0583333,0 -1.5874999,0 0,-0.8819444 0,-1.7638888 0,-2.6458332 0.5291666,0 1.0583333,0 1.5874999,0 0,0.1763889 0,0.3527777 0,0.5291666 0.1763889,0 0.3527777,0 0.5291666,0 0,-0.1763889 0,-0.3527777 0,-0.5291666 -0.1763889,0 -0.3527777,0 -0.5291666,0 0,-0.17638889 0,-0.35277777 0,-0.52916666 -0.5291666,0 -1.0583333,0 -1.5874999,0 0,0.17638889 0,0.35277777 0,0.52916666 -0.17638889,0 -0.35277777,0 -0.52916666,0 0,0.8819444 0,1.7638888 0,2.6458332 0.17638889,0 0.35277777,0 0.52916666,0 0,0.1763889 0,0.3527777 0,0.5291666 0.5291666,0 1.0583333,0 1.5874999,0 0,-0.088194 0,-0.1763889 0,-0.264583 z"
         id="path24" /><path
         style="display:inline;fill:#3f3f1f"
         d="M 3.7041665,7.6729163 C 3.7067752,7.526236 3.7504282,7.3385114 3.5365351,7.4083329 3.4291768,7.3792145 3.2014469,7.4704677 3.1749998,7.3604382 c 0,-0.5132017 0,-1.0264035 0,-1.5396052 -0.7055555,0 -1.411111,0 -2.1166665,0 0,-0.1763889 0,-0.3527777 0,-0.5291666 -0.17638889,0 -0.35277777,0 -0.52916666,0 0,-0.1763889 0,-0.3527778 0,-0.5291667 -0.17638888,0 -0.35277776,0 -0.52916664,0 0,-1.411111 0,-2.822222 0,-4.23333306 0.17638888,0 0.35277776,0 0.52916664,0 0,-0.17638888 0,-0.35277776 0,-0.52916664 1.05833326,0 2.11666656,0 3.17499986,0 0,0.17638888 0,0.35277776 0,0.52916664 0.1763889,0 0.3527777,0 0.5291666,0 0,0.17638889 0,0.35277777 0,0.52916666 0.1763889,0 0.3527777,0 0.5291666,0 0,0.3527778 0,0.7055555 0,1.0583333 0.8819444,0 1.7638888,0 2.6458332,0 0,0.1763889 0,0.3527777 0,0.5291666 0.1763889,0 0.3527778,0 0.5291667,0 0,0.5291666 0,1.0583333 0,1.5874999 -0.1763889,0 -0.3527778,0 -0.5291667,0 0,0.5291666 0,1.0583333 0,1.5874999 0.1763889,0 0.3527778,0 0.5291667,0 0,0.5291666 0,1.0583333 0,1.5874999 -0.1763889,0 -0.3527778,0 -0.5291667,0 0,0.1763889 0,0.3527778 0,0.5291667 -1.2347221,0 -2.4694443,0 -3.7041664,0 0,-0.088194 0,-0.1763889 0,-0.2645833 z m 2.6458332,-1.5875 C 6.3526084,5.938736 6.3962614,5.7510115 6.1823683,5.820833 c -0.6496784,0 -1.2993568,0 -1.9490352,0 0,-0.3527778 0,-0.7055555 0,-1.0583333 0.5291666,0 1.0583333,0 1.5874999,0 0,-0.1763889 0,-0.3527777 0,-0.5291666 -0.5291666,0 -1.0583333,0 -1.5874999,0 0,-0.3527778 0,-0.7055555 0,-1.0583333 0.7055555,0 1.4111111,0 2.1166666,0 0,-0.1763889 0,-0.3527777 0,-0.5291666 -0.8819444,0 -1.7638888,0 -2.6458332,0 0,1.2347222 0,2.4694443 0,3.7041665 0.8819444,0 1.7638888,0 2.6458332,0 0,-0.088194 0,-0.1763889 0,-0.2645834 z M 2.6458332,3.9687498 C 2.6432245,3.8220695 2.5995715,3.634345 2.8134646,3.7041665 c 0.1073583,-0.029118 0.3350881,0.062135 0.3615352,-0.047895 0,-0.160424 0,-0.320848 0,-0.481272 -0.1763889,0 -0.3527777,0 -0.5291666,0 0,0.1763889 0,0.3527778 0,0.5291667 -0.5291666,0 -1.0583333,0 -1.5874999,0 0,-0.8819444 0,-1.7638888 0,-2.6458332 0.5291666,0 1.0583333,0 1.5874999,0 0,0.1763889 0,0.3527777 0,0.5291666 0.1763889,0 0.3527777,0 0.5291666,0 0,-0.1763889 0,-0.3527777 0,-0.5291666 -0.1763889,0 -0.3527777,0 -0.5291666,0 0,-0.17638889 0,-0.35277777 0,-0.52916666 -0.5291666,0 -1.0583333,0 -1.5874999,0 0,0.17638889 0,0.35277777 0,0.52916666 -0.17638889,0 -0.35277777,0 -0.52916666,0 0,0.8819444 0,1.7638888 0,2.6458332 0.17638889,0 0.35277777,0 0.52916666,0 0,0.1763889 0,0.3527777 0,0.5291666 0.5291666,0 1.0583333,0 1.5874999,0 0,-0.088194 0,-0.1763889 0,-0.264583 z"
         id="path23" /><path
         style="display:inline;fill:#1f1f3f"
         d="M 3.7041665,7.6729163 C 3.7067752,7.526236 3.7504282,7.3385114 3.5365351,7.4083329 3.4291768,7.3792145 3.2014469,7.4704677 3.1749998,7.3604382 c 0,-0.5132017 0,-1.0264035 0,-1.5396052 -0.7055555,0 -1.411111,0 -2.1166665,0 0,-0.1763889 0,-0.3527777 0,-0.5291666 -0.17638889,0 -0.35277777,0 -0.52916666,0 0,-0.1763889 0,-0.3527778 0,-0.5291667 -0.17638888,0 -0.35277776,0 -0.52916664,0 0,-1.411111 0,-2.822222 0,-4.23333306 0.17638888,0 0.35277776,0 0.52916664,0 0,-0.17638888 0,-0.35277776 0,-0.52916664 1.05833326,0 2.11666656,0 3.17499986,0 0,0.17638888 0,0.35277776 0,0.52916664 0.1763889,0 0.3527777,0 0.5291666,0 0,0.17638889 0,0.35277777 0,0.52916666 0.1763889,0 0.3527777,0 0.5291666,0 0,0.3527778 0,0.7055555 0,1.0583333 0.8819444,0 1.7638888,0 2.6458332,0 0,0.1763889 0,0.3527777 0,0.5291666 0.1763889,0 0.3527778,0 0.5291667,0 0,0.5291666 0,1.0583333 0,1.5874999 -0.1763889,0 -0.3527778,0 -0.5291667,0 0,0.5291666 0,1.0583333 0,1.5874999 0.1763889,0 0.3527778,0 0.5291667,0 0,0.5291666 0,1.0583333 0,1.5874999 -0.1763889,0 -0.3527778,0 -0.5291667,0 0,0.1763889 0,0.3527778 0,0.5291667 -1.2347221,0 -2.4694443,0 -3.7041664,0 0,-0.088194 0,-0.1763889 0,-0.2645833 z m 2.6458332,-1.5875 C 6.3526084,5.938736 6.3962614,5.7510115 6.1823683,5.820833 c -0.6496784,0 -1.2993568,0 -1.9490352,0 0,-0.3527778 0,-0.7055555 0,-1.0583333 0.5291666,0 1.0583333,0 1.5874999,0 0,-0.1763889 0,-0.3527777 0,-0.5291666 -0.5291666,0 -1.0583333,0 -1.5874999,0 0,-0.3527778 0,-0.7055555 0,-1.0583333 0.7055555,0 1.4111111,0 2.1166666,0 0,-0.1763889 0,-0.3527777 0,-0.5291666 -0.8819444,0 -1.7638888,0 -2.6458332,0 0,1.2347222 0,2.4694443 0,3.7041665 0.8819444,0 1.7638888,0 2.6458332,0 0,-0.088194 0,-0.1763889 0,-0.2645834 z M 3.1749998,4.2333331 c 0,-0.3527778 0,-0.7055555 0,-1.0583333 -0.1763889,0 -0.3527777,0 -0.5291666,0 0,0.1763889 0,0.3527778 0,0.5291667 -0.1763889,0 -0.3527777,0 -0.5291666,0 0,-0.5291666 0,-1.0583333 0,-1.5874999 0.7055555,0 1.411111,0 2.1166665,0 0,-0.1763889 0,-0.3527778 0,-0.5291667 -0.1763889,0 -0.3527777,0 -0.5291666,0 0,-0.1763889 0,-0.3527777 0,-0.5291666 -0.1763889,0 -0.3527778,0 -0.5291667,0 0,-0.17638889 0,-0.35277777 0,-0.52916666 -0.7055555,0 -1.411111,0 -2.1166665,0 0,0.17638889 0,0.35277777 0,0.52916666 -0.17638889,0 -0.35277777,0 -0.52916666,0 0,1.0583333 0,2.1166665 0,3.1749998 0.17638889,0 0.35277777,0 0.52916666,0 0,0.1763889 0,0.3527777 0,0.5291666 0.1763889,0 0.3527777,0 0.5291666,0 0,0.1763889 0,0.3527778 0,0.5291667 0.5291666,0 1.0583333,0 1.5874999,0 0,-0.3527778 0,-0.7055555 0,-1.0583333 z"
         id="path22" /><path
         style="display:inline;fill:#000000"
         d="M 3.7041665,7.6729163 C 3.7067752,7.526236 3.7504282,7.3385114 3.5365351,7.4083329 3.4291768,7.3792145 3.2014469,7.4704677 3.1749998,7.3604382 c 0,-0.5132017 0,-1.0264035 0,-1.5396052 -0.7055555,0 -1.411111,0 -2.1166665,0 0,-0.1763889 0,-0.3527777 0,-0.5291666 -0.17638889,0 -0.35277777,0 -0.52916666,0 0,-0.1763889 0,-0.3527778 0,-0.5291667 -0.17638888,0 -0.35277776,0 -0.52916664,0 0,-1.411111 0,-2.822222 0,-4.23333306 0.17638888,0 0.35277776,0 0.52916664,0 0,-0.17638888 0,-0.35277776 0,-0.52916664 1.05833326,0 2.11666656,0 3.17499986,0 0,0.17638888 0,0.35277776 0,0.52916664 0.1763889,0 0.3527777,0 0.5291666,0 0,0.17638889 0,0.35277777 0,0.52916666 0.1763889,0 0.3527777,0 0.5291666,0 0,0.3527778 0,0.7055555 0,1.0583333 0.8819444,0 1.7638888,0 2.6458332,0 0,0.1763889 0,0.3527777 0,0.5291666 0.1763889,0 0.3527778,0 0.5291667,0 0,0.5291666 0,1.0583333 0,1.5874999 -0.1763889,0 -0.3527778,0 -0.5291667,0 0,0.5291666 0,1.0583333 0,1.5874999 0.1763889,0 0.3527778,0 0.5291667,0 0,0.5291666 0,1.0583333 0,1.5874999 -0.1763889,0 -0.3527778,0 -0.5291667,0 0,0.1763889 0,0.3527778 0,0.5291667 -1.2347221,0 -2.4694443,0 -3.7041664,0 0,-0.088194 0,-0.1763889 0,-0.2645833 z M 6.8791663,7.1437496 c -0.00261,-0.1466803 -0.046262,-0.3344048 0.1676314,-0.2645833 0.1073583,-0.029118 0.3350881,0.062135 0.3615352,-0.047895 0,-0.160424 0,-0.3208479 0,-0.4812719 -0.1763889,0 -0.3527777,0 -0.5291666,0 0,-0.1763889 0,-0.3527778 0,-0.5291667 -0.1763889,0 -0.3527777,0 -0.5291666,0 0,-0.1763889 0,-0.3527777 0,-0.5291666 0.1763889,0 0.3527777,0 0.5291666,0 0,-0.1763889 0,-0.3527778 0,-0.5291667 -0.1763889,0 -0.3527777,0 -0.5291666,0 0,-0.1763889 0,-0.3527777 0,-0.5291666 0.1763889,0 0.3527777,0 0.5291666,0 0,-0.1763889 0,-0.3527777 0,-0.5291666 0.1763889,0 0.3527777,0 0.5291666,0 0,-0.1763889 0,-0.3527778 0,-0.5291667 -0.1763889,0 -0.3527777,0 -0.5291666,0 0,-0.1763889 0,-0.3527777 0,-0.5291666 -1.0583333,0 -2.1166665,0 -3.1749998,0 0,1.411111 0,2.8222221 0,4.2333331 0.1763889,0 0.3527777,0 0.5291666,0 0,0.1763889 0,0.3527777 0,0.5291666 0.8819444,0 1.7638888,0 2.6458332,0 0,-0.088194 0,-0.1763889 0,-0.264583 z M 3.1749998,4.2333331 c 0,-0.3527778 0,-0.7055555 0,-1.0583333 -0.1763889,0 -0.3527777,0 -0.5291666,0 0,0.1763889 0,0.3527778 0,0.5291667 -0.1763889,0 -0.3527777,0 -0.5291666,0 0,-0.5291666 0,-1.0583333 0,-1.5874999 0.7055555,0 1.411111,0 2.1166665,0 0,-0.1763889 0,-0.3527778 0,-0.5291667 -0.1763889,0 -0.3527777,0 -0.5291666,0 0,-0.1763889 0,-0.3527777 0,-0.5291666 -0.1763889,0 -0.3527778,0 -0.5291667,0 0,-0.17638889 0,-0.35277777 0,-0.52916666 -0.7055555,0 -1.411111,0 -2.1166665,0 0,0.17638889 0,0.35277777 0,0.52916666 -0.17638889,0 -0.35277777,0 -0.52916666,0 0,1.0583333 0,2.1166665 0,3.1749998 0.17638889,0 0.35277777,0 0.52916666,0 0,0.1763889 0,0.3527777 0,0.5291666 0.1763889,0 0.3527777,0 0.5291666,0 0,0.1763889 0,0.3527778 0,0.5291667 0.5291666,0 1.0583333,0 1.5874999,0 0,-0.3527778 0,-0.7055555 0,-1.0583333 z"
         id="path21" /></g></g></svg>
