<?xml version="1.0" encoding="UTF-8" standalone="no"?>
<!-- Created with Inkscape (http://www.inkscape.org/) -->

<svg
   width="516"
   height="60"
   viewBox="0 0 136.52499 15.875"
   version="1.1"
   id="svg1"
   xml:space="preserve"
   inkscape:export-filename="label_gex.svg"
   inkscape:export-xdpi="96"
   inkscape:export-ydpi="96"
   xmlns:inkscape="http://www.inkscape.org/namespaces/inkscape"
   xmlns:sodipodi="http://sodipodi.sourceforge.net/DTD/sodipodi-0.dtd"
   xmlns="http://www.w3.org/2000/svg"
   xmlns:svg="http://www.w3.org/2000/svg"><sodipodi:namedview
     id="namedview1"
     pagecolor="#505050"
     bordercolor="#ffffff"
     borderopacity="1"
     inkscape:showpageshadow="0"
     inkscape:pageopacity="0"
     inkscape:pagecheckerboard="1"
     inkscape:deskcolor="#505050"
     inkscape:document-units="px"
     inkscape:export-bgcolor="#00000000" /><defs
     id="defs1" /><g
     id="g4"><path
       style="fill:#fefefe"
       d="M 25.929168,15.345832 V 14.816666 H 25.400002 24.870835 V 14.287499 13.758333 H 19.579169 14.287503 V 13.229166 12.699999 H 13.758336 13.229169 V 7.4083329 2.1166665 h 2.116667 2.116666 v 0.5291667 0.5291666 h 0.529167 0.529167 V 5.820833 8.4666662 h 0.529166 0.529167 V 6.3499996 4.2333331 h 0.529166 0.529167 V 3.1749998 2.1166665 h 2.116667 2.116666 v 0.5291667 0.5291666 h 0.529167 0.529166 v 0.5291666 0.5291667 h 2.116667 2.116666 V 3.1749998 2.1166665 h 2.116667 2.116666 v 0.5291667 0.5291666 h 0.529167 0.529166 v 0.5291666 0.5291667 h 1.058334 1.058333 V 3.1749998 2.1166665 H 39.6875 41.804167 V 2.6458332 3.1749998 H 42.333334 42.8625 V 2.6458332 2.1166665 h 2.116667 2.116666 V 2.6458332 3.1749998 H 47.625 48.154166 v 0.5291666 0.5291667 h 6.35 6.349999 v 0.5291666 0.5291666 h 0.529167 0.529166 v 4.2333331 4.2333336 h -0.529166 -0.529167 v 0.529166 0.529167 h -0.529166 -0.529167 v 0.529166 0.529167 h -2.645833 -2.645833 v -0.529167 -0.529166 h -0.529167 -0.529166 v -0.529167 -0.529166 h -1.058334 -1.058333 v -0.529167 -0.529167 h -0.529167 -0.529166 v 0.529167 0.529167 H 44.979167 39.6875 v -0.529167 -0.529167 h -0.529166 -0.529167 v 0.529167 0.529167 h -1.5875 -1.5875 v -0.529167 -0.529167 h -0.529166 -0.529167 v 0.529167 0.529167 h -1.058333 -1.058333 v 0.529166 0.529167 h -0.529167 -0.529167 v 0.529166 0.529167 h -2.645833 -2.645833 z m 89.958322,0 v -0.529166 h -0.52916 -0.52917 v -0.529167 -0.529166 h -1.05833 -1.05834 v -0.529167 -0.529167 h -0.52916 -0.52917 v 0.529167 0.529167 h -11.1125 -11.112497 v -0.529167 -0.529167 h -0.529167 -0.529167 v 0.529167 0.529167 H 84.137497 79.904164 V 13.229166 12.699999 H 79.374997 78.84583 V 12.170833 11.641666 H 78.316664 77.787497 V 7.4083329 3.1749998 h 0.529167 0.529166 V 2.6458332 2.1166665 h 4.7625 4.762499 v 0.5291667 0.5291666 h 0.529167 0.529167 v 0.5291666 0.5291667 h 5.820833 5.820834 V 3.1749998 2.1166665 h 3.70416 3.70417 v 0.5291667 0.5291666 h 0.52917 0.52916 v 0.5291666 0.5291667 h 6.35 6.35 v 0.5291666 0.5291666 h 0.52917 0.52917 v 4.2333331 4.2333336 h -0.52917 -0.52917 v 0.529166 0.529167 h -0.52916 -0.52917 v 0.529166 0.529167 h -2.64583 -2.64584 z M 67.204165,13.229166 V 12.699999 H 66.674998 66.145831 V 12.170833 11.641666 H 65.616665 65.087498 V 7.4083329 3.1749998 h 0.529167 0.529166 V 2.6458332 2.1166665 h 2.645834 2.645833 v 0.5291667 0.5291666 h 0.529166 0.529167 v 0.5291666 0.5291667 h 0.529166 0.529167 V 5.820833 7.4083329 h 0.529167 0.529166 v 2.6458331 2.645833 h -0.529166 -0.529167 v 0.529167 0.529167 h -3.175 -3.174999 z"
       id="path6" /><path
       style="fill:#3f3f3f"
       d="M 25.929168,15.345832 V 14.816666 H 25.400002 24.870835 V 14.287499 13.758333 H 19.579169 14.287503 V 13.229166 12.699999 H 13.758336 13.229169 V 7.4083329 2.1166665 h 2.116667 2.116666 v 0.5291667 0.5291666 h 0.529167 0.529167 V 5.820833 8.4666662 h 0.529166 0.529167 V 6.3499996 4.2333331 h 0.529166 0.529167 V 3.1749998 2.1166665 h 2.116667 2.116666 v 0.5291667 0.5291666 h 0.529167 0.529166 v 0.5291666 0.5291667 h 2.116667 2.116666 V 3.1749998 2.1166665 h 2.116667 2.116666 v 0.5291667 0.5291666 h 0.529167 0.529166 v 0.5291666 0.5291667 h 1.058334 1.058333 V 3.1749998 2.1166665 H 39.6875 41.804167 V 2.6458332 3.1749998 H 42.333334 42.8625 V 2.6458332 2.1166665 h 2.116667 2.116666 V 2.6458332 3.1749998 H 47.625 48.154166 v 0.5291666 0.5291667 h 6.35 6.349999 v 0.5291666 0.5291666 h 0.529167 0.529166 v 4.2333331 4.2333336 h -0.529166 -0.529167 v 0.529166 0.529167 h -0.529166 -0.529167 v 0.529166 0.529167 h -2.645833 -2.645833 v -0.529167 -0.529166 h -0.529167 -0.529166 v -0.529167 -0.529166 h -1.058334 -1.058333 v -0.529167 -0.529167 h -0.529167 -0.529166 v 0.529167 0.529167 H 44.979167 39.6875 v -0.529167 -0.529167 h -0.529166 -0.529167 v 0.529167 0.529167 h -1.5875 -1.5875 v -0.529167 -0.529167 h -0.529166 -0.529167 v 0.529167 0.529167 h -1.058333 -1.058333 v 0.529166 0.529167 h -0.529167 -0.529167 v 0.529166 0.529167 h -2.645833 -2.645833 z m 3.175,-3.174999 v -0.529167 h 0.529167 0.529166 V 8.4666662 5.2916663 H 28.045835 25.929168 V 5.820833 6.3499996 h -0.529166 -0.529167 v 1.5874999 1.5874999 h 0.529167 0.529166 v 0.5291666 0.529167 h 1.5875 1.5875 v 0.529166 0.529167 h -1.5875 -1.5875 v 0.529167 0.529166 h 1.5875 1.5875 z m -3.175,-4.2333335 V 6.3499996 h 1.5875 1.5875 v 1.5874999 1.5874999 h -1.5875 -1.5875 z m 31.749997,4.2333335 v -0.529167 h 0.529167 0.529167 V 8.4666662 5.2916663 H 56.620832 54.504166 V 5.820833 6.3499996 h -0.529167 -0.529166 v 1.5874999 1.5874999 h 0.529166 0.529167 v 0.5291666 0.529167 h 1.5875 1.587499 v 0.529166 0.529167 h -1.587499 -1.5875 v 0.529167 0.529166 h 1.5875 1.587499 z M 54.504166,7.9374995 V 6.3499996 h 1.5875 1.587499 v 1.5874999 1.5874999 h -1.587499 -1.5875 z M 19.579169,10.054166 V 9.5249994 H 17.462502 15.345836 V 6.3499996 3.1749998 h -0.529167 -0.529166 v 3.7041665 3.7041667 h 2.645833 2.645833 z m 4.233333,0 V 9.5249994 H 23.283335 22.754169 V 7.4083329 5.2916663 H 21.695835 20.637502 V 5.820833 6.3499996 h 0.529167 0.529166 v 1.5874999 1.5874999 h -0.529166 -0.529167 v 0.5291666 0.529167 h 1.5875 1.5875 z M 32.279168,8.4666662 V 6.3499996 h 1.5875 1.587499 v 2.1166666 2.1166668 h 0.529167 0.529167 V 8.4666662 6.3499996 H 35.983334 35.454167 V 5.820833 5.2916663 h -1.587499 -1.5875 V 4.2333331 3.1749998 h -0.529167 -0.529167 v 3.7041665 3.7041667 h 0.529167 0.529167 z m 9.524999,1.5874998 V 9.5249994 H 40.745834 39.6875 V 7.9374995 6.3499996 h 0.529167 0.529167 V 5.820833 5.2916663 H 40.216667 39.6875 V 4.2333331 3.1749998 H 39.158334 38.629167 V 4.2333331 5.2916663 H 38.100001 37.570834 V 5.820833 6.3499996 h 0.529167 0.529166 v 1.5874999 1.5874999 h 0.529167 0.529166 v 0.5291666 0.529167 h 1.058334 1.058333 z m 4.233333,0 V 9.5249994 H 45.508333 44.979167 V 7.4083329 5.2916663 H 43.920833 42.8625 V 5.820833 6.3499996 h 0.529167 0.529166 V 7.9374995 9.5249994 H 43.391667 42.8625 v 0.5291666 0.529167 H 44.45 46.0375 Z M 48.154166,8.9958328 V 7.4083329 H 48.683333 49.2125 V 6.8791663 6.3499996 h 1.058333 1.058333 v 2.1166666 2.1166668 h 0.529167 0.529166 V 8.4666662 6.3499996 H 51.858333 51.329166 V 5.820833 5.2916663 H 50.270833 49.2125 V 5.820833 6.3499996 H 48.683333 48.154166 V 5.820833 5.2916663 H 47.625 47.095833 V 7.9374995 10.583333 H 47.625 48.154166 Z M 22.754169,3.7041664 V 3.1749998 h -0.529167 -0.529167 v 0.5291666 0.5291667 h 0.529167 0.529167 z m 22.224998,0 V 3.1749998 H 44.45 43.920833 V 3.7041664 4.2333331 H 44.45 44.979167 Z M 115.88749,15.345832 v -0.529166 h -0.52916 -0.52917 v -0.529167 -0.529166 h -1.05833 -1.05834 v -0.529167 -0.529167 h -0.52916 -0.52917 v 0.529167 0.529167 h -11.1125 -11.112497 v -0.529167 -0.529167 h -0.529167 -0.529167 v 0.529167 0.529167 H 84.137497 79.904164 V 13.229166 12.699999 H 79.374997 78.84583 V 12.170833 11.641666 H 78.316664 77.787497 V 7.4083329 3.1749998 h 0.529167 0.529166 V 2.6458332 2.1166665 h 4.7625 4.762499 v 0.5291667 0.5291666 h 0.529167 0.529167 v 0.5291666 0.5291667 h 5.820833 5.820834 V 3.1749998 2.1166665 h 3.70416 3.70417 v 0.5291667 0.5291666 h 0.52917 0.52916 v 0.5291666 0.5291667 h 6.35 6.35 v 0.5291666 0.5291666 h 0.52917 0.52917 v 4.2333331 4.2333336 h -0.52917 -0.52917 v 0.529166 0.529167 h -0.52916 -0.52917 v 0.529166 0.529167 h -2.64583 -2.64584 z m 3.175,-3.174999 v -0.529167 h 0.52917 0.52917 V 8.4666662 5.2916663 h -2.11667 -2.11667 V 5.820833 6.3499996 h -0.52916 -0.52917 v 1.5874999 1.5874999 h 0.52917 0.52916 v 0.5291666 0.529167 h 1.5875 1.5875 v 0.529166 0.529167 h -1.5875 -1.5875 v 0.529167 0.529166 h 1.5875 1.5875 z m -3.175,-4.2333335 V 6.3499996 h 1.5875 1.5875 v 1.5874999 1.5874999 h -1.5875 -1.5875 z M 83.079163,10.054166 V 9.5249994 h 0.529167 0.529167 V 8.4666662 7.4083329 H 83.60833 83.079163 V 6.8791663 6.3499996 h -1.5875 -1.587499 V 5.2916663 4.2333331 h 1.587499 1.5875 v 0.5291666 0.5291666 h 0.529167 0.529167 V 4.7624997 4.2333331 H 83.60833 83.079163 V 3.7041664 3.1749998 h -1.5875 -1.587499 V 3.7041664 4.2333331 H 79.374997 78.84583 v 1.0583332 1.0583333 h 0.529167 0.529167 v 0.5291667 0.5291666 h 1.587499 1.5875 v 1.0583333 1.0583332 h -1.5875 -1.587499 V 8.9958328 8.4666662 H 79.374997 78.84583 v 0.5291666 0.5291666 h 0.529167 0.529167 v 0.5291666 0.529167 h 1.587499 1.5875 z m 3.175,-1.5874998 V 6.3499996 h 1.5875 1.5875 v 2.1166666 2.1166668 h 0.529166 0.529167 V 8.4666662 6.3499996 H 89.958329 89.429163 V 5.820833 5.2916663 h -1.5875 -1.5875 V 4.2333331 3.1749998 H 85.724996 85.19583 v 3.7041665 3.7041667 h 0.529166 0.529167 z m 8.466666,1.5874998 V 9.5249994 h 0.529167 0.529166 v 0.5291666 0.529167 h 0.529167 0.529166 V 7.9374995 5.2916663 H 94.720829 92.604162 V 5.820833 6.3499996 h -0.529166 -0.529167 v 1.5874999 1.5874999 h 0.529167 0.529166 v 0.5291666 0.529167 h 1.058334 1.058333 z M 92.604162,7.9374995 V 6.3499996 h 1.5875 1.5875 V 7.4083329 8.4666662 H 95.249996 94.720829 V 8.9958328 9.5249994 H 93.662496 92.604162 Z M 103.18749,6.8791663 V 3.1749998 h -0.52916 -0.52917 v 1.0583333 1.0583332 h -1.5875 -1.587498 V 5.820833 6.3499996 h -0.529167 -0.529166 v 1.5874999 1.5874999 h 0.529166 0.529167 v 0.5291666 0.529167 h 2.116668 2.11666 z M 98.954162,7.9374995 V 6.3499996 h 1.587498 1.5875 v 1.5874999 1.5874999 h -1.5875 -1.587498 z m 8.466668,2.1166665 V 9.5249994 h -0.52917 -0.52917 V 7.4083329 5.2916663 h -1.05833 -1.05833 V 5.820833 6.3499996 h 0.52916 0.52917 v 1.5874999 1.5874999 h -0.52917 -0.52916 v 0.5291666 0.529167 h 1.5875 1.5875 z m 2.11666,-1.0583332 V 7.4083329 h 0.52917 0.52917 V 6.8791663 6.3499996 h 1.05833 1.05833 v 2.1166666 2.1166668 h 0.52917 0.52917 V 8.4666662 6.3499996 h -0.52917 -0.52917 V 5.820833 5.2916663 h -1.05833 -1.05833 V 5.820833 6.3499996 h -0.52917 -0.52917 V 5.820833 5.2916663 h -0.52916 -0.52917 v 2.6458332 2.6458335 h 0.52917 0.52916 z m -3.175,-5.2916664 V 3.1749998 h -0.52916 -0.52917 v 0.5291666 0.5291667 h 0.52917 0.52916 z M 67.204165,13.229166 V 12.699999 H 66.674998 66.145831 V 12.170833 11.641666 H 65.616665 65.087498 V 7.4083329 3.1749998 h 0.529167 0.529166 V 2.6458332 2.1166665 h 2.645834 2.645833 v 0.5291667 0.5291666 h 0.529166 0.529167 v 0.5291666 0.5291667 h 0.529166 0.529167 V 5.820833 7.4083329 h 0.529167 0.529166 v 2.6458331 2.645833 h -0.529166 -0.529167 v 0.529167 0.529167 h -3.175 -3.174999 z m 2.116666,-3.175 V 9.5249994 h 0.529167 0.529166 v 0.5291666 0.529167 h 0.529167 0.529167 V 10.054166 9.5249994 H 70.908331 70.379164 V 8.9958328 8.4666662 h 0.529167 0.529167 V 7.9374995 7.4083329 H 70.908331 70.379164 V 7.9374995 8.4666662 H 69.849998 69.320831 V 7.9374995 7.4083329 H 68.791665 68.262498 V 6.8791663 6.3499996 h 0.529167 0.529166 V 5.820833 5.2916663 h 0.529167 0.529166 V 4.7624997 4.2333331 H 69.849998 69.320831 V 3.7041664 3.1749998 h -1.058333 -1.058333 v 0.5291666 0.5291667 h -0.529167 -0.529167 v 1.0583332 1.0583333 h 0.529167 0.529167 v 0.5291667 0.5291666 h -0.529167 -0.529167 v 1.0583333 1.0583332 h 0.529167 0.529167 v 0.5291666 0.529167 h 1.058333 1.058333 z M 67.204165,8.4666662 V 7.4083329 h 0.529166 0.529167 v 0.5291666 0.5291667 h 0.529167 0.529166 v 0.5291666 0.5291666 h -1.058333 -1.058333 z m 0,-3.1749999 V 4.2333331 h 1.058333 1.058333 V 4.7624997 5.2916663 H 68.791665 68.262498 V 5.820833 6.3499996 h -0.529167 -0.529166 z"
       id="path5" /><path
       style="fill:#000000"
       d="M 25.929168,15.345832 V 14.816666 H 25.400002 24.870835 V 14.287499 13.758333 H 19.579169 14.287503 V 13.229166 12.699999 H 13.758336 13.229169 V 7.4083329 2.1166665 h 2.116667 2.116666 v 0.5291667 0.5291666 h 0.529167 0.529167 V 5.820833 8.4666662 h 0.529166 0.529167 V 6.3499996 4.2333331 h 0.529166 0.529167 V 3.1749998 2.1166665 h 2.116667 2.116666 v 0.5291667 0.5291666 h 0.529167 0.529166 v 0.5291666 0.5291667 h 2.116667 2.116666 V 3.1749998 2.1166665 h 2.116667 2.116666 v 0.5291667 0.5291666 h 0.529167 0.529166 v 0.5291666 0.5291667 h 1.058334 1.058333 V 3.1749998 2.1166665 H 39.6875 41.804167 V 2.6458332 3.1749998 H 42.333334 42.8625 V 2.6458332 2.1166665 h 2.116667 2.116666 V 2.6458332 3.1749998 H 47.625 48.154166 v 0.5291666 0.5291667 h 6.35 6.349999 v 0.5291666 0.5291666 h 0.529167 0.529166 v 4.2333331 4.2333336 h -0.529166 -0.529167 v 0.529166 0.529167 h -0.529166 -0.529167 v 0.529166 0.529167 h -2.645833 -2.645833 v -0.529167 -0.529166 h -0.529167 -0.529166 v -0.529167 -0.529166 h -1.058334 -1.058333 v -0.529167 -0.529167 h -0.529167 -0.529166 v 0.529167 0.529167 H 44.979167 39.6875 v -0.529167 -0.529167 h -0.529166 -0.529167 v 0.529167 0.529167 h -1.5875 -1.5875 v -0.529167 -0.529167 h -0.529166 -0.529167 v 0.529167 0.529167 h -1.058333 -1.058333 v 0.529166 0.529167 h -0.529167 -0.529167 v 0.529166 0.529167 h -2.645833 -2.645833 z m 4.233333,-1.058333 v -0.529166 h 0.529167 0.529166 v -0.529167 -0.529167 h 1.058334 1.058333 v -0.529166 -0.529167 h 0.529167 0.529166 v -1.5875 -1.5874998 h 0.529167 0.529166 v 1.5874998 1.5875 h 0.529167 0.529167 v 0.529167 0.529166 h 0.529166 0.529167 v -0.529166 -0.529167 h 0.529167 0.529166 v -0.529167 -0.529166 h 0.529167 0.529166 v 0.529166 0.529167 h 0.529167 0.529167 v 0.529167 0.529166 h 1.058333 1.058333 v -0.529166 -0.529167 h 0.529167 0.529166 v 0.529167 0.529166 h 1.5875 1.5875 V 12.170833 11.641666 H 47.625 48.154166 v 0.529167 0.529166 h 0.529167 0.529167 v -0.529166 -0.529167 h 0.529166 0.529167 v -1.5875 -1.5874998 h 0.529166 0.529167 v 1.5874998 1.5875 h 0.529167 0.529166 v 0.529167 0.529166 h 0.529167 0.529167 v -0.529166 -0.529167 h 0.529166 0.529167 v 1.058333 1.058334 h 0.529166 0.529167 v 0.529166 0.529167 h 1.5875 1.5875 v -0.529167 -0.529166 h 0.529166 0.529167 v -0.529167 -0.529167 h 0.529167 0.529166 V 9.5249994 6.3499996 H 60.324999 59.795832 V 5.820833 5.2916663 H 57.149999 54.504166 V 5.820833 6.3499996 H 53.445833 52.387499 V 5.820833 5.2916663 H 49.741666 47.095833 V 4.7624997 4.2333331 H 46.566666 46.0375 V 3.7041664 3.1749998 H 44.979167 43.920833 V 4.2333331 5.2916663 H 43.391667 42.8625 V 5.820833 6.3499996 H 42.333334 41.804167 V 5.2916663 4.2333331 H 41.275 40.745834 V 3.7041664 3.1749998 H 39.6875 38.629167 V 4.2333331 5.2916663 H 38.100001 37.570834 V 5.820833 6.3499996 H 37.041667 36.512501 V 5.820833 5.2916663 H 35.454167 34.395834 V 4.7624997 4.2333331 H 33.866668 33.337501 V 3.7041664 3.1749998 H 32.279168 31.220834 V 4.2333331 5.2916663 H 28.575001 25.929168 V 5.820833 6.3499996 H 24.870835 23.812502 V 5.820833 5.2916663 h 0.529166 0.529167 V 4.7624997 4.2333331 H 24.341668 23.812502 V 3.7041664 3.1749998 h -1.058333 -1.058334 v 1.0583333 1.0583332 h -0.529166 -0.529167 v 1.0583333 1.0583333 h 0.529167 0.529166 V 8.4666662 9.5249994 H 19.579169 17.462502 V 6.8791663 4.2333331 H 16.933336 16.404169 V 3.7041664 3.1749998 h -1.058333 -1.058333 v 4.2333331 4.2333331 h 0.529166 0.529167 v 0.529167 0.529166 h 2.645833 2.645833 v -0.529166 -0.529167 h 0.529167 0.529166 v 0.529167 0.529166 h 1.5875 1.5875 v -0.529166 -0.529167 h 0.529167 0.529166 v 1.058333 1.058334 h 0.529167 0.529167 v 0.529166 0.529167 h 1.587499 1.5875 z M 28.045835,8.9958328 V 8.4666662 h 0.529166 0.529167 V 8.9958328 9.5249994 H 28.575001 28.045835 Z M 41.804167,8.4666662 V 7.4083329 H 42.8625 43.920833 V 8.4666662 9.5249994 H 42.8625 41.804167 Z M 56.620832,8.9958328 V 8.4666662 h 0.529167 0.529166 V 8.9958328 9.5249994 H 57.149999 56.620832 Z M 46.0375,5.820833 V 5.2916663 h 0.529166 0.529167 V 5.820833 6.3499996 H 46.566666 46.0375 Z m 69.84999,9.524999 v -0.529166 h -0.52916 -0.52917 v -0.529167 -0.529166 h -1.05833 -1.05834 v -0.529167 -0.529167 h -0.52916 -0.52917 v 0.529167 0.529167 h -11.1125 -11.112497 v -0.529167 -0.529167 h -0.529167 -0.529167 v 0.529167 0.529167 H 84.137497 79.904164 V 13.229166 12.699999 H 79.374997 78.84583 V 12.170833 11.641666 H 78.316664 77.787497 V 7.4083329 3.1749998 h 0.529167 0.529166 V 2.6458332 2.1166665 h 4.7625 4.762499 v 0.5291667 0.5291666 h 0.529167 0.529167 v 0.5291666 0.5291667 h 5.820833 5.820834 V 3.1749998 2.1166665 h 3.70416 3.70417 v 0.5291667 0.5291666 h 0.52917 0.52916 v 0.5291666 0.5291667 h 6.35 6.35 v 0.5291666 0.5291666 h 0.52917 0.52917 v 4.2333331 4.2333336 h -0.52917 -0.52917 v 0.529166 0.529167 h -0.52916 -0.52917 v 0.529166 0.529167 h -2.64583 -2.64584 z m 4.23334,-1.058333 v -0.529166 h 0.52916 0.52917 v -0.529167 -0.529167 h 0.52917 0.52916 V 9.5249994 6.3499996 h -0.52916 -0.52917 V 5.820833 5.2916663 h -2.64583 -2.64584 V 5.820833 6.3499996 h -1.05833 -1.05833 V 5.820833 5.2916663 h -2.64584 -2.64583 V 4.7624997 4.2333331 h -0.52917 -0.52916 V 3.7041664 3.1749998 h -1.05834 -1.05833 v 0.5291666 0.5291667 h -0.52917 -0.52916 V 3.7041664 3.1749998 h -1.05834 -1.05833 v 1.0583333 1.0583332 h -1.5875 -1.587498 V 5.820833 6.3499996 H 98.424995 97.895829 V 5.820833 5.2916663 H 95.249996 92.604162 V 5.820833 6.3499996 H 91.545829 90.487496 V 5.820833 5.2916663 H 89.429163 88.370829 V 4.7624997 4.2333331 H 87.841663 87.312496 V 3.7041664 3.1749998 H 86.254163 85.19583 V 3.7041664 4.2333331 H 84.666663 84.137497 V 3.7041664 3.1749998 H 82.02083 79.904164 V 3.7041664 4.2333331 H 79.374997 78.84583 V 5.820833 7.4083329 h 0.529167 0.529167 V 7.9374995 8.4666662 H 79.374997 78.84583 v 1.0583332 1.0583336 h 0.529167 0.529167 v 0.529166 0.529167 h 0.529166 0.529167 v 0.529167 0.529166 h 1.5875 1.5875 v -0.529166 -0.529167 h 1.058333 1.058333 v 0.529167 0.529166 h 0.529167 0.529166 v -0.529166 -0.529167 h 0.529167 0.529166 v -1.5875 -1.5874998 h 0.529167 0.529167 v 1.5874998 1.5875 h 0.529166 0.529167 v 0.529167 0.529166 h 0.529167 0.529166 v -0.529166 -0.529167 h 1.058333 1.058334 v 0.529167 0.529166 h 1.058333 1.058333 v -0.529166 -0.529167 h 0.529167 0.529166 v 0.529167 0.529166 h 0.529167 0.529167 v -0.529166 -0.529167 h 1.058333 1.058338 v 0.529167 0.529166 h 2.11666 2.11667 v -0.529166 -0.529167 h 0.52916 0.52917 v 0.529167 0.529166 h 1.5875 1.5875 v -0.529166 -0.529167 h 0.52917 0.52916 v 0.529167 0.529166 h 0.52917 0.52917 v -0.529166 -0.529167 h 0.52916 0.52917 v -1.5875 -1.5874998 h 0.52917 0.52916 v 1.5874998 1.5875 h 0.52917 0.52917 v 0.529167 0.529166 h 0.52916 0.52917 v -0.529166 -0.529167 h 0.52917 0.52916 v 1.058333 1.058334 h 0.52917 0.52917 v 0.529166 0.529167 h 1.5875 1.5875 z m -19.05,-5.2916662 V 8.4666662 h 0.52916 0.52917 v 0.5291666 0.5291666 h -0.52917 -0.52916 z m 16.93333,0 V 8.4666662 h 0.52917 0.52916 v 0.5291666 0.5291666 h -0.52916 -0.52917 z M 107.42083,5.820833 V 5.2916663 h 0.52916 0.52917 V 5.820833 6.3499996 h -0.52917 -0.52916 z M 67.204165,13.229166 V 12.699999 H 66.674998 66.145831 V 12.170833 11.641666 H 65.616665 65.087498 V 7.4083329 3.1749998 h 0.529167 0.529166 V 2.6458332 2.1166665 h 2.645834 2.645833 v 0.5291667 0.5291666 h 0.529166 0.529167 v 0.5291666 0.5291667 h 0.529166 0.529167 V 5.820833 7.4083329 h 0.529167 0.529166 v 2.6458331 2.645833 h -0.529166 -0.529167 v 0.529167 0.529167 h -3.175 -3.174999 z m 3.174999,-1.058333 v -0.529167 h 0.529167 0.529167 v 0.529167 0.529166 h 0.529166 0.529167 v -0.529166 -0.529167 h 0.529166 0.529167 V 11.112499 10.583333 H 73.024997 72.495831 V 10.054166 9.5249994 h 0.529166 0.529167 V 8.9958328 8.4666662 H 73.024997 72.495831 V 7.9374995 7.4083329 H 71.966664 71.437498 V 6.8791663 6.3499996 h 0.529166 0.529167 V 5.820833 5.2916663 H 71.966664 71.437498 V 4.7624997 4.2333331 H 70.908331 70.379164 V 3.7041664 3.1749998 h -1.587499 -1.5875 v 0.5291666 0.5291667 h -0.529167 -0.529167 v 3.1749998 3.1750001 h 0.529167 0.529167 v 0.529166 0.529167 h 0.529166 0.529167 v 0.529167 0.529166 h 1.058333 1.058333 z"
       id="path4" /></g></svg>
