<?xml version="1.0" encoding="UTF-8" standalone="no"?>
<!-- Created with Inkscape (http://www.inkscape.org/) -->

<svg
   width="440"
   height="60"
   viewBox="0 0 116.41666 15.875"
   version="1.1"
   id="svg1"
   xml:space="preserve"
   xmlns:inkscape="http://www.inkscape.org/namespaces/inkscape"
   xmlns:sodipodi="http://sodipodi.sourceforge.net/DTD/sodipodi-0.dtd"
   xmlns="http://www.w3.org/2000/svg"
   xmlns:svg="http://www.w3.org/2000/svg"><sodipodi:namedview
     id="namedview1"
     pagecolor="#505050"
     bordercolor="#ffffff"
     borderopacity="1"
     inkscape:showpageshadow="0"
     inkscape:pageopacity="0"
     inkscape:pagecheckerboard="1"
     inkscape:deskcolor="#505050"
     inkscape:document-units="px"
     inkscape:export-bgcolor="#00000000" /><defs
     id="defs1" /><g
     inkscape:label="Layer 1"
     inkscape:groupmode="layer"
     id="layer1"><g
       id="g1"><path
         style="fill:#fefefe"
         d="M 3.1749997,13.229167 V 12.7 H 2.6458331 2.1166665 V 10.583333 8.4666667 H 3.1749997 4.233333 V 7.9375 7.4083333 H 3.7041663 3.1749997 V 6.8791667 6.35 H 2.6458331 2.1166665 V 4.2333333 2.1166667 H 6.3499994 10.583332 V 2.6458333 3.175 h 0.529167 0.529167 V 3.7041667 4.2333333 H 29.633331 47.624996 V 4.7625 5.2916667 h 0.529166 0.529167 V 5.8208333 6.35 h 0.529167 0.529166 V 9.525 12.7 h -0.529166 -0.529167 v 0.529167 0.529166 h -3.175 -3.174999 V 13.229167 12.7 h -0.529167 -0.529167 v 0.529167 0.529166 h -3.174999 -3.175 V 13.229167 12.7 H 34.39583 33.866664 V 11.641667 10.583333 H 33.337497 32.80833 V 11.641667 12.7 h -0.529166 -0.529167 v 0.529167 0.529166 H 27.516664 23.283331 V 13.229167 12.7 h -1.058333 -1.058333 v 0.529167 0.529166 h -1.5875 -1.5875 V 13.229167 12.7 h -0.529167 -0.529166 v 0.529167 0.529166 h -1.5875 -1.5875 V 13.229167 12.7 h -0.529166 -0.529167 v 0.529167 0.529166 H 7.9374993 3.1749997 Z m 50.7999953,0 V 12.7 H 53.445829 52.916662 V 7.4083333 2.1166667 h 5.820833 5.820833 V 2.6458333 3.175 h 0.529166 0.529167 V 3.7041667 4.2333333 H 77.787493 89.958325 V 3.175 2.1166667 h 2.116667 2.116666 V 2.6458333 3.175 h 0.529167 0.529167 V 2.6458333 2.1166667 h 2.116666 2.116667 V 2.6458333 3.175 h 0.529165 0.52917 v 0.5291667 0.5291666 h 6.35 6.35 V 4.7625 5.2916667 h 0.52916 0.52917 v 3.175 3.1750003 h -0.52917 -0.52916 V 12.170833 12.7 h -0.52917 -0.52917 v 0.529167 0.529166 H 102.12916 92.074992 V 13.229167 12.7 h -0.529167 -0.529166 v 0.529167 0.529166 H 79.90416 68.791661 V 13.229167 12.7 h -0.529167 -0.529167 v 0.529167 0.529166 h -4.762499 -4.7625 V 13.229167 12.7 h -0.529166 -0.529167 v 0.529167 0.529166 h -1.5875 -1.5875 z"
         id="path3" /><path
         style="fill:#3f3f3f"
         d="M 3.1749997,13.229167 V 12.7 H 2.6458331 2.1166665 V 10.583333 8.4666667 H 3.1749997 4.233333 V 7.9375 7.4083333 H 3.7041663 3.1749997 V 6.8791667 6.35 H 2.6458331 2.1166665 V 4.2333333 2.1166667 H 6.3499994 10.583332 V 2.6458333 3.175 h 0.529167 0.529167 V 3.7041667 4.2333333 H 29.633331 47.624996 V 4.7625 5.2916667 h 0.529166 0.529167 V 5.8208333 6.35 h 0.529167 0.529166 V 9.525 12.7 h -0.529166 -0.529167 v 0.529167 0.529166 h -3.175 -3.174999 V 13.229167 12.7 h -0.529167 -0.529167 v 0.529167 0.529166 h -3.174999 -3.175 V 13.229167 12.7 H 34.39583 33.866664 V 11.641667 10.583333 H 33.337497 32.80833 V 11.641667 12.7 h -0.529166 -0.529167 v 0.529167 0.529166 H 27.516664 23.283331 V 13.229167 12.7 h -1.058333 -1.058333 v 0.529167 0.529166 h -1.5875 -1.5875 V 13.229167 12.7 h -0.529167 -0.529166 v 0.529167 0.529166 h -1.5875 -1.5875 V 13.229167 12.7 h -0.529166 -0.529167 v 0.529167 0.529166 H 7.9374993 3.1749997 Z m 5.2916662,-3.175 V 9.525 H 7.4083327 6.3499994 V 6.8791667 4.2333333 H 7.4083327 8.4666659 V 3.7041667 3.175 H 5.8208328 3.1749997 V 3.7041667 4.2333333 H 4.233333 5.2916662 V 6.8791667 9.525 H 4.233333 3.1749997 v 0.529167 0.529166 H 5.8208328 8.4666659 Z M 10.583332,8.9958333 v -1.5875 h 0.529167 0.529167 V 6.8791667 6.35 h 1.058333 1.058333 v 2.1166667 2.1166663 h 0.529167 0.529166 V 8.4666667 6.35 H 14.287499 13.758332 V 5.8208333 5.2916667 H 12.699999 11.641666 V 5.8208333 6.35 H 11.112499 10.583332 V 5.8208333 5.2916667 H 10.054166 9.5249992 V 7.9375 10.583333 h 0.5291668 0.529166 z m 8.466666,1.0583337 V 9.525 h 0.529167 0.529167 V 8.4666667 7.4083333 h 0.529166 0.529167 V 6.35 5.2916667 H 20.637498 20.108332 V 6.35 7.4083333 H 19.579165 19.049998 V 8.4666667 9.525 H 18.520832 17.991665 V 8.4666667 7.4083333 H 17.462498 16.933332 V 6.35 5.2916667 H 16.404165 15.874999 V 6.35 7.4083333 h 0.529166 0.529167 V 8.4666667 9.525 h 0.529166 0.529167 v 0.529167 0.529166 h 0.529167 0.529166 z m 8.466666,0 V 9.525 H 25.399998 23.283331 V 8.9958333 8.4666667 h 2.116667 2.116666 V 7.4083333 6.35 H 26.987498 26.458331 V 5.8208333 5.2916667 h -1.5875 -1.5875 V 5.8208333 6.35 H 22.754165 22.224998 V 7.9375 9.525 h 0.529167 0.529166 v 0.529167 0.529166 h 2.116667 2.116666 z M 23.283331,6.8791667 V 6.35 h 1.5875 1.5875 v 0.5291667 0.5291666 h -1.5875 -1.5875 z m 6.35,2.1166666 v -1.5875 h 0.529166 0.529167 V 6.8791667 6.35 h 1.058333 1.058333 v 0.5291667 0.5291666 h 0.529167 0.529167 V 6.8791667 6.35 H 33.337497 32.80833 V 5.8208333 5.2916667 H 31.749997 30.691664 V 5.8208333 6.35 H 30.162497 29.633331 V 5.8208333 5.2916667 H 29.104164 28.574998 V 7.9375 10.583333 h 0.529166 0.529167 z M 39.15833,10.054167 V 9.525 h 0.529167 0.529166 V 8.9958333 8.4666667 H 39.687497 39.15833 V 7.9375 7.4083333 h -1.5875 -1.5875 V 6.8791667 6.35 h 2.116667 2.116666 V 5.8208333 5.2916667 H 38.099997 35.98333 V 5.8208333 6.35 h -0.529166 -0.529167 v 0.5291667 0.5291666 h 0.529167 0.529166 V 7.9375 8.4666667 h 1.5875 1.5875 V 8.9958333 9.525 h -2.116667 -2.116666 v 0.529167 0.529166 h 2.116666 2.116667 z m 7.408333,0 V 9.525 H 44.449996 42.33333 V 8.9958333 8.4666667 h 2.116666 2.116667 V 7.4083333 6.35 H 46.037496 45.508329 V 5.8208333 5.2916667 h -1.5875 -1.587499 V 5.8208333 6.35 H 41.804163 41.274996 V 7.9375 9.525 h 0.529167 0.529167 v 0.529167 0.529166 h 2.116666 2.116667 z M 42.33333,6.8791667 V 6.35 h 1.587499 1.5875 v 0.5291667 0.5291666 h -1.5875 -1.587499 z M 53.974995,13.229167 V 12.7 H 53.445829 52.916662 V 7.4083333 2.1166667 h 5.820833 5.820833 V 2.6458333 3.175 h 0.529166 0.529167 V 3.7041667 4.2333333 H 77.787493 89.958325 V 3.175 2.1166667 h 2.116667 2.116666 V 2.6458333 3.175 h 0.529167 0.529167 V 2.6458333 2.1166667 h 2.116666 2.116667 V 2.6458333 3.175 h 0.529165 0.52917 v 0.5291667 0.5291666 h 6.35 6.35 V 4.7625 5.2916667 h 0.52916 0.52917 v 3.175 3.1750003 h -0.52917 -0.52916 V 12.170833 12.7 h -0.52917 -0.52917 v 0.529167 0.529166 H 102.12916 92.074992 V 13.229167 12.7 h -0.529167 -0.529166 v 0.529167 0.529166 H 79.90416 68.791661 V 13.229167 12.7 h -0.529167 -0.529167 v 0.529167 0.529166 h -4.762499 -4.7625 V 13.229167 12.7 h -0.529166 -0.529167 v 0.529167 0.529166 h -1.5875 -1.5875 z m 1.058334,-4.2333337 v -1.5875 h 0.529166 0.529167 V 7.9375 8.4666667 h 0.529166 0.529167 V 8.9958333 9.525 h 0.529167 0.529166 v 0.529167 0.529166 h 0.529167 0.529166 V 10.054167 9.525 H 58.737495 58.208328 V 8.9958333 8.4666667 H 57.679162 57.149995 V 7.9375 7.4083333 H 56.620828 56.091662 V 6.8791667 6.35 h 0.529166 0.529167 V 5.8208333 5.2916667 h 0.529167 0.529166 V 4.7625 4.2333333 h 0.529167 0.529166 V 3.7041667 3.175 H 58.737495 58.208328 V 3.7041667 4.2333333 H 57.679162 57.149995 V 4.7625 5.2916667 H 56.620828 56.091662 V 5.8208333 6.35 H 55.562495 55.033329 V 4.7625 3.175 h -0.529167 -0.529167 v 3.7041667 3.7041663 h 0.529167 0.529167 z m 8.466665,1.0583337 V 9.525 H 62.970828 62.441661 V 7.4083333 5.2916667 H 61.383328 60.324995 V 5.8208333 6.35 h 0.529166 0.529167 V 7.9375 9.525 h -0.529167 -0.529166 v 0.529167 0.529166 h 1.5875 1.587499 z m 2.116667,-1.0583337 v -1.5875 h 0.529167 0.529166 V 6.8791667 6.35 h 1.058333 1.058334 v 2.1166667 2.1166663 h 0.529166 0.529167 V 8.4666667 6.35 H 69.320827 68.791661 V 5.8208333 5.2916667 H 67.733327 66.674994 V 5.8208333 6.35 H 66.145828 65.616661 V 5.8208333 5.2916667 H 65.087494 64.558328 V 7.9375 10.583333 h 0.529166 0.529167 z M 76.199993,10.054167 V 9.525 H 74.083327 71.96666 V 8.9958333 8.4666667 h 2.116667 2.116666 V 7.4083333 6.35 H 75.670827 75.14166 V 5.8208333 5.2916667 h -1.5875 -1.5875 V 5.8208333 6.35 H 71.437494 70.908327 V 7.9375 9.525 h 0.529167 0.529166 v 0.529167 0.529166 h 2.116667 2.116666 z M 71.96666,6.8791667 V 6.35 h 1.5875 1.5875 v 0.5291667 0.5291666 h -1.5875 -1.5875 z m 6.35,1.5875 V 6.35 h 0.529166 0.529167 v 2.1166667 2.1166663 h 0.529167 0.529166 V 8.4666667 6.35 h 0.529167 0.529167 v 2.1166667 2.1166663 h 0.529166 0.529167 V 8.4666667 6.35 H 82.020826 81.49166 V 5.8208333 5.2916667 H 79.374993 77.258327 V 7.9375 10.583333 h 0.529166 0.529167 z m 8.466666,1.5875003 V 9.525 h 0.529166 0.529167 v 0.529167 0.529166 h 0.529167 0.529166 V 7.9375 5.2916667 H 86.783326 84.666659 V 5.8208333 6.35 H 84.137493 83.608326 V 7.9375 9.525 h 0.529167 0.529166 v 0.529167 0.529166 h 1.058334 1.058333 z M 84.666659,7.9375 V 6.35 h 1.5875 1.5875 V 7.4083333 8.4666667 H 87.312492 86.783326 V 8.9958333 9.525 h -1.058333 -1.058334 z m 9.524999,2.116667 V 9.525 H 93.133325 92.074992 V 7.9375 6.35 h 0.529167 0.529166 V 5.8208333 5.2916667 H 92.604159 92.074992 V 4.2333333 3.175 H 91.545825 91.016659 V 4.2333333 5.2916667 H 90.487492 89.958325 V 5.8208333 6.35 h 0.529167 0.529167 V 7.9375 9.525 h 0.529166 0.529167 v 0.529167 0.529166 h 1.058333 1.058333 z m 4.233333,0 V 9.525 H 97.895825 97.366658 V 7.4083333 5.2916667 H 96.308325 95.249992 V 5.8208333 6.35 h 0.529166 0.529167 V 7.9375 9.525 h -0.529167 -0.529166 v 0.529167 0.529166 h 1.5875 1.587499 z m 5.291669,0 V 9.525 h 0.52916 0.52917 V 8.9958333 8.4666667 h -0.52917 -0.52916 V 8.9958333 9.525 h -1.5875 -1.5875 V 7.9375 6.35 h 1.5875 1.5875 v 0.5291667 0.5291666 h 0.52916 0.52917 V 6.8791667 6.35 h -0.52917 -0.52916 V 5.8208333 5.2916667 h -1.5875 -1.5875 V 5.8208333 6.35 h -0.52917 -0.529165 V 7.9375 9.525 h 0.529165 0.52917 v 0.529167 0.529166 h 1.5875 1.5875 z m 6.35,0 V 9.525 h 0.52916 0.52917 V 8.9958333 8.4666667 h -0.52917 -0.52916 V 7.9375 7.4083333 h -1.5875 -1.5875 V 6.8791667 6.35 h 2.11666 2.11667 V 5.8208333 5.2916667 h -2.11667 -2.11666 V 5.8208333 6.35 h -0.52917 -0.52917 v 0.5291667 0.5291666 h 0.52917 0.52917 V 7.9375 8.4666667 h 1.5875 1.5875 V 8.9958333 9.525 h -2.11667 -2.11667 v 0.529167 0.529166 h 2.11667 2.11667 z M 62.441661,3.7041667 V 3.175 h -0.529166 -0.529167 v 0.5291667 0.5291666 h 0.529167 0.529166 z m 34.924997,0 V 3.175 h -0.529166 -0.529167 v 0.5291667 0.5291666 h 0.529167 0.529166 z"
         id="path2" /><path
         style="fill:#000000"
         d="M 3.1749997,13.229167 V 12.7 H 2.6458331 2.1166665 V 10.583333 8.4666667 H 3.1749997 4.233333 V 7.9375 7.4083333 H 3.7041663 3.1749997 V 6.8791667 6.35 H 2.6458331 2.1166665 V 4.2333333 2.1166667 H 6.3499994 10.583332 V 2.6458333 3.175 h 0.529167 0.529167 V 3.7041667 4.2333333 H 29.633331 47.624996 V 4.7625 5.2916667 h 0.529166 0.529167 V 5.8208333 6.35 h 0.529167 0.529166 V 9.525 12.7 h -0.529166 -0.529167 v 0.529167 0.529166 h -3.175 -3.174999 V 13.229167 12.7 h -0.529167 -0.529167 v 0.529167 0.529166 h -3.174999 -3.175 V 13.229167 12.7 H 34.39583 33.866664 V 11.641667 10.583333 H 33.337497 32.80833 V 11.641667 12.7 h -0.529166 -0.529167 v 0.529167 0.529166 H 27.516664 23.283331 V 13.229167 12.7 h -1.058333 -1.058333 v 0.529167 0.529166 h -1.5875 -1.5875 V 13.229167 12.7 h -0.529167 -0.529166 v 0.529167 0.529166 h -1.5875 -1.5875 V 13.229167 12.7 h -0.529166 -0.529167 v 0.529167 0.529166 H 7.9374993 3.1749997 Z m 6.3499995,-1.058334 v -0.529166 h 0.5291668 0.529166 V 12.170833 12.7 h 0.529167 0.529167 v -0.529167 -0.529166 h 0.529166 0.529167 v -1.5875 -1.5875003 h 0.529167 0.529166 v 1.5875003 1.5875 h 0.529167 0.529166 V 12.170833 12.7 h 0.529167 0.529167 v -0.529167 -0.529166 h 0.529166 0.529167 V 11.1125 10.583333 h 0.529166 0.529167 v 0.529167 0.529167 h 0.529167 0.529166 V 12.170833 12.7 h 0.529167 0.529167 v -0.529167 -0.529166 h 0.529166 0.529167 V 11.1125 10.583333 h 1.058333 1.058333 v 0.529167 0.529167 h 0.529167 0.529167 V 12.170833 12.7 h 2.116666 2.116667 v -0.529167 -0.529166 h 0.529166 0.529167 V 12.170833 12.7 h 0.529166 0.529167 v -0.529167 -0.529166 h 0.529167 0.529166 v -1.5875 -1.5875003 h 1.058333 1.058334 V 8.9958333 9.525 h 0.529166 0.529167 v 1.058333 1.058334 h 0.529167 0.529166 V 12.170833 12.7 h 2.116667 2.116666 v -0.529167 -0.529166 h 0.529167 0.529166 V 11.1125 10.583333 h 0.529167 0.529167 v 0.529167 0.529167 h 0.529166 0.529167 V 12.170833 12.7 h 2.116666 2.116667 v -0.529167 -0.529166 h 0.529166 0.529167 V 11.1125 10.583333 H 48.154162 47.624996 V 10.054167 9.525 h 0.529166 0.529167 V 8.4666667 7.4083333 H 48.154162 47.624996 V 6.8791667 6.35 H 47.095829 46.566663 V 5.8208333 5.2916667 H 44.449996 42.33333 V 5.8208333 6.35 H 41.804163 41.274996 V 5.8208333 5.2916667 H 38.629163 35.98333 V 5.8208333 6.35 H 34.924997 33.866664 V 5.8208333 5.2916667 H 31.220831 28.574998 V 5.8208333 6.35 H 28.045831 27.516664 V 5.8208333 5.2916667 H 25.399998 23.283331 V 5.8208333 6.35 H 22.754165 22.224998 V 5.8208333 5.2916667 H 21.166665 20.108332 V 6.35 7.4083333 H 19.579165 19.049998 V 6.8791667 6.35 H 18.520832 17.991665 V 5.8208333 5.2916667 H 16.933332 15.874999 V 5.8208333 6.35 H 15.345832 14.816665 V 5.8208333 5.2916667 H 12.699999 10.583332 V 4.7625 4.2333333 H 10.054166 9.5249992 V 3.7041667 3.175 H 6.3499994 3.1749997 V 4.2333333 5.2916667 H 3.7041663 4.233333 V 5.8208333 6.35 H 4.7624996 5.2916662 V 7.9375 9.525 H 4.233333 3.1749997 v 1.058333 1.058334 H 3.7041663 4.233333 V 12.170833 12.7 H 6.8791661 9.5249992 Z M 8.4666659,7.9375 V 6.35 H 8.9958325 9.5249992 V 7.9375 9.525 H 8.9958325 8.4666659 Z M 34.924997,8.9958333 V 8.4666667 h 0.529167 0.529166 V 8.9958333 9.525 H 35.454164 34.924997 Z M 53.974995,13.229167 V 12.7 H 53.445829 52.916662 V 7.4083333 2.1166667 h 5.820833 5.820833 V 2.6458333 3.175 h 0.529166 0.529167 V 3.7041667 4.2333333 H 77.787493 89.958325 V 3.175 2.1166667 h 2.116667 2.116666 V 2.6458333 3.175 h 0.529167 0.529167 V 2.6458333 2.1166667 h 2.116666 2.116667 V 2.6458333 3.175 h 0.529165 0.52917 v 0.5291667 0.5291666 h 6.35 6.35 V 4.7625 5.2916667 h 0.52916 0.52917 v 3.175 3.1750003 h -0.52917 -0.52916 V 12.170833 12.7 h -0.52917 -0.52917 v 0.529167 0.529166 H 102.12916 92.074992 V 13.229167 12.7 h -0.529167 -0.529166 v 0.529167 0.529166 H 79.90416 68.791661 V 13.229167 12.7 h -0.529167 -0.529167 v 0.529167 0.529166 h -4.762499 -4.7625 V 13.229167 12.7 h -0.529166 -0.529167 v 0.529167 0.529166 h -1.5875 -1.5875 z m 2.116667,-1.058334 v -0.529166 h 0.529166 0.529167 V 11.1125 10.583333 h 0.529167 0.529166 v 0.529167 0.529167 h 0.529167 0.529166 V 12.170833 12.7 h 0.529167 0.529167 v -0.529167 -0.529166 h 0.529166 0.529167 V 12.170833 12.7 h 1.5875 1.5875 v -0.529167 -0.529166 h 0.529166 0.529167 V 12.170833 12.7 h 0.529167 0.529166 v -0.529167 -0.529166 h 0.529167 0.529166 v -1.5875 -1.5875003 h 0.529167 0.529167 v 1.5875003 1.5875 h 0.529166 0.529167 V 12.170833 12.7 h 0.529167 0.529166 v -0.529167 -0.529166 h 1.058333 1.058334 V 12.170833 12.7 h 2.116666 2.116667 v -0.529167 -0.529166 h 0.529166 0.529167 V 12.170833 12.7 h 0.529166 0.529167 v -0.529167 -0.529166 h 0.529167 0.529166 V 12.170833 12.7 h 0.529167 0.529167 v -0.529167 -0.529166 h 0.529166 0.529167 V 12.170833 12.7 h 0.529166 0.529167 v -0.529167 -0.529166 h 1.058333 1.058334 V 12.170833 12.7 h 1.058333 1.058333 v -0.529167 -0.529166 h 0.529167 0.529166 V 12.170833 12.7 h 0.529167 0.529166 v -0.529167 -0.529166 h 0.529167 0.529167 V 11.1125 10.583333 h 0.529166 0.529167 v 0.529167 0.529167 h 0.529167 0.529166 V 12.170833 12.7 h 1.058333 1.058334 v -0.529167 -0.529166 h 0.529166 0.529167 V 12.170833 12.7 h 1.5875 1.5875 v -0.529167 -0.529166 h 1.058335 1.05833 V 12.170833 12.7 h 1.5875 1.5875 v -0.529167 -0.529166 h 1.05833 1.05834 V 12.170833 12.7 h 2.11666 2.11667 v -0.529167 -0.529166 h 0.52917 0.52916 V 11.1125 10.583333 h 0.52917 0.52917 V 10.054167 9.525 h -0.52917 -0.52917 V 8.4666667 7.4083333 h 0.52917 0.52917 V 6.8791667 6.35 h -0.52917 -0.52917 V 5.8208333 5.2916667 h -2.64583 -2.64583 V 5.8208333 6.35 h -1.05834 -1.05833 V 5.8208333 5.2916667 h -2.11667 -2.11666 V 5.8208333 6.35 H 99.483325 98.424991 V 5.8208333 5.2916667 h 0.529167 0.529167 V 4.7625 4.2333333 H 98.954158 98.424991 V 3.7041667 3.175 H 97.366658 96.308325 V 4.2333333 5.2916667 H 95.779158 95.249992 V 5.8208333 6.35 H 94.720825 94.191658 V 5.2916667 4.2333333 H 93.662492 93.133325 V 3.7041667 3.175 h -1.058333 -1.058333 v 1.0583333 1.0583334 h -3.175 -3.175 V 5.8208333 6.35 H 83.608326 82.549993 V 5.8208333 5.2916667 H 79.90416 77.258327 V 5.8208333 6.35 H 76.72916 76.199993 V 5.8208333 5.2916667 H 74.083327 71.96666 V 5.8208333 6.35 H 70.908327 69.849994 V 5.8208333 5.2916667 H 67.204161 64.558328 V 4.7625 4.2333333 H 64.029161 63.499994 V 3.7041667 3.175 H 62.441661 61.383328 V 3.7041667 4.2333333 H 60.854161 60.324995 V 3.7041667 3.175 H 59.266661 58.208328 V 3.7041667 4.2333333 H 57.149995 56.091662 V 3.7041667 3.175 h -1.058333 -1.058334 v 4.2333333 4.2333337 h 0.529167 0.529167 V 12.170833 12.7 h 0.529166 0.529167 z M 59.266661,8.9958333 V 8.4666667 H 58.737495 58.208328 V 7.9375 7.4083333 h 0.529167 0.529166 V 6.8791667 6.35 h 0.529167 0.529167 v 0.5291667 0.5291666 h 0.529166 0.529167 V 8.4666667 9.525 H 60.324995 59.266661 Z M 94.191658,8.4666667 V 7.4083333 h 1.058334 1.058333 V 8.4666667 9.525 h -1.058333 -1.058334 z m 8.466662,0.5291666 V 8.4666667 h 0.52917 0.52917 V 8.9958333 9.525 h -0.52917 -0.52917 z m 3.175,0 V 8.4666667 h 0.52917 0.52917 V 8.9958333 9.525 h -0.52917 -0.52917 z m -42.333326,-3.175 V 5.2916667 h 0.529167 0.529167 V 5.8208333 6.35 h -0.529167 -0.529167 z"
         id="path1" /></g></g></svg>
