<?xml version="1.0" encoding="UTF-8" standalone="no"?>
<!-- Created with Inkscape (http://www.inkscape.org/) -->

<svg
   width="516"
   height="60"
   viewBox="0 0 136.52499 15.875"
   version="1.1"
   id="svg1"
   xml:space="preserve"
   inkscape:export-filename="label_gex.svg"
   inkscape:export-xdpi="96"
   inkscape:export-ydpi="96"
   xmlns:inkscape="http://www.inkscape.org/namespaces/inkscape"
   xmlns:sodipodi="http://sodipodi.sourceforge.net/DTD/sodipodi-0.dtd"
   xmlns="http://www.w3.org/2000/svg"
   xmlns:svg="http://www.w3.org/2000/svg"><sodipodi:namedview
     id="namedview1"
     pagecolor="#505050"
     bordercolor="#ffffff"
     borderopacity="1"
     inkscape:showpageshadow="0"
     inkscape:pageopacity="0"
     inkscape:pagecheckerboard="1"
     inkscape:deskcolor="#505050"
     inkscape:document-units="px"
     inkscape:export-bgcolor="#00000000" /><defs
     id="defs1" /><g
     inkscape:label="Layer 1"
     inkscape:groupmode="layer"
     id="layer1"><g
       id="g2"
       transform="translate(10.054169)"><path
         style="fill:#fefefe"
         d="M 77.258327,15.345833 V 14.816667 H 76.72916 76.199993 V 14.2875 13.758333 H 69.320827 62.441661 V 13.229167 12.7 h -0.529166 -0.529167 v 0.529167 0.529166 h -4.7625 -4.762499 V 13.229167 12.7 H 51.329162 50.799996 V 7.4083333 2.1166667 h 4.233333 4.233332 V 2.6458333 3.175 h 0.529167 0.529167 V 3.7041667 4.2333333 H 71.437494 82.549993 V 3.175 2.1166667 h 2.645833 2.645833 V 2.6458333 3.175 h 0.529167 0.529166 v 0.5291667 0.5291666 h 3.175 3.175 V 4.7625 5.2916667 h 0.529166 0.529167 V 5.8208333 6.35 h 0.529167 0.529166 V 9.525 12.7 h -0.529166 -0.529167 v 0.529167 0.529166 h -3.175 -3.175 V 13.229167 12.7 h -0.529166 -0.529167 v 0.529167 0.529166 H 85.195826 81.49166 V 14.2875 14.816667 H 80.962493 80.433326 V 15.345833 15.875 h -1.5875 -1.587499 z M 21.166665,13.229167 V 12.7 H 20.637498 20.108332 V 12.170833 11.641667 H 19.579165 19.049998 V 7.4083333 3.175 h 0.529167 0.529167 V 2.6458333 2.1166667 h 3.174999 3.175 V 2.6458333 3.175 h 0.529167 0.529166 v 0.5291667 0.5291666 h 8.995833 8.995832 V 4.7625 5.2916667 h 0.529167 0.529167 V 5.8208333 6.35 h 0.529166 0.529167 V 9.525 12.7 h -0.529167 -0.529166 v 0.529167 0.529166 h -9.525 -9.524999 V 13.229167 12.7 h -0.529166 -0.529167 v 0.529167 0.529166 h -2.645833 -2.645833 z"
         id="path4" /><path
         style="fill:#3f3f3f"
         d="M 77.258327,15.345833 V 14.816667 H 76.72916 76.199993 V 14.2875 13.758333 H 69.320827 62.441661 V 13.229167 12.7 h -0.529166 -0.529167 v 0.529167 0.529166 h -4.7625 -4.762499 V 13.229167 12.7 H 51.329162 50.799996 V 7.4083333 2.1166667 h 4.233333 4.233332 V 2.6458333 3.175 h 0.529167 0.529167 V 3.7041667 4.2333333 H 71.437494 82.549993 V 3.175 2.1166667 h 2.645833 2.645833 V 2.6458333 3.175 h 0.529167 0.529166 v 0.5291667 0.5291666 h 3.175 3.175 V 4.7625 5.2916667 h 0.529166 0.529167 V 5.8208333 6.35 h 0.529167 0.529166 V 9.525 12.7 h -0.529166 -0.529167 v 0.529167 0.529166 h -3.175 -3.175 V 13.229167 12.7 h -0.529166 -0.529167 v 0.529167 0.529166 H 85.195826 81.49166 V 14.2875 14.816667 H 80.962493 80.433326 V 15.345833 15.875 h -1.5875 -1.587499 z m 1.058333,-3.704166 v -1.058334 h 1.5875 1.5875 V 10.054167 9.525 h 0.529166 0.529167 V 7.9375 6.35 H 82.020826 81.49166 V 5.8208333 5.2916667 H 79.374993 77.258327 V 8.9958333 12.7 h 0.529166 0.529167 z m 0,-3.704167 V 6.35 h 1.5875 1.5875 V 7.9375 9.525 h -1.5875 -1.5875 z M 57.149995,10.054167 V 9.525 H 55.033329 52.916662 V 8.4666667 7.4083333 h 1.5875 1.5875 V 6.8791667 6.35 h -1.5875 -1.5875 V 5.2916667 4.2333333 h 2.116667 2.116666 V 3.7041667 3.175 h -2.645833 -2.645833 v 3.7041667 3.7041663 h 2.645833 2.645833 z m 2.116666,0 V 9.525 h 0.529167 0.529167 V 8.9958333 8.4666667 h 0.529166 0.529167 V 8.9958333 9.525 h 0.529167 0.529166 v 0.529167 0.529166 h 0.529167 0.529166 V 10.054167 9.525 H 62.970828 62.441661 V 8.9958333 8.4666667 H 61.912495 61.383328 V 7.9375 7.4083333 h 0.529167 0.529166 V 6.8791667 6.35 h 0.529167 0.529166 V 5.8208333 5.2916667 H 62.970828 62.441661 V 5.8208333 6.35 H 61.912495 61.383328 V 6.8791667 7.4083333 H 60.854161 60.324995 V 6.8791667 6.35 H 59.795828 59.266661 V 5.8208333 5.2916667 H 58.737495 58.208328 V 5.8208333 6.35 h 0.529167 0.529166 v 0.5291667 0.5291666 h 0.529167 0.529167 V 7.9375 8.4666667 H 59.795828 59.266661 V 8.9958333 9.525 h -0.529166 -0.529167 v 0.529167 0.529166 h 0.529167 0.529166 z m 8.466666,0 V 9.525 h 0.529167 0.529167 v 0.529167 0.529166 h 0.529166 0.529167 V 7.9375 5.2916667 H 67.733327 65.616661 V 5.8208333 6.35 H 65.087494 64.558328 V 7.9375 9.525 h 0.529166 0.529167 v 0.529167 0.529166 h 1.058333 1.058333 z M 65.616661,7.9375 V 6.35 h 1.5875 1.5875 V 7.4083333 8.4666667 H 68.262494 67.733327 V 8.9958333 9.525 H 66.674994 65.616661 Z M 71.96666,8.4666667 V 6.35 h 0.529167 0.529167 v 2.1166667 2.1166663 h 0.529166 0.529167 V 8.4666667 6.35 h 0.529166 0.529167 v 2.1166667 2.1166663 h 0.529167 0.529166 V 8.4666667 6.35 H 75.670827 75.14166 V 5.8208333 5.2916667 H 73.024994 70.908327 V 7.9375 10.583333 h 0.529167 0.529166 z M 86.783326,10.054167 V 9.525 H 86.254159 85.724993 V 6.35 3.175 h -1.058334 -1.058333 v 0.5291667 0.5291666 h 0.529167 0.529166 V 6.8791667 9.525 h -0.529166 -0.529167 v 0.529167 0.529166 h 1.5875 1.5875 z m 7.408332,0 V 9.525 H 92.074992 89.958325 V 8.9958333 8.4666667 h 2.116667 2.116666 V 7.4083333 6.35 H 93.662492 93.133325 V 5.8208333 5.2916667 h -1.5875 -1.5875 V 5.8208333 6.35 H 89.429159 88.899992 V 7.9375 9.525 h 0.529167 0.529166 v 0.529167 0.529166 h 2.116667 2.116666 z M 89.958325,6.8791667 V 6.35 h 1.5875 1.5875 v 0.5291667 0.5291666 h -1.5875 -1.5875 z M 21.166665,13.229167 V 12.7 H 20.637498 20.108332 V 12.170833 11.641667 H 19.579165 19.049998 V 7.4083333 3.175 h 0.529167 0.529167 V 2.6458333 2.1166667 h 3.174999 3.175 V 2.6458333 3.175 h 0.529167 0.529166 v 0.5291667 0.5291666 h 8.995833 8.995832 V 4.7625 5.2916667 h 0.529167 0.529167 V 5.8208333 6.35 h 0.529166 0.529167 V 9.525 12.7 h -0.529167 -0.529166 v 0.529167 0.529166 h -9.525 -9.524999 V 13.229167 12.7 h -0.529166 -0.529167 v 0.529167 0.529166 h -2.645833 -2.645833 z m 3.175,-3.175 V 9.525 h 0.529166 0.529167 V 7.9375 6.35 h -1.058333 -1.058334 v 0.5291667 0.5291666 h 0.529167 0.529167 V 8.4666667 9.525 h -1.5875 -1.5875 V 6.8791667 4.2333333 h 1.5875 1.5875 V 4.7625 5.2916667 h 0.529166 0.529167 V 4.7625 4.2333333 H 24.870831 24.341665 V 3.7041667 3.175 h -1.5875 -1.5875 V 3.7041667 4.2333333 H 20.637498 20.108332 V 6.8791667 9.525 h 0.529166 0.529167 v 0.529167 0.529166 h 1.5875 1.5875 z m 5.291666,0 V 9.525 h 0.529166 0.529167 v 0.529167 0.529166 h 0.529167 0.529166 V 7.9375 5.2916667 H 29.633331 27.516664 V 5.8208333 6.35 H 26.987498 26.458331 V 7.9375 9.525 h 0.529167 0.529166 v 0.529167 0.529166 h 1.058334 1.058333 z M 27.516664,7.9375 V 6.35 h 1.5875 1.5875 V 7.4083333 8.4666667 H 30.162497 29.633331 V 8.9958333 9.525 h -1.058333 -1.058334 z m 6.35,0.5291667 V 6.35 h 0.529166 0.529167 v 2.1166667 2.1166663 h 0.529167 0.529166 V 8.4666667 6.35 h 0.529167 0.529166 v 2.1166667 2.1166663 h 0.529167 0.529167 V 8.4666667 6.35 H 37.57083 37.041663 V 5.8208333 5.2916667 H 34.924997 32.80833 V 7.9375 10.583333 h 0.529167 0.529167 z M 44.449996,10.054167 V 9.525 H 42.33333 40.216663 V 8.9958333 8.4666667 h 2.116667 2.116666 V 7.4083333 6.35 H 43.920829 43.391663 V 5.8208333 5.2916667 h -1.5875 -1.5875 V 5.8208333 6.35 H 39.687497 39.15833 V 7.9375 9.525 h 0.529167 0.529166 v 0.529167 0.529166 h 2.116667 2.116666 z M 40.216663,6.8791667 V 6.35 h 1.5875 1.5875 v 0.5291667 0.5291666 h -1.5875 -1.5875 z"
         id="path3" /><path
         style="fill:#000000"
         d="M 77.258327,15.345833 V 14.816667 H 76.72916 76.199993 V 14.2875 13.758333 H 69.320827 62.441661 V 13.229167 12.7 h -0.529166 -0.529167 v 0.529167 0.529166 h -4.7625 -4.762499 V 13.229167 12.7 H 51.329162 50.799996 V 7.4083333 2.1166667 h 4.233333 4.233332 V 2.6458333 3.175 h 0.529167 0.529167 V 3.7041667 4.2333333 H 71.437494 82.549993 V 3.175 2.1166667 h 2.645833 2.645833 V 2.6458333 3.175 h 0.529167 0.529166 v 0.5291667 0.5291666 h 3.175 3.175 V 4.7625 5.2916667 h 0.529166 0.529167 V 5.8208333 6.35 h 0.529167 0.529166 V 9.525 12.7 h -0.529166 -0.529167 v 0.529167 0.529166 h -3.175 -3.175 V 13.229167 12.7 h -0.529166 -0.529167 v 0.529167 0.529166 H 85.195826 81.49166 V 14.2875 14.816667 H 80.962493 80.433326 V 15.345833 15.875 h -1.5875 -1.587499 z M 79.374993,14.2875 v -0.529167 h 0.529167 0.529166 V 13.229167 12.7 h 1.058334 1.058333 v -0.529167 -0.529166 h 1.058333 1.058333 V 12.170833 12.7 h 1.5875 1.5875 v -0.529167 -0.529166 h 0.529167 0.529166 V 11.1125 10.583333 h 0.529167 0.529166 v 0.529167 0.529167 h 0.529167 0.529167 V 12.170833 12.7 h 2.116666 2.116667 v -0.529167 -0.529166 h 0.529166 0.529167 V 11.1125 10.583333 H 95.779158 95.249992 V 10.054167 9.525 h 0.529166 0.529167 V 8.4666667 7.4083333 H 95.779158 95.249992 V 6.8791667 6.35 H 94.720825 94.191658 V 5.8208333 5.2916667 H 92.074992 89.958325 V 5.8208333 6.35 h -0.529166 -0.529167 v 2.1166667 2.1166663 h -0.529166 -0.529167 v -3.1749997 -3.175 H 87.312492 86.783326 V 3.7041667 3.175 h -1.5875 -1.5875 v 1.0583333 1.0583334 h 0.529167 0.529166 V 6.35 7.4083333 H 84.137493 83.608326 V 6.8791667 6.35 H 83.079159 82.549993 V 5.8208333 5.2916667 H 79.90416 77.258327 V 5.8208333 6.35 H 76.72916 76.199993 V 5.8208333 5.2916667 H 70.908327 65.616661 V 5.8208333 6.35 H 65.087494 64.558328 V 5.8208333 5.2916667 H 63.499994 62.441661 V 5.8208333 6.35 H 61.383328 60.324995 V 5.8208333 5.2916667 H 59.795828 59.266661 V 4.7625 4.2333333 H 58.737495 58.208328 V 3.7041667 3.175 h -3.174999 -3.175 v 4.2333333 4.2333337 h 0.529166 0.529167 V 12.170833 12.7 h 2.645833 2.645833 v -0.529167 -0.529166 h 0.529167 0.529166 V 12.170833 12.7 h 0.529167 0.529167 v -0.529167 -0.529166 h 0.529166 0.529167 V 11.1125 10.583333 h 0.529167 0.529166 v 0.529167 0.529167 h 0.529167 0.529166 V 12.170833 12.7 h 0.529167 0.529167 v -0.529167 -0.529166 h 1.058333 1.058333 V 12.170833 12.7 h 1.058333 1.058334 v -0.529167 -0.529166 h 0.529166 0.529167 V 12.170833 12.7 h 0.529167 0.529166 v -0.529167 -0.529166 h 0.529167 0.529166 V 12.170833 12.7 h 0.529167 0.529167 v -0.529167 -0.529166 h 0.529166 0.529167 V 12.170833 12.7 h 0.529166 0.529167 v -0.529167 -0.529166 h 0.529167 0.529166 V 12.170833 12.7 h 0.529167 0.529167 v 0.529167 0.529166 h 0.529166 0.529167 v 0.529167 0.529167 h 0.529166 0.529167 z M 57.149995,8.9958333 V 8.4666667 h 0.529167 0.529166 V 7.9375 7.4083333 H 57.679162 57.149995 V 6.8791667 6.35 h 0.529167 0.529166 v 0.5291667 0.5291666 h 0.529167 0.529166 V 8.4666667 9.525 h -1.058333 -1.058333 z m 6.349999,0 V 8.4666667 h 0.529167 0.529167 V 8.9958333 9.525 h -0.529167 -0.529167 z m 16.933332,0 V 8.4666667 h 0.529167 0.529167 V 8.9958333 9.525 H 80.962493 80.433326 Z M 21.166665,13.229167 V 12.7 H 20.637498 20.108332 V 12.170833 11.641667 H 19.579165 19.049998 V 7.4083333 3.175 h 0.529167 0.529167 V 2.6458333 2.1166667 h 3.174999 3.175 V 2.6458333 3.175 h 0.529167 0.529166 v 0.5291667 0.5291666 h 8.995833 8.995832 V 4.7625 5.2916667 h 0.529167 0.529167 V 5.8208333 6.35 h 0.529166 0.529167 V 9.525 12.7 h -0.529167 -0.529166 v 0.529167 0.529166 h -9.525 -9.524999 V 13.229167 12.7 h -0.529166 -0.529167 v 0.529167 0.529166 h -2.645833 -2.645833 z m 4.233333,-1.058334 v -0.529166 h 0.529166 0.529167 V 11.1125 10.583333 h 0.529167 0.529166 v 0.529167 0.529167 h 0.529167 0.529167 V 12.170833 12.7 h 1.058333 1.058333 v -0.529167 -0.529166 h 0.529167 0.529166 V 12.170833 12.7 h 0.529167 0.529166 v -0.529167 -0.529166 h 0.529167 0.529167 V 12.170833 12.7 h 0.529166 0.529167 v -0.529167 -0.529166 h 0.529167 0.529166 V 12.170833 12.7 h 0.529167 0.529166 v -0.529167 -0.529166 h 0.529167 0.529167 V 12.170833 12.7 h 0.529166 0.529167 v -0.529167 -0.529166 h 1.058333 1.058333 V 12.170833 12.7 h 2.116667 2.116666 v -0.529167 -0.529166 h 0.529167 0.529167 V 11.1125 10.583333 H 46.037496 45.508329 V 10.054167 9.525 h 0.529167 0.529167 V 8.4666667 7.4083333 H 46.037496 45.508329 V 6.8791667 6.35 H 44.979163 44.449996 V 5.8208333 5.2916667 H 42.33333 40.216663 V 5.8208333 6.35 H 39.15833 38.099997 V 5.8208333 5.2916667 H 32.279164 26.458331 V 4.7625 4.2333333 H 25.929164 25.399998 V 3.7041667 3.175 h -2.116667 -2.116666 v 0.5291667 0.5291666 h -0.529167 -0.529166 v 3.175 3.1749997 h 0.529166 0.529167 v 0.529167 0.529167 h 0.529166 0.529167 V 12.170833 12.7 h 1.5875 1.5875 z M 23.283331,8.9958333 V 8.4666667 h 0.529167 0.529167 V 8.9958333 9.525 h -0.529167 -0.529167 z"
         id="path2" /></g></g></svg>
