<?xml version="1.0" encoding="UTF-8" standalone="no"?>
<!-- Created with Inkscape (http://www.inkscape.org/) -->

<svg
   width="548"
   height="120"
   viewBox="0 0 144.99166 31.75"
   version="1.1"
   id="svg1"
   xml:space="preserve"
   xmlns="http://www.w3.org/2000/svg"
   xmlns:svg="http://www.w3.org/2000/svg"><defs
     id="defs1" /><g
     id="layer1"><g
       id="g1"><path
         style="fill:#fefefe"
         d="M 59.266661,15.875 V 0 h 1.058333 1.058334 V 15.875 31.75 H 60.324994 59.266661 Z M 27.516664,29.104167 V 28.575 H 26.987498 26.458331 V 28.045833 27.516667 H 25.399998 24.341664 V 26.9875 26.458333 h -0.529166 -0.529167 v 0.529167 0.529167 h -4.762499 -4.7625 V 26.9875 26.458333 H 13.229165 12.699999 V 21.166667 15.875 h 0.529166 0.529167 V 15.345833 14.816667 H 12.699999 11.641666 V 15.345833 15.875 h -1.5875 -1.5875001 V 15.345833 14.816667 H 7.9374993 7.4083327 V 10.583333 6.35 h 2.1166664 2.1166669 v 0.5291667 0.5291666 h 0.529166 0.529167 V 6.8791667 6.35 h 0.529166 0.529167 V 5.8208333 5.2916667 h 3.175 3.174999 V 5.8208333 6.35 h 0.529167 0.529167 V 5.8208333 5.2916667 h 5.820833 5.820832 V 4.7625 4.2333333 h 0.529167 0.529167 V 3.7041667 3.175 h 0.529166 0.529167 v 0.5291667 0.5291666 h 0.529166 0.529167 V 4.7625 5.2916667 h 0.529167 0.529166 V 4.2333333 3.175 h 0.529167 0.529167 V 2.6458333 2.1166667 h 2.116666 2.116666 V 2.6458333 3.175 h 0.529167 0.529167 v 1.0583333 1.0583334 h 0.529166 0.529167 V 4.7625 4.2333333 h 0.529167 0.529166 V 3.7041667 3.175 h 0.529167 0.529166 v 0.5291667 0.5291666 h 0.529167 0.529167 V 4.7625 5.2916667 h 0.529166 0.529167 V 5.8208333 6.35 h 0.529167 0.529166 v 2.1166667 2.1166663 h 0.529167 0.529166 V 13.229167 15.875 h -0.529166 -0.529167 v 0.529167 0.529166 h -0.529166 -0.529167 v 0.529167 0.529167 h 0.529167 0.529166 V 18.520833 19.05 h 0.529167 0.529166 v 0.529167 0.529166 h 0.529167 0.529167 v 3.175 3.175 h -0.529167 -0.529167 v 0.529167 0.529167 h -4.762499 -4.7625 V 26.9875 26.458333 H 40.74583 40.216663 v 0.529167 0.529167 h -3.175 -3.174999 V 28.045833 28.575 H 33.337497 32.80833 v 0.529167 0.529166 H 30.162497 27.516664 Z M 68.79166,15.875 v -4.233333 h 3.175 3.175 V 12.7 13.758333 h -2.116667 -2.116666 v 0.529167 0.529167 h 1.5875 1.5875 V 15.875 16.933333 h -1.5875 -1.5875 v 1.5875 1.5875 H 69.849994 68.79166 Z m 7.408333,3.704167 V 19.05 H 75.670826 75.14166 v -2.116667 -2.116666 h 0.529166 0.529167 V 14.2875 13.758333 h 2.116667 2.116666 v 0.529167 0.529167 h 1.058333 1.058333 V 14.2875 13.758333 h 3.175 3.175 V 12.7 11.641667 h 1.058333 1.058333 V 12.7 13.758333 h 0.529167 0.529167 V 14.816667 15.875 h -0.529167 -0.529167 v 1.058333 1.058334 h 1.058334 1.058333 V 15.875 13.758333 h 1.058333 1.058333 V 15.875 17.991667 h 0.529167 0.529167 V 17.4625 16.933333 h 0.529166 0.529167 v -1.5875 -1.5875 h 3.704162 3.70417 v 0.529167 0.529167 h 1.05833 1.05834 V 14.2875 13.758333 h 2.11666 2.11667 v 0.529167 0.529167 h 0.52917 0.52916 v 2.645833 2.645833 h -2.64583 -2.64583 V 19.579167 19.05 h -0.52917 -0.52917 v -1.058333 -1.058334 h -1.05833 -1.05833 V 16.404167 15.875 h -0.52917 -0.52917 v 0.529167 0.529166 h -0.52916 -0.52917 v 1.5875 1.5875 H 97.895824 94.191658 V 19.579167 19.05 h -0.529167 -0.529166 v 0.529167 0.529166 h -1.5875 -1.5875 V 19.579167 19.05 H 89.429159 88.899992 V 17.4625 15.875 h -0.529167 -0.529166 v 2.116667 2.116666 H 85.195826 82.549992 V 19.579167 19.05 h -0.529166 -0.529167 v 0.529167 0.529166 H 78.845826 76.199993 Z M 84.666659,17.4625 v -0.529167 h 0.529167 0.529166 V 16.404167 15.875 h -1.058333 -1.058333 v 1.058333 1.058334 h 0.529166 0.529167 z M 118.53332,15.875 v -4.233333 h 2.64584 2.64583 V 12.170833 12.7 h 0.52917 0.52916 v 1.058333 1.058334 h 0.52917 0.52917 V 14.2875 13.758333 h 2.11666 2.11667 v 0.529167 0.529167 h 0.52916 0.52917 V 14.2875 13.758333 h 2.64583 2.64584 v 0.529167 0.529167 h 1.05833 1.05833 V 14.2875 13.758333 h 2.11667 2.11667 v 0.529167 0.529167 h 0.52916 0.52917 V 16.933333 19.05 h -0.52917 -0.52916 v 0.529167 0.529166 h -2.11667 -2.11667 V 19.579167 19.05 h -0.52916 -0.52917 v 0.529167 0.529166 h -5.82083 -5.82083 V 19.579167 19.05 h -1.05834 -1.05833 v 0.529167 0.529166 h -2.64583 -2.64584 z m 4.23334,0 v -2.116667 h -1.05834 -1.05833 V 15.875 17.991667 h 1.05833 1.05834 z m 19.04999,1.058333 V 15.875 h -1.05833 -1.05833 v 1.058333 1.058334 h 1.05833 1.05833 z"
         id="path9" /><path
         style="fill:#fefe7f"
         d="M 59.266661,15.875 V 0 h 1.058333 1.058334 V 15.875 31.75 H 60.324994 59.266661 Z M 27.516664,29.104167 V 28.575 H 26.987498 26.458331 V 28.045833 27.516667 H 25.399998 24.341664 V 26.9875 26.458333 h -0.529166 -0.529167 v 0.529167 0.529167 h -4.762499 -4.7625 V 26.9875 26.458333 H 13.229165 12.699999 V 21.166667 15.875 h 0.529166 0.529167 V 15.345833 14.816667 H 12.699999 11.641666 V 15.345833 15.875 h -1.5875 -1.5875001 V 15.345833 14.816667 H 7.9374993 7.4083327 V 10.583333 6.35 h 2.1166664 2.1166669 v 0.5291667 0.5291666 h 0.529166 0.529167 V 6.8791667 6.35 h 0.529166 0.529167 V 5.8208333 5.2916667 h 3.175 3.174999 V 5.8208333 6.35 h 0.529167 0.529167 V 5.8208333 5.2916667 h 5.820833 5.820832 V 4.7625 4.2333333 h 0.529167 0.529167 V 3.7041667 3.175 h 0.529166 0.529167 v 0.5291667 0.5291666 h 0.529166 0.529167 V 4.7625 5.2916667 h 0.529167 0.529166 V 4.2333333 3.175 h 0.529167 0.529167 V 2.6458333 2.1166667 h 2.116666 2.116666 V 2.6458333 3.175 h 0.529167 0.529167 v 1.0583333 1.0583334 h 0.529166 0.529167 V 4.7625 4.2333333 h 0.529167 0.529166 V 3.7041667 3.175 h 0.529167 0.529166 v 0.5291667 0.5291666 h 0.529167 0.529167 V 4.7625 5.2916667 h 0.529166 0.529167 V 5.8208333 6.35 h 0.529167 0.529166 v 2.1166667 2.1166663 h 0.529167 0.529166 V 13.229167 15.875 h -0.529166 -0.529167 v 0.529167 0.529166 h -0.529166 -0.529167 v 0.529167 0.529167 h 0.529167 0.529166 V 18.520833 19.05 h 0.529167 0.529166 v 0.529167 0.529166 h 0.529167 0.529167 v 3.175 3.175 h -0.529167 -0.529167 v 0.529167 0.529167 h -4.762499 -4.7625 V 26.9875 26.458333 H 40.74583 40.216663 v 0.529167 0.529167 h -3.175 -3.174999 V 28.045833 28.575 H 33.337497 32.80833 v 0.529167 0.529166 h -2.645833 -2.645833 z m 41.274996,-9.525 V 19.05 h 0.529167 0.529167 V 17.4625 15.875 h 1.587499 1.5875 v -0.529167 -0.529166 h 0.529167 0.529167 V 15.875 16.933333 h -1.5875 -1.5875 v 1.5875 1.5875 H 69.849994 68.79166 Z m 7.408333,0 V 19.05 H 75.670826 75.14166 v -0.529167 -0.529166 h 0.529166 0.529167 V 17.4625 16.933333 h 2.116667 2.116666 V 15.875 14.816667 H 79.904159 79.374993 V 15.345833 15.875 h -1.5875 -1.5875 v -0.529167 -0.529166 h 1.5875 1.5875 V 14.2875 13.758333 h 0.529166 0.529167 v 0.529167 0.529167 h 0.529167 0.529166 v 1.5875 1.5875 h 0.529167 0.529166 v -1.5875 -1.5875 h 1.5875 1.5875 V 15.345833 15.875 h -1.058333 -1.058333 v 1.058333 1.058334 H 83.079159 82.549992 V 18.520833 19.05 h 1.058334 1.058333 v -0.529167 -0.529166 h 0.529167 0.529166 V 18.520833 19.05 h 0.529167 0.529166 v -2.645833 -2.645834 h 0.529167 0.529167 v 0.529167 0.529167 h 0.529166 0.529167 V 15.345833 15.875 h -0.529167 -0.529166 v 2.116667 2.116666 H 85.195826 82.549992 V 19.579167 19.05 h -0.529166 -0.529167 v 0.529167 0.529166 h -2.645833 -2.645833 z m 4.233333,-1.058334 V 17.991667 H 78.31666 76.199993 V 18.520833 19.05 h 2.116667 2.116666 z m 9.524999,1.058334 V 19.05 h -0.529166 -0.529167 v -0.529167 -0.529166 h 0.529167 0.529166 v -1.5875 -1.5875 h 0.529167 0.529166 V 14.2875 13.758333 H 90.487492 89.958325 V 12.7 11.641667 h 0.529167 0.529166 V 12.7 13.758333 h 0.529167 0.529167 V 14.816667 15.875 h -0.529167 -0.529167 v 1.058333 1.058334 H 90.487492 89.958325 V 18.520833 19.05 h 1.058333 1.058334 v -0.529167 -0.529166 h 1.058333 1.058333 V 15.875 13.758333 h 0.529167 0.529166 V 15.875 17.991667 H 94.720825 94.191658 V 18.520833 19.05 h 1.058333 1.058334 v -0.529167 -0.529166 h 0.529166 0.529167 V 18.520833 19.05 h 0.529166 0.529167 v -2.645833 -2.645834 h 0.529167 0.529166 V 16.404167 19.05 h 0.529166 0.52917 V 17.4625 15.875 h 0.52916 0.52917 v -0.529167 -0.529166 h -0.52917 -0.52916 V 14.2875 13.758333 h 0.52916 0.52917 v 0.529167 0.529167 h 1.05833 1.05834 V 14.2875 13.758333 h 0.52916 0.52917 v 0.529167 0.529167 h 0.52917 0.52916 V 15.875 16.933333 h -1.05833 -1.05833 V 16.404167 15.875 h -0.52917 -0.52917 v 0.529167 0.529166 h -0.52916 -0.52917 v 1.5875 1.5875 H 97.895824 94.191658 V 19.579167 19.05 h -0.529167 -0.529166 v 0.529167 0.529166 h -1.5875 -1.5875 z m 14.816665,-4.233334 v -0.529166 h -0.52917 -0.52916 V 15.345833 15.875 h 0.52916 0.52917 z m 2.11667,4.233334 V 19.05 h -0.52917 -0.52917 v -0.529167 -0.529166 h 0.52917 0.52917 V 17.4625 16.933333 h 2.11666 2.11667 V 15.875 14.816667 h -0.52917 -0.52916 V 15.345833 15.875 h -1.5875 -1.5875 v -0.529167 -0.529166 h 1.5875 1.5875 V 14.2875 13.758333 h 0.52916 0.52917 v 0.529167 0.529167 h 0.52917 0.52916 v 2.645833 2.645833 h -2.64583 -2.64583 z m 4.23333,-1.058334 v -0.529166 h -2.11667 -2.11666 V 18.520833 19.05 h 2.11666 2.11667 z m 7.40833,1.058334 V 19.05 h 2.11667 2.11667 v -0.529167 -0.529166 h 0.52916 0.52917 V 15.345833 12.7 h -0.52917 -0.52916 v 0.529167 0.529166 h -1.05834 -1.05833 V 15.875 17.991667 h -0.52917 -0.52916 V 15.345833 12.7 h 1.5875 1.5875 v -0.529167 -0.529166 h 0.52916 0.52917 V 12.170833 12.7 h 0.52917 0.52916 v 2.645833 2.645834 h 0.52917 0.52917 V 17.4625 16.933333 h 2.11666 2.11667 V 15.875 14.816667 h -0.52917 -0.52917 V 15.345833 15.875 h -1.58749 -1.5875 v -0.529167 -0.529166 h 1.5875 1.58749 V 14.2875 13.758333 h 0.52917 0.52917 v 0.529167 0.529167 h 0.52916 0.52917 V 16.933333 19.05 h 0.52917 0.52916 v -2.116667 -2.116666 h 0.52917 0.52917 V 16.933333 19.05 h 0.52916 0.52917 v -2.116667 -2.116666 h 0.52917 0.52916 V 14.2875 13.758333 h 0.52917 0.52917 v 0.529167 0.529167 h 0.52916 0.52917 v 1.5875 1.5875 h 0.52917 0.52916 v -1.5875 -1.5875 h 1.5875 1.5875 V 14.2875 13.758333 h 0.52917 0.52917 v 0.529167 0.529167 h 0.52916 0.52917 V 16.933333 19.05 h -0.52917 -0.52916 v 0.529167 0.529166 h -2.11667 -2.11667 V 19.579167 19.05 h -0.52916 -0.52917 v 0.529167 0.529166 h -5.82083 -5.82083 V 19.579167 19.05 h -1.05834 -1.05833 v 0.529167 0.529166 h -2.64583 -2.64584 z m 11.64167,-1.058334 v -0.529166 h -2.11667 -2.11666 V 18.520833 19.05 h 2.11666 2.11667 z m 6.35,-1.5875 v -2.116666 h -0.52917 -0.52917 V 16.933333 19.05 h 0.52917 0.52917 z m 5.29166,1.5875 v -0.529166 h 0.52917 0.52917 v -1.5875 -1.5875 h -0.52917 -0.52917 V 15.345833 15.875 h -1.05833 -1.05833 v 1.058333 1.058334 h -0.52917 -0.52917 V 18.520833 19.05 h 1.5875 1.5875 z m -71.966656,-4.7625 V 12.7 h 2.116666 2.116667 v -0.529167 -0.529166 h 0.529166 0.529167 V 12.7 13.758333 H 73.024993 70.908327 V 14.2875 14.816667 H 70.37916 69.849994 Z"
         id="path8" /><path
         style="fill:#7f7ffe"
         d="M 59.266661,15.875 V 0 h 1.058333 1.058334 V 15.875 31.75 H 60.324994 59.266661 Z M 27.516664,29.104167 V 28.575 H 26.987498 26.458331 V 28.045833 27.516667 H 25.399998 24.341664 V 26.9875 26.458333 h -0.529166 -0.529167 v 0.529167 0.529167 h -4.762499 -4.7625 V 26.9875 26.458333 H 13.229165 12.699999 V 21.166667 15.875 h 0.529166 0.529167 V 15.345833 14.816667 H 12.699999 11.641666 V 15.345833 15.875 h -1.5875 -1.5875001 V 15.345833 14.816667 H 7.9374993 7.4083327 V 10.583333 6.35 h 2.1166664 2.1166669 v 0.5291667 0.5291666 h 0.529166 0.529167 V 6.8791667 6.35 h 0.529166 0.529167 V 5.8208333 5.2916667 h 3.175 3.174999 V 5.8208333 6.35 h 0.529167 0.529167 V 5.8208333 5.2916667 h 5.820833 5.820832 V 4.7625 4.2333333 h 0.529167 0.529167 V 3.7041667 3.175 h 0.529166 0.529167 v 0.5291667 0.5291666 h 0.529166 0.529167 V 4.7625 5.2916667 h 0.529167 0.529166 V 4.2333333 3.175 h 0.529167 0.529167 V 2.6458333 2.1166667 h 2.116666 2.116666 V 2.6458333 3.175 h 0.529167 0.529167 v 1.0583333 1.0583334 h 0.529166 0.529167 V 4.7625 4.2333333 h 0.529167 0.529166 V 3.7041667 3.175 h 0.529167 0.529166 v 0.5291667 0.5291666 h 0.529167 0.529167 V 4.7625 5.2916667 h 0.529166 0.529167 V 5.8208333 6.35 h 0.529167 0.529166 v 2.1166667 2.1166663 h 0.529167 0.529166 V 13.229167 15.875 h -0.529166 -0.529167 v 0.529167 0.529166 h -0.529166 -0.529167 v 0.529167 0.529167 h 0.529167 0.529166 V 18.520833 19.05 h 0.529167 0.529166 v 0.529167 0.529166 h 0.529167 0.529167 v 3.175 3.175 h -0.529167 -0.529167 v 0.529167 0.529167 h -4.762499 -4.7625 V 26.9875 26.458333 H 40.74583 40.216663 v 0.529167 0.529167 h -3.175 -3.174999 V 28.045833 28.575 H 33.337497 32.80833 v 0.529167 0.529166 h -2.645833 -2.645833 z m -9.524999,-15.875 V 12.7 h 0.529167 0.529166 V 12.170833 11.641667 H 18.520832 17.991665 V 12.170833 12.7 h -1.5875 -1.5875 V 10.054167 7.4083333 h 1.5875 1.5875 V 7.9375 8.4666667 h 0.529167 0.529166 V 7.9375 7.4083333 H 18.520832 17.991665 V 6.8791667 6.35 h -1.5875 -1.5875 V 6.8791667 7.4083333 H 14.287499 13.758332 V 10.054167 12.7 h 0.529167 0.529166 v 0.529167 0.529166 h 1.5875 1.5875 z M 21.166665,12.7 v -1.058333 h 1.5875 1.587499 V 12.7 13.758333 h 0.529167 0.529167 V 11.641667 9.525 H 24.870831 24.341664 V 8.4666667 7.4083333 H 23.812498 23.283331 V 6.8791667 6.35 H 22.754165 22.224998 V 6.8791667 7.4083333 H 21.695831 21.166665 V 8.4666667 9.525 h -0.529167 -0.529167 v 2.116667 2.116666 h 0.529167 0.529167 z m 0,-2.645833 V 9.525 h 0.529166 0.529167 V 8.4666667 7.4083333 h 0.529167 0.529166 V 8.4666667 9.525 h 0.529167 0.529166 v 0.529167 0.529166 h -1.587499 -1.5875 z m 6.349999,2.116666 v -1.5875 h 1.5875 1.5875 v 1.5875 1.5875 h 0.529166 0.529167 v -1.5875 -1.5875 H 31.22083 30.691664 V 10.054167 9.525 h 0.529166 0.529167 V 8.4666667 7.4083333 H 31.22083 30.691664 V 6.8791667 6.35 h -2.116667 -2.116666 v 3.704167 3.704166 h 0.529167 0.529166 z m 0,-3.7041663 V 7.4083333 h 1.5875 1.5875 V 8.4666667 9.525 h -1.5875 -1.5875 z M 9.5249991,12.170833 v -0.529166 h 0.5291669 0.529166 V 11.1125 10.583333 h 0.529167 0.529167 V 10.054167 9.525 H 11.112499 10.583332 V 8.9958333 8.4666667 H 10.054166 9.5249991 V 7.9375 7.4083333 H 8.9958325 8.4666659 V 10.054167 12.7 H 8.9958325 9.5249991 Z M 68.79166,19.579167 V 19.05 h 0.529167 0.529167 V 17.4625 15.875 h 1.587499 1.5875 v -0.529167 -0.529166 h 0.529167 0.529167 V 15.875 16.933333 h -1.5875 -1.5875 v 1.5875 1.5875 H 69.849994 68.79166 Z m 7.408333,0 V 19.05 H 75.670826 75.14166 v -0.529167 -0.529166 h 0.529166 0.529167 V 17.4625 16.933333 h 2.116667 2.116666 V 15.875 14.816667 H 79.904159 79.374993 V 15.345833 15.875 h -1.5875 -1.5875 v -0.529167 -0.529166 h 1.5875 1.5875 V 14.2875 13.758333 h 0.529166 0.529167 v 0.529167 0.529167 h 0.529167 0.529166 v 1.5875 1.5875 h 0.529167 0.529166 v -1.5875 -1.5875 h 1.5875 1.5875 V 15.345833 15.875 h -1.058333 -1.058333 v 1.058333 1.058334 H 83.079159 82.549992 V 18.520833 19.05 h 1.058334 1.058333 v -0.529167 -0.529166 h 0.529167 0.529166 V 18.520833 19.05 h 0.529167 0.529166 v -2.645833 -2.645834 h 0.529167 0.529167 v 0.529167 0.529167 h 0.529166 0.529167 V 15.345833 15.875 h -0.529167 -0.529166 v 2.116667 2.116666 H 85.195826 82.549992 V 19.579167 19.05 h -0.529166 -0.529167 v 0.529167 0.529166 h -2.645833 -2.645833 z m 4.233333,-1.058334 V 17.991667 H 78.31666 76.199993 V 18.520833 19.05 h 2.116667 2.116666 z m 9.524999,1.058334 V 19.05 h -0.529166 -0.529167 v -0.529167 -0.529166 h 0.529167 0.529166 v -1.5875 -1.5875 h 0.529167 0.529166 V 14.2875 13.758333 H 90.487492 89.958325 V 12.7 11.641667 h 0.529167 0.529166 V 12.7 13.758333 h 0.529167 0.529167 V 14.816667 15.875 h -0.529167 -0.529167 v 1.058333 1.058334 H 90.487492 89.958325 V 18.520833 19.05 h 1.058333 1.058334 v -0.529167 -0.529166 h 1.058333 1.058333 V 15.875 13.758333 h 0.529167 0.529166 V 15.875 17.991667 H 94.720825 94.191658 V 18.520833 19.05 h 1.058333 1.058334 v -0.529167 -0.529166 h 0.529166 0.529167 V 18.520833 19.05 h 0.529166 0.529167 v -2.645833 -2.645834 h 0.529167 0.529166 V 16.404167 19.05 h 0.529166 0.52917 V 17.4625 15.875 h 0.52916 0.52917 v -0.529167 -0.529166 h -0.52917 -0.52916 V 14.2875 13.758333 h 0.52916 0.52917 v 0.529167 0.529167 h 1.05833 1.05834 V 14.2875 13.758333 h 0.52916 0.52917 v 0.529167 0.529167 h 0.52917 0.52916 V 15.875 16.933333 h -1.05833 -1.05833 V 16.404167 15.875 h -0.52917 -0.52917 v 0.529167 0.529166 h -0.52916 -0.52917 v 1.5875 1.5875 H 97.895824 94.191658 V 19.579167 19.05 h -0.529167 -0.529166 v 0.529167 0.529166 h -1.5875 -1.5875 z m 14.816665,-4.233334 v -0.529166 h -0.52917 -0.52916 V 15.345833 15.875 h 0.52916 0.52917 z m 2.11667,4.233334 V 19.05 h -0.52917 -0.52917 v -0.529167 -0.529166 h 0.52917 0.52917 V 17.4625 16.933333 h 2.11666 2.11667 V 15.875 14.816667 h -0.52917 -0.52916 V 15.345833 15.875 h -1.5875 -1.5875 v -0.529167 -0.529166 h 1.5875 1.5875 V 14.2875 13.758333 h 0.52916 0.52917 v 0.529167 0.529167 h 0.52917 0.52916 v 2.645833 2.645833 h -2.64583 -2.64583 z m 4.23333,-1.058334 v -0.529166 h -2.11667 -2.11666 V 18.520833 19.05 h 2.11666 2.11667 z m 7.40833,1.058334 V 19.05 h 2.11667 2.11667 v -0.529167 -0.529166 h 0.52916 0.52917 V 15.345833 12.7 h -0.52917 -0.52916 v 0.529167 0.529166 h -1.05834 -1.05833 V 15.875 17.991667 h -0.52917 -0.52916 V 15.345833 12.7 h 1.5875 1.5875 v -0.529167 -0.529166 h 0.52916 0.52917 V 12.170833 12.7 h 0.52917 0.52916 v 2.645833 2.645834 h 0.52917 0.52917 V 17.4625 16.933333 h 2.11666 2.11667 V 15.875 14.816667 h -0.52917 -0.52917 V 15.345833 15.875 h -1.58749 -1.5875 v -0.529167 -0.529166 h 1.5875 1.58749 V 14.2875 13.758333 h 0.52917 0.52917 v 0.529167 0.529167 h 0.52916 0.52917 V 16.933333 19.05 h 0.52917 0.52916 v -2.116667 -2.116666 h 0.52917 0.52917 V 16.933333 19.05 h 0.52916 0.52917 v -2.116667 -2.116666 h 0.52917 0.52916 V 14.2875 13.758333 h 0.52917 0.52917 v 0.529167 0.529167 h 0.52916 0.52917 v 1.5875 1.5875 h 0.52917 0.52916 v -1.5875 -1.5875 h 1.5875 1.5875 V 14.2875 13.758333 h 0.52917 0.52917 v 0.529167 0.529167 h 0.52916 0.52917 V 16.933333 19.05 h -0.52917 -0.52916 v 0.529167 0.529166 h -2.11667 -2.11667 V 19.579167 19.05 h -0.52916 -0.52917 v 0.529167 0.529166 h -5.82083 -5.82083 V 19.579167 19.05 h -1.05834 -1.05833 v 0.529167 0.529166 h -2.64583 -2.64584 z m 11.64167,-1.058334 v -0.529166 h -2.11667 -2.11666 V 18.520833 19.05 h 2.11666 2.11667 z m 6.35,-1.5875 v -2.116666 h -0.52917 -0.52917 V 16.933333 19.05 h 0.52917 0.52917 z m 5.29166,1.5875 v -0.529166 h 0.52917 0.52917 v -1.5875 -1.5875 h -0.52917 -0.52917 V 15.345833 15.875 h -1.05833 -1.05833 v 1.058333 1.058334 h -0.52917 -0.52917 V 18.520833 19.05 h 1.5875 1.5875 z m -71.966656,-4.7625 V 12.7 h 2.116666 2.116667 v -0.529167 -0.529166 h 0.529166 0.529167 V 12.7 13.758333 H 73.024993 70.908327 V 14.2875 14.816667 H 70.37916 69.849994 Z"
         id="path7" /><path
         style="fill:#7e7e7e"
         d="M 59.266661,15.875 V 0 h 1.058333 1.058334 V 15.875 31.75 H 60.324994 59.266661 Z M 27.516664,29.104167 V 28.575 H 26.987498 26.458331 V 28.045833 27.516667 H 25.399998 24.341664 V 26.9875 26.458333 h -0.529166 -0.529167 v 0.529167 0.529167 h -4.762499 -4.7625 V 26.9875 26.458333 H 13.229165 12.699999 V 21.166667 15.875 h 0.529166 0.529167 V 15.345833 14.816667 H 12.699999 11.641666 V 15.345833 15.875 h -1.5875 -1.5875001 V 15.345833 14.816667 H 7.9374993 7.4083327 V 10.583333 6.35 h 2.1166664 2.1166669 v 0.5291667 0.5291666 h 0.529166 0.529167 V 6.8791667 6.35 h 0.529166 0.529167 V 5.8208333 5.2916667 h 3.175 3.174999 V 5.8208333 6.35 h 0.529167 0.529167 V 5.8208333 5.2916667 h 5.820833 5.820832 V 4.7625 4.2333333 h 0.529167 0.529167 V 3.7041667 3.175 h 0.529166 0.529167 v 0.5291667 0.5291666 h 0.529166 0.529167 V 4.7625 5.2916667 h 0.529167 0.529166 V 4.2333333 3.175 h 0.529167 0.529167 V 2.6458333 2.1166667 h 2.116666 2.116666 V 2.6458333 3.175 h 0.529167 0.529167 v 1.0583333 1.0583334 h 0.529166 0.529167 V 4.7625 4.2333333 h 0.529167 0.529166 V 3.7041667 3.175 h 0.529167 0.529166 v 0.5291667 0.5291666 h 0.529167 0.529167 V 4.7625 5.2916667 h 0.529166 0.529167 V 5.8208333 6.35 h 0.529167 0.529166 v 2.1166667 2.1166663 h 0.529167 0.529166 V 13.229167 15.875 h -0.529166 -0.529167 v 0.529167 0.529166 h -0.529166 -0.529167 v 0.529167 0.529167 h 0.529167 0.529166 V 18.520833 19.05 h 0.529167 0.529166 v 0.529167 0.529166 h 0.529167 0.529167 v 3.175 3.175 h -0.529167 -0.529167 v 0.529167 0.529167 h -4.762499 -4.7625 V 26.9875 26.458333 H 40.74583 40.216663 v 0.529167 0.529167 h -3.175 -3.174999 V 28.045833 28.575 H 33.337497 32.80833 v 0.529167 0.529166 h -2.645833 -2.645833 z m 3.175,-3.175 V 25.4 h 0.529166 0.529167 V 22.225 19.05 h -2.116666 -2.116667 v 0.529167 0.529166 h -0.529166 -0.529167 v 1.5875 1.5875 h 0.529167 0.529166 v 0.529167 0.529167 h 1.5875 1.5875 V 24.870833 25.4 h -1.5875 -1.5875 v 0.529167 0.529166 h 1.5875 1.5875 z m -3.175,-4.233334 v -1.5875 h 1.5875 1.5875 v 1.5875 1.5875 h -1.5875 -1.5875 z M 19.049998,23.8125 V 23.283333 H 16.933332 14.816665 V 22.225 21.166667 h 1.5875 1.5875 V 20.6375 20.108333 h -1.5875 -1.5875 V 19.05 17.991667 h 2.116667 2.116666 V 17.4625 16.933333 h -2.645833 -2.645833 v 3.704167 3.704167 h 2.645833 2.645833 z m 2.116667,-1.058333 v -1.5875 h 0.529166 0.529167 V 20.6375 20.108333 h 1.058333 1.058333 V 22.225 24.341667 h 0.529167 0.529167 V 22.225 20.108333 H 24.870831 24.341664 V 19.579167 19.05 h -1.058333 -1.058333 v 0.529167 0.529166 H 21.695831 21.166665 V 19.579167 19.05 h -0.529167 -0.529167 v 2.645833 2.645834 h 0.529167 0.529167 z M 35.98333,23.8125 V 23.283333 H 35.454163 34.924997 V 21.166667 19.05 H 33.866664 32.80833 v 0.529167 0.529166 h 0.529167 0.529167 v 1.5875 1.5875 H 33.337497 32.80833 v 0.529167 0.529167 h 1.5875 1.5875 z m 2.116667,-1.058333 v -1.5875 h 0.529166 0.529167 V 20.6375 20.108333 h 1.058333 1.058333 V 22.225 24.341667 h 0.529167 0.529166 V 22.225 20.108333 H 41.804163 41.274996 V 19.579167 19.05 H 40.216663 39.15833 v 0.529167 0.529166 H 38.629163 38.099997 V 19.579167 19.05 H 37.57083 37.041663 v 2.645833 2.645834 h 0.529167 0.529167 z M 48.683329,23.8125 V 23.283333 H 46.566662 44.449996 V 22.754167 22.225 h 2.116666 2.116667 V 21.166667 20.108333 H 48.154162 47.624996 V 19.579167 19.05 h -1.5875 -1.5875 v 0.529167 0.529166 h -0.529167 -0.529166 v 1.5875 1.5875 h 0.529166 0.529167 v 0.529167 0.529167 h 2.116666 2.116667 z m -4.233333,-3.175 v -0.529167 h 1.5875 1.5875 v 0.529167 0.529167 h -1.5875 -1.5875 z m -9.524999,-3.175 V 16.933333 H 34.39583 33.866664 v 0.529167 0.529167 h 0.529166 0.529167 z M 17.991665,13.229167 V 12.7 h 0.529167 0.529166 V 12.170833 11.641667 H 18.520832 17.991665 V 12.170833 12.7 h -1.5875 -1.5875 V 10.054167 7.4083333 h 1.5875 1.5875 V 7.9375 8.4666667 h 0.529167 0.529166 V 7.9375 7.4083333 H 18.520832 17.991665 V 6.8791667 6.35 h -1.5875 -1.5875 V 6.8791667 7.4083333 H 14.287499 13.758332 V 10.054167 12.7 h 0.529167 0.529166 v 0.529167 0.529166 h 1.5875 1.5875 z M 21.166665,12.7 v -1.058333 h 1.5875 1.587499 V 12.7 13.758333 h 0.529167 0.529167 V 11.641667 9.525 H 24.870831 24.341664 V 8.4666667 7.4083333 H 23.812498 23.283331 V 6.8791667 6.35 H 22.754165 22.224998 V 6.8791667 7.4083333 H 21.695831 21.166665 V 8.4666667 9.525 h -0.529167 -0.529167 v 2.116667 2.116666 h 0.529167 0.529167 z m 0,-2.645833 V 9.525 h 0.529166 0.529167 V 8.4666667 7.4083333 h 0.529167 0.529166 V 8.4666667 9.525 h 0.529167 0.529166 v 0.529167 0.529166 h -1.587499 -1.5875 z m 6.349999,2.116666 v -1.5875 h 1.5875 1.5875 v 1.5875 1.5875 h 0.529166 0.529167 v -1.5875 -1.5875 H 31.22083 30.691664 V 10.054167 9.525 h 0.529166 0.529167 V 8.4666667 7.4083333 H 31.22083 30.691664 V 6.8791667 6.35 h -2.116667 -2.116666 v 3.704167 3.704166 h 0.529167 0.529166 z m 0,-3.7041663 V 7.4083333 h 1.5875 1.5875 V 8.4666667 9.525 h -1.5875 -1.5875 z M 9.5249991,12.170833 v -0.529166 h 0.5291669 0.529166 V 11.1125 10.583333 h 0.529167 0.529167 V 10.054167 9.525 H 11.112499 10.583332 V 8.9958333 8.4666667 H 10.054166 9.5249991 V 7.9375 7.4083333 H 8.9958325 8.4666659 V 10.054167 12.7 H 8.9958325 9.5249991 Z M 68.79166,19.579167 V 19.05 h 0.529167 0.529167 V 17.4625 15.875 h 1.587499 1.5875 v -0.529167 -0.529166 h 0.529167 0.529167 V 15.875 16.933333 h -1.5875 -1.5875 v 1.5875 1.5875 H 69.849994 68.79166 Z m 7.408333,0 V 19.05 H 75.670826 75.14166 v -0.529167 -0.529166 h 0.529166 0.529167 V 17.4625 16.933333 h 2.116667 2.116666 V 15.875 14.816667 H 79.904159 79.374993 V 15.345833 15.875 h -1.5875 -1.5875 v -0.529167 -0.529166 h 1.5875 1.5875 V 14.2875 13.758333 h 0.529166 0.529167 v 0.529167 0.529167 h 0.529167 0.529166 v 1.5875 1.5875 h 0.529167 0.529166 v -1.5875 -1.5875 h 1.5875 1.5875 V 15.345833 15.875 h -1.058333 -1.058333 v 1.058333 1.058334 H 83.079159 82.549992 V 18.520833 19.05 h 1.058334 1.058333 v -0.529167 -0.529166 h 0.529167 0.529166 V 18.520833 19.05 h 0.529167 0.529166 v -2.645833 -2.645834 h 0.529167 0.529167 v 0.529167 0.529167 h 0.529166 0.529167 V 15.345833 15.875 h -0.529167 -0.529166 v 2.116667 2.116666 H 85.195826 82.549992 V 19.579167 19.05 h -0.529166 -0.529167 v 0.529167 0.529166 h -2.645833 -2.645833 z m 4.233333,-1.058334 V 17.991667 H 78.31666 76.199993 V 18.520833 19.05 h 2.116667 2.116666 z m 9.524999,1.058334 V 19.05 h -0.529166 -0.529167 v -0.529167 -0.529166 h 0.529167 0.529166 v -1.5875 -1.5875 h 0.529167 0.529166 V 14.2875 13.758333 H 90.487492 89.958325 V 12.7 11.641667 h 0.529167 0.529166 V 12.7 13.758333 h 0.529167 0.529167 V 14.816667 15.875 h -0.529167 -0.529167 v 1.058333 1.058334 H 90.487492 89.958325 V 18.520833 19.05 h 1.058333 1.058334 v -0.529167 -0.529166 h 1.058333 1.058333 V 15.875 13.758333 h 0.529167 0.529166 V 15.875 17.991667 H 94.720825 94.191658 V 18.520833 19.05 h 1.058333 1.058334 v -0.529167 -0.529166 h 0.529166 0.529167 V 18.520833 19.05 h 0.529166 0.529167 v -2.645833 -2.645834 h 0.529167 0.529166 V 16.404167 19.05 h 0.529166 0.52917 V 17.4625 15.875 h 0.52916 0.52917 v -0.529167 -0.529166 h -0.52917 -0.52916 V 14.2875 13.758333 h 0.52916 0.52917 v 0.529167 0.529167 h 1.05833 1.05834 V 14.2875 13.758333 h 0.52916 0.52917 v 0.529167 0.529167 h 0.52917 0.52916 V 15.875 16.933333 h -1.05833 -1.05833 V 16.404167 15.875 h -0.52917 -0.52917 v 0.529167 0.529166 h -0.52916 -0.52917 v 1.5875 1.5875 H 97.895824 94.191658 V 19.579167 19.05 h -0.529167 -0.529166 v 0.529167 0.529166 h -1.5875 -1.5875 z m 14.816665,-4.233334 v -0.529166 h -0.52917 -0.52916 V 15.345833 15.875 h 0.52916 0.52917 z m 2.11667,4.233334 V 19.05 h -0.52917 -0.52917 v -0.529167 -0.529166 h 0.52917 0.52917 V 17.4625 16.933333 h 2.11666 2.11667 V 15.875 14.816667 h -0.52917 -0.52916 V 15.345833 15.875 h -1.5875 -1.5875 v -0.529167 -0.529166 h 1.5875 1.5875 V 14.2875 13.758333 h 0.52916 0.52917 v 0.529167 0.529167 h 0.52917 0.52916 v 2.645833 2.645833 h -2.64583 -2.64583 z m 4.23333,-1.058334 v -0.529166 h -2.11667 -2.11666 V 18.520833 19.05 h 2.11666 2.11667 z m 7.40833,1.058334 V 19.05 h 2.11667 2.11667 v -0.529167 -0.529166 h 0.52916 0.52917 V 15.345833 12.7 h -0.52917 -0.52916 v 0.529167 0.529166 h -1.05834 -1.05833 V 15.875 17.991667 h -0.52917 -0.52916 V 15.345833 12.7 h 1.5875 1.5875 v -0.529167 -0.529166 h 0.52916 0.52917 V 12.170833 12.7 h 0.52917 0.52916 v 2.645833 2.645834 h 0.52917 0.52917 V 17.4625 16.933333 h 2.11666 2.11667 V 15.875 14.816667 h -0.52917 -0.52917 V 15.345833 15.875 h -1.58749 -1.5875 v -0.529167 -0.529166 h 1.5875 1.58749 V 14.2875 13.758333 h 0.52917 0.52917 v 0.529167 0.529167 h 0.52916 0.52917 V 16.933333 19.05 h 0.52917 0.52916 v -2.116667 -2.116666 h 0.52917 0.52917 V 16.933333 19.05 h 0.52916 0.52917 v -2.116667 -2.116666 h 0.52917 0.52916 V 14.2875 13.758333 h 0.52917 0.52917 v 0.529167 0.529167 h 0.52916 0.52917 v 1.5875 1.5875 h 0.52917 0.52916 v -1.5875 -1.5875 h 1.5875 1.5875 V 14.2875 13.758333 h 0.52917 0.52917 v 0.529167 0.529167 h 0.52916 0.52917 V 16.933333 19.05 h -0.52917 -0.52916 v 0.529167 0.529166 h -2.11667 -2.11667 V 19.579167 19.05 h -0.52916 -0.52917 v 0.529167 0.529166 h -5.82083 -5.82083 V 19.579167 19.05 h -1.05834 -1.05833 v 0.529167 0.529166 h -2.64583 -2.64584 z m 11.64167,-1.058334 v -0.529166 h -2.11667 -2.11666 V 18.520833 19.05 h 2.11666 2.11667 z m 6.35,-1.5875 v -2.116666 h -0.52917 -0.52917 V 16.933333 19.05 h 0.52917 0.52917 z m 5.29166,1.5875 v -0.529166 h 0.52917 0.52917 v -1.5875 -1.5875 h -0.52917 -0.52917 V 15.345833 15.875 h -1.05833 -1.05833 v 1.058333 1.058334 h -0.52917 -0.52917 V 18.520833 19.05 h 1.5875 1.5875 z m -71.966656,-4.7625 V 12.7 h 2.116666 2.116667 v -0.529167 -0.529166 h 0.529166 0.529167 V 12.7 13.758333 H 73.024993 70.908327 V 14.2875 14.816667 H 70.37916 69.849994 Z"
         id="path6" /><path
         style="fill:#3f3f3f"
         d="M 59.266661,15.875 V 0 h 0.529167 0.529166 V 15.875 31.75 H 59.795828 59.266661 Z M 27.516664,29.104167 V 28.575 H 26.987498 26.458331 V 28.045833 27.516667 H 25.399998 24.341664 V 26.9875 26.458333 h -0.529166 -0.529167 v 0.529167 0.529167 h -4.762499 -4.7625 V 26.9875 26.458333 H 13.229165 12.699999 V 21.166667 15.875 h 0.529166 0.529167 V 15.345833 14.816667 H 12.699999 11.641666 V 15.345833 15.875 h -1.5875 -1.5875001 V 15.345833 14.816667 H 7.9374993 7.4083327 V 10.583333 6.35 h 2.1166664 2.1166669 v 0.5291667 0.5291666 h 0.529166 0.529167 V 6.8791667 6.35 h 0.529166 0.529167 V 5.8208333 5.2916667 h 3.175 3.174999 V 5.8208333 6.35 h 0.529167 0.529167 V 5.8208333 5.2916667 h 5.820833 5.820832 V 4.7625 4.2333333 h 0.529167 0.529167 V 3.7041667 3.175 h 0.529166 0.529167 v 0.5291667 0.5291666 h 0.529166 0.529167 V 4.7625 5.2916667 h 0.529167 0.529166 V 4.2333333 3.175 h 0.529167 0.529167 V 2.6458333 2.1166667 h 2.116666 2.116666 V 2.6458333 3.175 h 0.529167 0.529167 v 1.0583333 1.0583334 h 0.529166 0.529167 V 4.7625 4.2333333 h 0.529167 0.529166 V 3.7041667 3.175 h 0.529167 0.529166 v 0.5291667 0.5291666 h 0.529167 0.529167 V 4.7625 5.2916667 h 0.529166 0.529167 V 5.8208333 6.35 h 0.529167 0.529166 v 2.1166667 2.1166663 h 0.529167 0.529166 V 13.229167 15.875 h -0.529166 -0.529167 v 0.529167 0.529166 h -0.529166 -0.529167 v 0.529167 0.529167 h 0.529167 0.529166 V 18.520833 19.05 h 0.529167 0.529166 v 0.529167 0.529166 h 0.529167 0.529167 v 3.175 3.175 h -0.529167 -0.529167 v 0.529167 0.529167 h -4.762499 -4.7625 V 26.9875 26.458333 H 40.74583 40.216663 v 0.529167 0.529167 h -3.175 -3.174999 V 28.045833 28.575 H 33.337497 32.80833 v 0.529167 0.529166 h -2.645833 -2.645833 z m 3.175,-3.175 V 25.4 h 0.529166 0.529167 V 22.225 19.05 h -2.116666 -2.116667 v 0.529167 0.529166 h -0.529166 -0.529167 v 1.5875 1.5875 h 0.529167 0.529166 v 0.529167 0.529167 h 1.5875 1.5875 V 24.870833 25.4 h -1.5875 -1.5875 v 0.529167 0.529166 h 1.5875 1.5875 z m -3.175,-4.233334 v -1.5875 h 1.5875 1.5875 v 1.5875 1.5875 h -1.5875 -1.5875 z M 19.049998,23.8125 V 23.283333 H 16.933332 14.816665 V 22.225 21.166667 h 1.5875 1.5875 V 20.6375 20.108333 h -1.5875 -1.5875 V 19.05 17.991667 h 2.116667 2.116666 V 17.4625 16.933333 h -2.645833 -2.645833 v 3.704167 3.704167 h 2.645833 2.645833 z m 2.116667,-1.058333 v -1.5875 h 0.529166 0.529167 V 20.6375 20.108333 h 1.058333 1.058333 V 22.225 24.341667 h 0.529167 0.529167 V 22.225 20.108333 H 24.870831 24.341664 V 19.579167 19.05 h -1.058333 -1.058333 v 0.529167 0.529166 H 21.695831 21.166665 V 19.579167 19.05 h -0.529167 -0.529167 v 2.645833 2.645834 h 0.529167 0.529167 z M 35.98333,23.8125 V 23.283333 H 35.454163 34.924997 V 21.166667 19.05 H 33.866664 32.80833 v 0.529167 0.529166 h 0.529167 0.529167 v 1.5875 1.5875 H 33.337497 32.80833 v 0.529167 0.529167 h 1.5875 1.5875 z m 2.116667,-1.058333 v -1.5875 h 0.529166 0.529167 V 20.6375 20.108333 h 1.058333 1.058333 V 22.225 24.341667 h 0.529167 0.529166 V 22.225 20.108333 H 41.804163 41.274996 V 19.579167 19.05 H 40.216663 39.15833 v 0.529167 0.529166 H 38.629163 38.099997 V 19.579167 19.05 H 37.57083 37.041663 v 2.645833 2.645834 h 0.529167 0.529167 z M 48.683329,23.8125 V 23.283333 H 46.566662 44.449996 V 22.754167 22.225 h 2.116666 2.116667 V 21.166667 20.108333 H 48.154162 47.624996 V 19.579167 19.05 h -1.5875 -1.5875 v 0.529167 0.529166 h -0.529167 -0.529166 v 1.5875 1.5875 h 0.529166 0.529167 v 0.529167 0.529167 h 2.116666 2.116667 z m -4.233333,-3.175 v -0.529167 h 1.5875 1.5875 v 0.529167 0.529167 h -1.5875 -1.5875 z m -9.524999,-3.175 V 16.933333 H 34.39583 33.866664 v 0.529167 0.529167 h 0.529166 0.529167 z m 12.699999,0 V 16.933333 H 47.095829 46.566662 V 15.875 14.816667 h 1.5875 1.5875 V 12.7 10.583333 h -1.5875 -1.5875 V 9.525 8.4666667 h 0.529167 0.529167 V 7.9375 7.4083333 h 0.529166 0.529167 V 6.8791667 6.35 H 48.154162 47.624996 V 5.8208333 5.2916667 H 47.095829 46.566662 V 4.7625 4.2333333 H 46.037496 45.508329 V 4.7625 5.2916667 H 44.979163 44.449996 V 5.8208333 6.35 H 43.391663 42.333329 V 4.7625 3.175 H 40.216663 38.099997 V 4.7625 6.35 H 37.041663 35.98333 V 5.8208333 5.2916667 H 35.454163 34.924997 V 4.7625 4.2333333 H 34.39583 33.866664 V 5.2916667 6.35 h 0.529166 0.529167 v 0.5291667 0.5291666 h 1.058333 1.058333 V 7.9375 8.4666667 h 0.529167 0.529167 V 7.9375 7.4083333 h 0.529166 0.529167 V 7.9375 8.4666667 h 0.529166 0.529167 V 7.9375 7.4083333 h 0.529167 0.529166 V 7.9375 8.4666667 h 0.529167 0.529166 V 8.9958333 9.525 h 0.529167 0.529167 v 0.529167 0.529166 h 0.529166 0.529167 v 0.529167 0.529167 h 0.529167 0.529166 V 12.170833 12.7 h -0.529166 -0.529167 v 0.529167 0.529166 h 0.529167 0.529166 V 14.2875 14.816667 H 44.979163 44.449996 V 15.345833 15.875 h -0.529167 -0.529166 v 0.529167 0.529166 h 0.529166 0.529167 v 0.529167 0.529167 h 1.5875 1.5875 z m -3.175,-1.058333 V 15.875 h 0.529167 0.529166 v 0.529167 0.529166 h -0.529166 -0.529167 z m 1.058333,-3.175 V 12.7 h 0.529167 0.529166 v 0.529167 0.529166 h -0.529166 -0.529167 z m 0,-2.116667 V 10.583333 H 44.979163 44.449996 V 10.054167 9.525 H 43.920829 43.391663 V 8.9958333 8.4666667 H 42.862496 42.333329 V 7.9375 7.4083333 H 41.804163 41.274996 V 6.8791667 6.35 h 0.529167 0.529166 v 0.5291667 0.5291666 h 0.529167 0.529167 V 7.9375 8.4666667 h 0.529166 0.529167 V 8.9958333 9.525 h 0.529167 0.529166 v 0.529167 0.529166 h 0.529167 0.529166 V 11.1125 11.641667 H 46.037496 45.508329 Z M 39.15833,6.8791667 V 6.35 h 0.529166 0.529167 V 6.8791667 7.4083333 H 39.687496 39.15833 Z M 17.991665,13.229167 V 12.7 h 0.529167 0.529166 V 12.170833 11.641667 H 18.520832 17.991665 V 12.170833 12.7 h -1.5875 -1.5875 V 10.054167 7.4083333 h 1.5875 1.5875 V 7.9375 8.4666667 h 0.529167 0.529166 V 7.9375 7.4083333 H 18.520832 17.991665 V 6.8791667 6.35 h -1.5875 -1.5875 V 6.8791667 7.4083333 H 14.287499 13.758332 V 10.054167 12.7 h 0.529167 0.529166 v 0.529167 0.529166 h 1.5875 1.5875 z M 21.166665,12.7 v -1.058333 h 1.5875 1.587499 V 12.7 13.758333 h 0.529167 0.529167 V 11.641667 9.525 H 24.870831 24.341664 V 8.4666667 7.4083333 H 23.812498 23.283331 V 6.8791667 6.35 H 22.754165 22.224998 V 6.8791667 7.4083333 H 21.695831 21.166665 V 8.4666667 9.525 h -0.529167 -0.529167 v 2.116667 2.116666 h 0.529167 0.529167 z m 0,-2.645833 V 9.525 h 0.529166 0.529167 V 8.4666667 7.4083333 h 0.529167 0.529166 V 8.4666667 9.525 h 0.529167 0.529166 v 0.529167 0.529166 h -1.587499 -1.5875 z m 6.349999,2.116666 v -1.5875 h 1.5875 1.5875 v 1.5875 1.5875 h 0.529166 0.529167 v -1.5875 -1.5875 H 31.22083 30.691664 V 10.054167 9.525 h 0.529166 0.529167 V 8.4666667 7.4083333 H 31.22083 30.691664 V 6.8791667 6.35 h -2.116667 -2.116666 v 3.704167 3.704166 h 0.529167 0.529166 z m 0,-3.7041663 V 7.4083333 h 1.5875 1.5875 V 8.4666667 9.525 h -1.5875 -1.5875 z M 9.5249991,12.170833 v -0.529166 h 0.5291669 0.529166 V 11.1125 10.583333 h 0.529167 0.529167 V 10.054167 9.525 H 11.112499 10.583332 V 8.9958333 8.4666667 H 10.054166 9.5249991 V 7.9375 7.4083333 H 8.9958325 8.4666659 V 10.054167 12.7 H 8.9958325 9.5249991 Z M 68.79166,19.579167 V 19.05 h 0.529167 0.529167 V 17.4625 15.875 h 1.587499 1.5875 v -0.529167 -0.529166 h 0.529167 0.529167 V 15.875 16.933333 h -1.5875 -1.5875 v 1.5875 1.5875 H 69.849994 68.79166 Z m 7.408333,0 V 19.05 H 75.670826 75.14166 v -0.529167 -0.529166 h 0.529166 0.529167 V 17.4625 16.933333 h 2.116667 2.116666 V 15.875 14.816667 H 79.904159 79.374993 V 15.345833 15.875 h -1.5875 -1.5875 v -0.529167 -0.529166 h 1.5875 1.5875 V 14.2875 13.758333 h 0.529166 0.529167 v 0.529167 0.529167 h 0.529167 0.529166 v 1.5875 1.5875 h 0.529167 0.529166 v -1.5875 -1.5875 h 1.5875 1.5875 V 15.345833 15.875 h -1.058333 -1.058333 v 1.058333 1.058334 H 83.079159 82.549992 V 18.520833 19.05 h 1.058334 1.058333 v -0.529167 -0.529166 h 0.529167 0.529166 V 18.520833 19.05 h 0.529167 0.529166 v -2.645833 -2.645834 h 0.529167 0.529167 v 0.529167 0.529167 h 0.529166 0.529167 V 15.345833 15.875 h -0.529167 -0.529166 v 2.116667 2.116666 H 85.195826 82.549992 V 19.579167 19.05 h -0.529166 -0.529167 v 0.529167 0.529166 h -2.645833 -2.645833 z m 4.233333,-1.058334 V 17.991667 H 78.31666 76.199993 V 18.520833 19.05 h 2.116667 2.116666 z m 9.524999,1.058334 V 19.05 h -0.529166 -0.529167 v -0.529167 -0.529166 h 0.529167 0.529166 v -1.5875 -1.5875 h 0.529167 0.529166 V 14.2875 13.758333 H 90.487492 89.958325 V 12.7 11.641667 h 0.529167 0.529166 V 12.7 13.758333 h 0.529167 0.529167 V 14.816667 15.875 h -0.529167 -0.529167 v 1.058333 1.058334 H 90.487492 89.958325 V 18.520833 19.05 h 1.058333 1.058334 v -0.529167 -0.529166 h 1.058333 1.058333 V 15.875 13.758333 h 0.529167 0.529166 V 15.875 17.991667 H 94.720825 94.191658 V 18.520833 19.05 h 1.058333 1.058334 v -0.529167 -0.529166 h 0.529166 0.529167 V 18.520833 19.05 h 0.529166 0.529167 v -2.645833 -2.645834 h 0.529167 0.529166 V 16.404167 19.05 h 0.529166 0.52917 V 17.4625 15.875 h 0.52916 0.52917 v -0.529167 -0.529166 h -0.52917 -0.52916 V 14.2875 13.758333 h 0.52916 0.52917 v 0.529167 0.529167 h 1.05833 1.05834 V 14.2875 13.758333 h 0.52916 0.52917 v 0.529167 0.529167 h 0.52917 0.52916 V 15.875 16.933333 h -1.05833 -1.05833 V 16.404167 15.875 h -0.52917 -0.52917 v 0.529167 0.529166 h -0.52916 -0.52917 v 1.5875 1.5875 H 97.895824 94.191658 V 19.579167 19.05 h -0.529167 -0.529166 v 0.529167 0.529166 h -1.5875 -1.5875 z m 14.816665,-4.233334 v -0.529166 h -0.52917 -0.52916 V 15.345833 15.875 h 0.52916 0.52917 z m 2.11667,4.233334 V 19.05 h -0.52917 -0.52917 v -0.529167 -0.529166 h 0.52917 0.52917 V 17.4625 16.933333 h 2.11666 2.11667 V 15.875 14.816667 h -0.52917 -0.52916 V 15.345833 15.875 h -1.5875 -1.5875 v -0.529167 -0.529166 h 1.5875 1.5875 V 14.2875 13.758333 h 0.52916 0.52917 v 0.529167 0.529167 h 0.52917 0.52916 v 2.645833 2.645833 h -2.64583 -2.64583 z m 4.23333,-1.058334 v -0.529166 h -2.11667 -2.11666 V 18.520833 19.05 h 2.11666 2.11667 z m 7.40833,1.058334 V 19.05 h 2.11667 2.11667 v -0.529167 -0.529166 h 0.52916 0.52917 V 15.345833 12.7 h -0.52917 -0.52916 v 0.529167 0.529166 h -1.05834 -1.05833 V 15.875 17.991667 h -0.52917 -0.52916 V 15.345833 12.7 h 1.5875 1.5875 v -0.529167 -0.529166 h 0.52916 0.52917 V 12.170833 12.7 h 0.52917 0.52916 v 2.645833 2.645834 h 0.52917 0.52917 V 17.4625 16.933333 h 2.11666 2.11667 V 15.875 14.816667 h -0.52917 -0.52917 V 15.345833 15.875 h -1.58749 -1.5875 v -0.529167 -0.529166 h 1.5875 1.58749 V 14.2875 13.758333 h 0.52917 0.52917 v 0.529167 0.529167 h 0.52916 0.52917 V 16.933333 19.05 h 0.52917 0.52916 v -2.116667 -2.116666 h 0.52917 0.52917 V 16.933333 19.05 h 0.52916 0.52917 v -2.116667 -2.116666 h 0.52917 0.52916 V 14.2875 13.758333 h 0.52917 0.52917 v 0.529167 0.529167 h 0.52916 0.52917 v 1.5875 1.5875 h 0.52917 0.52916 v -1.5875 -1.5875 h 1.5875 1.5875 V 14.2875 13.758333 h 0.52917 0.52917 v 0.529167 0.529167 h 0.52916 0.52917 V 16.933333 19.05 h -0.52917 -0.52916 v 0.529167 0.529166 h -2.11667 -2.11667 V 19.579167 19.05 h -0.52916 -0.52917 v 0.529167 0.529166 h -5.82083 -5.82083 V 19.579167 19.05 h -1.05834 -1.05833 v 0.529167 0.529166 h -2.64583 -2.64584 z m 11.64167,-1.058334 v -0.529166 h -2.11667 -2.11666 V 18.520833 19.05 h 2.11666 2.11667 z m 6.35,-1.5875 v -2.116666 h -0.52917 -0.52917 V 16.933333 19.05 h 0.52917 0.52917 z m 5.29166,1.5875 v -0.529166 h 0.52917 0.52917 v -1.5875 -1.5875 h -0.52917 -0.52917 V 15.345833 15.875 h -1.05833 -1.05833 v 1.058333 1.058334 h -0.52917 -0.52917 V 18.520833 19.05 h 1.5875 1.5875 z m -71.966656,-4.7625 V 12.7 h 2.116666 2.116667 v -0.529167 -0.529166 h 0.529166 0.529167 V 12.7 13.758333 H 73.024993 70.908327 V 14.2875 14.816667 H 70.37916 69.849994 Z"
         id="path5" /><path
         style="fill:#3f3f1f"
         d="M 59.266661,15.875 V 0 h 0.529167 0.529166 V 15.875 31.75 H 59.795828 59.266661 Z M 27.516664,29.104167 V 28.575 H 26.987498 26.458331 V 28.045833 27.516667 H 25.399998 24.341664 V 26.9875 26.458333 h -0.529166 -0.529167 v 0.529167 0.529167 h -4.762499 -4.7625 V 26.9875 26.458333 H 13.229165 12.699999 V 21.166667 15.875 h 0.529166 0.529167 V 15.345833 14.816667 H 12.699999 11.641666 V 15.345833 15.875 h -1.5875 -1.5875001 V 15.345833 14.816667 H 7.9374993 7.4083327 V 10.583333 6.35 h 2.1166664 2.1166669 v 0.5291667 0.5291666 h 0.529166 0.529167 V 6.8791667 6.35 h 0.529166 0.529167 V 5.8208333 5.2916667 h 3.175 3.174999 V 5.8208333 6.35 h 0.529167 0.529167 V 5.8208333 5.2916667 h 5.820833 5.820832 V 4.7625 4.2333333 h 0.529167 0.529167 V 3.7041667 3.175 h 0.529166 0.529167 v 0.5291667 0.5291666 h 0.529166 0.529167 V 4.7625 5.2916667 h 0.529167 0.529166 V 4.2333333 3.175 h 0.529167 0.529167 V 2.6458333 2.1166667 h 2.116666 2.116666 V 2.6458333 3.175 h 0.529167 0.529167 v 1.0583333 1.0583334 h 0.529166 0.529167 V 4.7625 4.2333333 h 0.529167 0.529166 V 3.7041667 3.175 h 0.529167 0.529166 v 0.5291667 0.5291666 h 0.529167 0.529167 V 4.7625 5.2916667 h 0.529166 0.529167 V 5.8208333 6.35 h 0.529167 0.529166 v 2.1166667 2.1166663 h 0.529167 0.529166 V 13.229167 15.875 h -0.529166 -0.529167 v 0.529167 0.529166 h -0.529166 -0.529167 v 0.529167 0.529167 h 0.529167 0.529166 V 18.520833 19.05 h 0.529167 0.529166 v 0.529167 0.529166 h 0.529167 0.529167 v 3.175 3.175 h -0.529167 -0.529167 v 0.529167 0.529167 h -4.762499 -4.7625 V 26.9875 26.458333 H 40.74583 40.216663 v 0.529167 0.529167 h -3.175 -3.174999 V 28.045833 28.575 H 33.337497 32.80833 v 0.529167 0.529166 h -2.645833 -2.645833 z m 3.175,-3.175 V 25.4 h 0.529166 0.529167 V 22.225 19.05 h -2.116666 -2.116667 v 0.529167 0.529166 h -0.529166 -0.529167 v 1.5875 1.5875 h 0.529167 0.529166 v 0.529167 0.529167 h 1.5875 1.5875 V 24.870833 25.4 h -1.5875 -1.5875 v 0.529167 0.529166 h 1.5875 1.5875 z m -3.175,-4.233334 v -1.5875 h 1.5875 1.5875 v 1.5875 1.5875 h -1.5875 -1.5875 z M 19.049998,23.8125 V 23.283333 H 16.933332 14.816665 V 22.225 21.166667 h 1.5875 1.5875 V 20.6375 20.108333 h -1.5875 -1.5875 V 19.05 17.991667 h 2.116667 2.116666 V 17.4625 16.933333 h -2.645833 -2.645833 v 3.704167 3.704167 h 2.645833 2.645833 z m 2.116667,-1.058333 v -1.5875 h 0.529166 0.529167 V 20.6375 20.108333 h 1.058333 1.058333 V 22.225 24.341667 h 0.529167 0.529167 V 22.225 20.108333 H 24.870831 24.341664 V 19.579167 19.05 h -1.058333 -1.058333 v 0.529167 0.529166 H 21.695831 21.166665 V 19.579167 19.05 h -0.529167 -0.529167 v 2.645833 2.645834 h 0.529167 0.529167 z M 35.98333,23.8125 V 23.283333 H 35.454163 34.924997 V 21.166667 19.05 H 33.866664 32.80833 v 0.529167 0.529166 h 0.529167 0.529167 v 1.5875 1.5875 H 33.337497 32.80833 v 0.529167 0.529167 h 1.5875 1.5875 z m 2.116667,-1.058333 v -1.5875 h 0.529166 0.529167 V 20.6375 20.108333 h 1.058333 1.058333 V 22.225 24.341667 h 0.529167 0.529166 V 22.225 20.108333 H 41.804163 41.274996 V 19.579167 19.05 H 40.216663 39.15833 v 0.529167 0.529166 H 38.629163 38.099997 V 19.579167 19.05 H 37.57083 37.041663 v 2.645833 2.645834 h 0.529167 0.529167 z M 48.683329,23.8125 V 23.283333 H 46.566662 44.449996 V 22.754167 22.225 h 2.116666 2.116667 V 21.166667 20.108333 H 48.154162 47.624996 V 19.579167 19.05 h -1.5875 -1.5875 v 0.529167 0.529166 h -0.529167 -0.529166 v 1.5875 1.5875 h 0.529166 0.529167 v 0.529167 0.529167 h 2.116666 2.116667 z m -4.233333,-3.175 v -0.529167 h 1.5875 1.5875 v 0.529167 0.529167 h -1.5875 -1.5875 z m -9.524999,-3.175 V 16.933333 H 34.39583 33.866664 v 0.529167 0.529167 h 0.529166 0.529167 z m 4.233333,0 v -0.529167 h 0.529166 0.529167 v 0.529167 0.529167 h 0.529167 0.529166 V 17.4625 16.933333 h 0.529167 0.529166 v 0.529167 0.529167 h 2.645834 2.645833 V 17.4625 16.933333 H 47.095829 46.566662 V 15.875 14.816667 h 1.5875 1.5875 V 12.7 10.583333 h -1.5875 -1.5875 V 9.525 8.4666667 h 0.529167 0.529167 V 7.9375 7.4083333 h 0.529166 0.529167 V 6.8791667 6.35 H 48.154162 47.624996 V 5.8208333 5.2916667 H 47.095829 46.566662 V 4.7625 4.2333333 H 46.037496 45.508329 V 4.7625 5.2916667 H 44.979163 44.449996 V 5.8208333 6.35 H 43.391663 42.333329 V 4.7625 3.175 H 40.216663 38.099997 V 4.7625 6.35 H 37.041663 35.98333 V 5.8208333 5.2916667 H 35.454163 34.924997 V 4.7625 4.2333333 H 34.39583 33.866664 V 4.7625 5.2916667 H 33.337497 32.80833 V 5.8208333 6.35 h 0.529167 0.529167 v 0.5291667 0.5291666 h 0.529166 0.529167 V 7.9375 8.4666667 h 0.529166 0.529167 V 8.9958333 9.525 h -0.529167 -0.529166 v 0.529167 0.529166 h 0.529166 0.529167 v 0.529167 0.529167 h 0.529167 0.529166 V 12.170833 12.7 H 36.512497 35.98333 v 0.529167 0.529166 h 0.529167 0.529166 V 14.2875 14.816667 H 36.512497 35.98333 V 15.345833 15.875 h 0.529167 0.529166 v 0.529167 0.529166 h 0.529167 0.529167 v 0.529167 0.529167 h 0.529166 0.529167 z M 38.099997,16.404167 V 15.875 H 37.57083 37.041663 v -0.529167 -0.529166 h 0.529167 0.529167 V 15.345833 15.875 h 0.529166 0.529167 v 0.529167 0.529166 h -0.529167 -0.529166 z m 2.116666,0 V 15.875 h 0.529167 0.529166 v 0.529167 0.529166 H 40.74583 40.216663 Z m -3.175,-3.175 V 12.7 h 0.529167 0.529167 v 0.529167 0.529166 H 37.57083 37.041663 Z m 0,-2.116667 V 10.583333 H 36.512497 35.98333 V 10.054167 9.525 h 0.529167 0.529166 v 0.529167 0.529166 h 0.529167 0.529167 V 11.1125 11.641667 H 37.57083 37.041663 Z M 17.991665,13.229167 V 12.7 h 0.529167 0.529166 V 12.170833 11.641667 H 18.520832 17.991665 V 12.170833 12.7 h -1.5875 -1.5875 V 10.054167 7.4083333 h 1.5875 1.5875 V 7.9375 8.4666667 h 0.529167 0.529166 V 7.9375 7.4083333 H 18.520832 17.991665 V 6.8791667 6.35 h -1.5875 -1.5875 V 6.8791667 7.4083333 H 14.287499 13.758332 V 10.054167 12.7 h 0.529167 0.529166 v 0.529167 0.529166 h 1.5875 1.5875 z M 21.166665,12.7 v -1.058333 h 1.5875 1.587499 V 12.7 13.758333 h 0.529167 0.529167 V 11.641667 9.525 H 24.870831 24.341664 V 8.4666667 7.4083333 H 23.812498 23.283331 V 6.8791667 6.35 H 22.754165 22.224998 V 6.8791667 7.4083333 H 21.695831 21.166665 V 8.4666667 9.525 h -0.529167 -0.529167 v 2.116667 2.116666 h 0.529167 0.529167 z m 0,-2.645833 V 9.525 h 0.529166 0.529167 V 8.4666667 7.4083333 h 0.529167 0.529166 V 8.4666667 9.525 h 0.529167 0.529166 v 0.529167 0.529166 h -1.587499 -1.5875 z m 6.349999,2.116666 v -1.5875 h 1.5875 1.5875 v 1.5875 1.5875 h 0.529166 0.529167 v -1.5875 -1.5875 H 31.22083 30.691664 V 10.054167 9.525 h 0.529166 0.529167 V 8.4666667 7.4083333 H 31.22083 30.691664 V 6.8791667 6.35 h -2.116667 -2.116666 v 3.704167 3.704166 h 0.529167 0.529166 z m 0,-3.7041663 V 7.4083333 h 1.5875 1.5875 V 8.4666667 9.525 h -1.5875 -1.5875 z M 9.5249991,12.170833 v -0.529166 h 0.5291669 0.529166 V 11.1125 10.583333 h 0.529167 0.529167 V 10.054167 9.525 H 11.112499 10.583332 V 8.9958333 8.4666667 H 10.054166 9.5249991 V 7.9375 7.4083333 H 8.9958325 8.4666659 V 10.054167 12.7 H 8.9958325 9.5249991 Z M 68.79166,19.579167 V 19.05 h 0.529167 0.529167 V 17.4625 15.875 h 1.587499 1.5875 v -0.529167 -0.529166 h 0.529167 0.529167 V 15.875 16.933333 h -1.5875 -1.5875 v 1.5875 1.5875 H 69.849994 68.79166 Z m 7.408333,0 V 19.05 H 75.670826 75.14166 v -0.529167 -0.529166 h 0.529166 0.529167 V 17.4625 16.933333 h 2.116667 2.116666 V 15.875 14.816667 H 79.904159 79.374993 V 15.345833 15.875 h -1.5875 -1.5875 v -0.529167 -0.529166 h 1.5875 1.5875 V 14.2875 13.758333 h 0.529166 0.529167 v 0.529167 0.529167 h 0.529167 0.529166 v 1.5875 1.5875 h 0.529167 0.529166 v -1.5875 -1.5875 h 1.5875 1.5875 V 15.345833 15.875 h -1.058333 -1.058333 v 1.058333 1.058334 H 83.079159 82.549992 V 18.520833 19.05 h 1.058334 1.058333 v -0.529167 -0.529166 h 0.529167 0.529166 V 18.520833 19.05 h 0.529167 0.529166 v -2.645833 -2.645834 h 0.529167 0.529167 v 0.529167 0.529167 h 0.529166 0.529167 V 15.345833 15.875 h -0.529167 -0.529166 v 2.116667 2.116666 H 85.195826 82.549992 V 19.579167 19.05 h -0.529166 -0.529167 v 0.529167 0.529166 h -2.645833 -2.645833 z m 4.233333,-1.058334 V 17.991667 H 78.31666 76.199993 V 18.520833 19.05 h 2.116667 2.116666 z m 9.524999,1.058334 V 19.05 h -0.529166 -0.529167 v -0.529167 -0.529166 h 0.529167 0.529166 v -1.5875 -1.5875 h 0.529167 0.529166 V 14.2875 13.758333 H 90.487492 89.958325 V 12.7 11.641667 h 0.529167 0.529166 V 12.7 13.758333 h 0.529167 0.529167 V 14.816667 15.875 h -0.529167 -0.529167 v 1.058333 1.058334 H 90.487492 89.958325 V 18.520833 19.05 h 1.058333 1.058334 v -0.529167 -0.529166 h 1.058333 1.058333 V 15.875 13.758333 h 0.529167 0.529166 V 15.875 17.991667 H 94.720825 94.191658 V 18.520833 19.05 h 1.058333 1.058334 v -0.529167 -0.529166 h 0.529166 0.529167 V 18.520833 19.05 h 0.529166 0.529167 v -2.645833 -2.645834 h 0.529167 0.529166 V 16.404167 19.05 h 0.529166 0.52917 V 17.4625 15.875 h 0.52916 0.52917 v -0.529167 -0.529166 h -0.52917 -0.52916 V 14.2875 13.758333 h 0.52916 0.52917 v 0.529167 0.529167 h 1.05833 1.05834 V 14.2875 13.758333 h 0.52916 0.52917 v 0.529167 0.529167 h 0.52917 0.52916 V 15.875 16.933333 h -1.05833 -1.05833 V 16.404167 15.875 h -0.52917 -0.52917 v 0.529167 0.529166 h -0.52916 -0.52917 v 1.5875 1.5875 H 97.895824 94.191658 V 19.579167 19.05 h -0.529167 -0.529166 v 0.529167 0.529166 h -1.5875 -1.5875 z m 14.816665,-4.233334 v -0.529166 h -0.52917 -0.52916 V 15.345833 15.875 h 0.52916 0.52917 z m 2.11667,4.233334 V 19.05 h -0.52917 -0.52917 v -0.529167 -0.529166 h 0.52917 0.52917 V 17.4625 16.933333 h 2.11666 2.11667 V 15.875 14.816667 h -0.52917 -0.52916 V 15.345833 15.875 h -1.5875 -1.5875 v -0.529167 -0.529166 h 1.5875 1.5875 V 14.2875 13.758333 h 0.52916 0.52917 v 0.529167 0.529167 h 0.52917 0.52916 v 2.645833 2.645833 h -2.64583 -2.64583 z m 4.23333,-1.058334 v -0.529166 h -2.11667 -2.11666 V 18.520833 19.05 h 2.11666 2.11667 z m 7.40833,1.058334 V 19.05 h 2.11667 2.11667 v -0.529167 -0.529166 h 0.52916 0.52917 V 15.345833 12.7 h -0.52917 -0.52916 v 0.529167 0.529166 h -1.05834 -1.05833 V 15.875 17.991667 h -0.52917 -0.52916 V 15.345833 12.7 h 1.5875 1.5875 v -0.529167 -0.529166 h 0.52916 0.52917 V 12.170833 12.7 h 0.52917 0.52916 v 2.645833 2.645834 h 0.52917 0.52917 V 17.4625 16.933333 h 2.11666 2.11667 V 15.875 14.816667 h -0.52917 -0.52917 V 15.345833 15.875 h -1.58749 -1.5875 v -0.529167 -0.529166 h 1.5875 1.58749 V 14.2875 13.758333 h 0.52917 0.52917 v 0.529167 0.529167 h 0.52916 0.52917 V 16.933333 19.05 h 0.52917 0.52916 v -2.116667 -2.116666 h 0.52917 0.52917 V 16.933333 19.05 h 0.52916 0.52917 v -2.116667 -2.116666 h 0.52917 0.52916 V 14.2875 13.758333 h 0.52917 0.52917 v 0.529167 0.529167 h 0.52916 0.52917 v 1.5875 1.5875 h 0.52917 0.52916 v -1.5875 -1.5875 h 1.5875 1.5875 V 14.2875 13.758333 h 0.52917 0.52917 v 0.529167 0.529167 h 0.52916 0.52917 V 16.933333 19.05 h -0.52917 -0.52916 v 0.529167 0.529166 h -2.11667 -2.11667 V 19.579167 19.05 h -0.52916 -0.52917 v 0.529167 0.529166 h -5.82083 -5.82083 V 19.579167 19.05 h -1.05834 -1.05833 v 0.529167 0.529166 h -2.64583 -2.64584 z m 11.64167,-1.058334 v -0.529166 h -2.11667 -2.11666 V 18.520833 19.05 h 2.11666 2.11667 z m 6.35,-1.5875 v -2.116666 h -0.52917 -0.52917 V 16.933333 19.05 h 0.52917 0.52917 z m 5.29166,1.5875 v -0.529166 h 0.52917 0.52917 v -1.5875 -1.5875 h -0.52917 -0.52917 V 15.345833 15.875 h -1.05833 -1.05833 v 1.058333 1.058334 h -0.52917 -0.52917 V 18.520833 19.05 h 1.5875 1.5875 z m -71.966656,-4.7625 V 12.7 h 2.116666 2.116667 v -0.529167 -0.529166 h 0.529166 0.529167 V 12.7 13.758333 H 73.024993 70.908327 V 14.2875 14.816667 H 70.37916 69.849994 Z"
         id="path4" /><path
         style="fill:#1f1f3f"
         d="M 59.266661,15.875 V 0 h 0.529167 0.529166 V 15.875 31.75 H 59.795828 59.266661 Z M 27.516664,29.104167 V 28.575 H 26.987498 26.458331 V 28.045833 27.516667 H 25.399998 24.341664 V 26.9875 26.458333 h -0.529166 -0.529167 v 0.529167 0.529167 h -4.762499 -4.7625 V 26.9875 26.458333 H 13.229165 12.699999 V 21.166667 15.875 h 0.529166 0.529167 V 15.345833 14.816667 H 12.699999 11.641666 V 15.345833 15.875 h -1.5875 -1.5875001 V 15.345833 14.816667 H 7.9374993 7.4083327 V 10.583333 6.35 h 2.1166664 2.1166669 v 0.5291667 0.5291666 h 0.529166 0.529167 V 6.8791667 6.35 h 0.529166 0.529167 V 5.8208333 5.2916667 h 3.175 3.174999 V 5.8208333 6.35 h 0.529167 0.529167 V 5.8208333 5.2916667 h 5.820833 5.820832 V 4.7625 4.2333333 h 0.529167 0.529167 V 3.7041667 3.175 h 0.529166 0.529167 v 0.5291667 0.5291666 h 0.529166 0.529167 V 4.7625 5.2916667 h 0.529167 0.529166 V 4.2333333 3.175 h 0.529167 0.529167 V 2.6458333 2.1166667 h 2.116666 2.116666 V 2.6458333 3.175 h 0.529167 0.529167 v 1.0583333 1.0583334 h 0.529166 0.529167 V 4.7625 4.2333333 h 0.529167 0.529166 V 3.7041667 3.175 h 0.529167 0.529166 v 0.5291667 0.5291666 h 0.529167 0.529167 V 4.7625 5.2916667 h 0.529166 0.529167 V 5.8208333 6.35 h 0.529167 0.529166 v 2.1166667 2.1166663 h 0.529167 0.529166 V 13.229167 15.875 h -0.529166 -0.529167 v 0.529167 0.529166 h -0.529166 -0.529167 v 0.529167 0.529167 h 0.529167 0.529166 V 18.520833 19.05 h 0.529167 0.529166 v 0.529167 0.529166 h 0.529167 0.529167 v 3.175 3.175 h -0.529167 -0.529167 v 0.529167 0.529167 h -4.762499 -4.7625 V 26.9875 26.458333 H 40.74583 40.216663 v 0.529167 0.529167 h -3.175 -3.174999 V 28.045833 28.575 H 33.337497 32.80833 v 0.529167 0.529166 h -2.645833 -2.645833 z m 3.175,-3.175 V 25.4 h 0.529166 0.529167 V 22.225 19.05 h -2.116666 -2.116667 v 0.529167 0.529166 h -0.529166 -0.529167 v 1.5875 1.5875 h 0.529167 0.529166 v 0.529167 0.529167 h 1.5875 1.5875 V 24.870833 25.4 h -1.5875 -1.5875 v 0.529167 0.529166 h 1.5875 1.5875 z m -3.175,-4.233334 v -1.5875 h 1.5875 1.5875 v 1.5875 1.5875 h -1.5875 -1.5875 z M 19.049998,23.8125 V 23.283333 H 16.933332 14.816665 V 22.225 21.166667 h 1.5875 1.5875 V 20.6375 20.108333 h -1.5875 -1.5875 V 19.05 17.991667 h 2.116667 2.116666 V 17.4625 16.933333 h -2.645833 -2.645833 v 3.704167 3.704167 h 2.645833 2.645833 z m 2.116667,-1.058333 v -1.5875 h 0.529166 0.529167 V 20.6375 20.108333 h 1.058333 1.058333 V 22.225 24.341667 h 0.529167 0.529167 V 22.225 20.108333 H 24.870831 24.341664 V 19.579167 19.05 h -1.058333 -1.058333 v 0.529167 0.529166 H 21.695831 21.166665 V 19.579167 19.05 h -0.529167 -0.529167 v 2.645833 2.645834 h 0.529167 0.529167 z M 35.98333,23.8125 V 23.283333 H 35.454163 34.924997 V 21.166667 19.05 H 33.866664 32.80833 v 0.529167 0.529166 h 0.529167 0.529167 v 1.5875 1.5875 H 33.337497 32.80833 v 0.529167 0.529167 h 1.5875 1.5875 z m 2.116667,-1.058333 v -1.5875 h 0.529166 0.529167 V 20.6375 20.108333 h 1.058333 1.058333 V 22.225 24.341667 h 0.529167 0.529166 V 22.225 20.108333 H 41.804163 41.274996 V 19.579167 19.05 H 40.216663 39.15833 v 0.529167 0.529166 H 38.629163 38.099997 V 19.579167 19.05 H 37.57083 37.041663 v 2.645833 2.645834 h 0.529167 0.529167 z M 48.683329,23.8125 V 23.283333 H 46.566662 44.449996 V 22.754167 22.225 h 2.116666 2.116667 V 21.166667 20.108333 H 48.154162 47.624996 V 19.579167 19.05 h -1.5875 -1.5875 v 0.529167 0.529166 h -0.529167 -0.529166 v 1.5875 1.5875 h 0.529166 0.529167 v 0.529167 0.529167 h 2.116666 2.116667 z m -4.233333,-3.175 v -0.529167 h 1.5875 1.5875 v 0.529167 0.529167 h -1.5875 -1.5875 z m -9.524999,-3.175 V 16.933333 H 34.39583 33.866664 v 0.529167 0.529167 h 0.529166 0.529167 z m 4.233333,0 v -0.529167 h 0.529166 0.529167 v 0.529167 0.529167 h 0.529167 0.529166 V 17.4625 16.933333 h 0.529167 0.529166 v 0.529167 0.529167 h 2.645834 2.645833 V 17.4625 16.933333 H 47.095829 46.566662 V 15.875 14.816667 h 1.5875 1.5875 V 12.7 10.583333 h -1.5875 -1.5875 V 9.525 8.4666667 h 0.529167 0.529167 V 7.9375 7.4083333 h 0.529166 0.529167 V 6.8791667 6.35 H 48.154162 47.624996 V 5.8208333 5.2916667 H 47.095829 46.566662 V 4.7625 4.2333333 H 46.037496 45.508329 V 4.7625 5.2916667 H 44.979163 44.449996 V 5.8208333 6.35 H 43.391663 42.333329 V 4.7625 3.175 H 40.216663 38.099997 V 4.7625 6.35 H 37.041663 35.98333 V 5.8208333 5.2916667 H 35.454163 34.924997 V 4.7625 4.2333333 H 34.39583 33.866664 V 4.7625 5.2916667 H 33.337497 32.80833 V 5.8208333 6.35 h 0.529167 0.529167 v 0.5291667 0.5291666 h 0.529166 0.529167 V 7.9375 8.4666667 h 0.529166 0.529167 V 8.9958333 9.525 h -0.529167 -0.529166 v 0.529167 0.529166 h 0.529166 0.529167 v 0.529167 0.529167 h 0.529167 0.529166 V 12.170833 12.7 H 36.512497 35.98333 v 0.529167 0.529166 h 0.529167 0.529166 V 14.2875 14.816667 H 36.512497 35.98333 V 15.345833 15.875 h 0.529167 0.529166 v 0.529167 0.529166 h 0.529167 0.529167 v 0.529167 0.529167 h 0.529166 0.529167 z M 38.099997,16.404167 V 15.875 H 37.57083 37.041663 v -0.529167 -0.529166 h 0.529167 0.529167 V 15.345833 15.875 h 0.529166 0.529167 v 0.529167 0.529166 h -0.529167 -0.529166 z m 2.116666,0 V 15.875 h 0.529167 0.529166 v 0.529167 0.529166 H 40.74583 40.216663 Z m -3.175,-3.175 V 12.7 h 0.529167 0.529167 v 0.529167 0.529166 H 37.57083 37.041663 Z m 0,-2.116667 V 10.583333 H 36.512497 35.98333 V 10.054167 9.525 h 0.529167 0.529166 v 0.529167 0.529166 h 0.529167 0.529167 V 11.1125 11.641667 H 37.57083 37.041663 Z m -17.991665,4.233333 v -0.529166 h 1.058333 1.058334 V 15.345833 15.875 h 0.529166 0.529167 v -0.529167 -0.529166 h 0.529167 0.529166 V 14.2875 13.758333 h 0.529167 0.529166 v 0.529167 0.529167 h 0.529167 0.529167 V 15.345833 15.875 h 0.529166 0.529167 v -0.529167 -0.529166 h 0.529167 0.529166 V 15.345833 15.875 h 0.529167 0.529166 v -0.529167 -0.529166 h 0.529167 0.529167 V 13.758333 12.7 h 0.529166 0.529167 v 1.058333 1.058334 h 0.529166 0.529167 V 15.345833 15.875 h 0.529167 0.529166 v -0.529167 -0.529166 h 0.529167 0.529167 v -1.5875 -1.5875 H 33.337497 32.80833 V 11.1125 10.583333 h 0.529167 0.529167 V 9.525 8.4666667 H 33.337497 32.80833 V 7.9375 7.4083333 H 32.279164 31.749997 V 6.8791667 6.35 H 29.104164 26.458331 V 7.4083333 8.4666667 H 25.929164 25.399998 V 7.9375 7.4083333 H 24.870831 24.341664 V 6.8791667 6.35 H 23.283331 22.224998 V 6.8791667 7.4083333 H 21.695831 21.166665 V 7.9375 8.4666667 H 20.637498 20.108331 V 7.9375 7.4083333 H 19.579165 19.049998 V 6.8791667 6.35 h -2.116666 -2.116667 v 0.5291667 0.5291666 h -0.529166 -0.529167 v 1.5875 1.5874997 H 13.229165 12.699999 V 10.054167 9.525 H 12.170832 11.641666 V 8.9958333 8.4666667 H 11.112499 10.583332 V 7.9375 7.4083333 H 9.5249991 8.4666659 v 3.1749997 3.175 h 0.5291666 0.5291666 v 0.529167 0.529167 h 0.5291669 0.529166 V 14.2875 13.758333 h 0.529167 0.529167 V 13.229167 12.7 h 0.529166 0.529167 v -0.529167 -0.529166 h 0.529166 0.529167 V 12.7 13.758333 h 0.529167 0.529166 v 0.529167 0.529167 h 0.529167 0.529167 V 15.345833 15.875 h 1.587499 1.5875 z M 16.933332,11.1125 V 9.525 h 1.058333 1.058333 v 0.529167 0.529166 h 0.529167 0.529166 V 11.1125 11.641667 H 19.049998 17.991665 V 12.170833 12.7 H 17.462498 16.933332 Z M 68.79166,19.579167 V 19.05 h 0.529167 0.529167 V 17.4625 15.875 h 1.587499 1.5875 v -0.529167 -0.529166 h 0.529167 0.529167 V 15.875 16.933333 h -1.5875 -1.5875 v 1.5875 1.5875 H 69.849994 68.79166 Z m 7.408333,0 V 19.05 H 75.670826 75.14166 v -0.529167 -0.529166 h 0.529166 0.529167 V 17.4625 16.933333 h 2.116667 2.116666 V 15.875 14.816667 H 79.904159 79.374993 V 15.345833 15.875 h -1.5875 -1.5875 v -0.529167 -0.529166 h 1.5875 1.5875 V 14.2875 13.758333 h 0.529166 0.529167 v 0.529167 0.529167 h 0.529167 0.529166 v 1.5875 1.5875 h 0.529167 0.529166 v -1.5875 -1.5875 h 1.5875 1.5875 V 15.345833 15.875 h -1.058333 -1.058333 v 1.058333 1.058334 H 83.079159 82.549992 V 18.520833 19.05 h 1.058334 1.058333 v -0.529167 -0.529166 h 0.529167 0.529166 V 18.520833 19.05 h 0.529167 0.529166 v -2.645833 -2.645834 h 0.529167 0.529167 v 0.529167 0.529167 h 0.529166 0.529167 V 15.345833 15.875 h -0.529167 -0.529166 v 2.116667 2.116666 H 85.195826 82.549992 V 19.579167 19.05 h -0.529166 -0.529167 v 0.529167 0.529166 h -2.645833 -2.645833 z m 4.233333,-1.058334 V 17.991667 H 78.31666 76.199993 V 18.520833 19.05 h 2.116667 2.116666 z m 9.524999,1.058334 V 19.05 h -0.529166 -0.529167 v -0.529167 -0.529166 h 0.529167 0.529166 v -1.5875 -1.5875 h 0.529167 0.529166 V 14.2875 13.758333 H 90.487492 89.958325 V 12.7 11.641667 h 0.529167 0.529166 V 12.7 13.758333 h 0.529167 0.529167 V 14.816667 15.875 h -0.529167 -0.529167 v 1.058333 1.058334 H 90.487492 89.958325 V 18.520833 19.05 h 1.058333 1.058334 v -0.529167 -0.529166 h 1.058333 1.058333 V 15.875 13.758333 h 0.529167 0.529166 V 15.875 17.991667 H 94.720825 94.191658 V 18.520833 19.05 h 1.058333 1.058334 v -0.529167 -0.529166 h 0.529166 0.529167 V 18.520833 19.05 h 0.529166 0.529167 v -2.645833 -2.645834 h 0.529167 0.529166 V 16.404167 19.05 h 0.529166 0.52917 V 17.4625 15.875 h 0.52916 0.52917 v -0.529167 -0.529166 h -0.52917 -0.52916 V 14.2875 13.758333 h 0.52916 0.52917 v 0.529167 0.529167 h 1.05833 1.05834 V 14.2875 13.758333 h 0.52916 0.52917 v 0.529167 0.529167 h 0.52917 0.52916 V 15.875 16.933333 h -1.05833 -1.05833 V 16.404167 15.875 h -0.52917 -0.52917 v 0.529167 0.529166 h -0.52916 -0.52917 v 1.5875 1.5875 H 97.895824 94.191658 V 19.579167 19.05 h -0.529167 -0.529166 v 0.529167 0.529166 h -1.5875 -1.5875 z m 14.816665,-4.233334 v -0.529166 h -0.52917 -0.52916 V 15.345833 15.875 h 0.52916 0.52917 z m 2.11667,4.233334 V 19.05 h -0.52917 -0.52917 v -0.529167 -0.529166 h 0.52917 0.52917 V 17.4625 16.933333 h 2.11666 2.11667 V 15.875 14.816667 h -0.52917 -0.52916 V 15.345833 15.875 h -1.5875 -1.5875 v -0.529167 -0.529166 h 1.5875 1.5875 V 14.2875 13.758333 h 0.52916 0.52917 v 0.529167 0.529167 h 0.52917 0.52916 v 2.645833 2.645833 h -2.64583 -2.64583 z m 4.23333,-1.058334 v -0.529166 h -2.11667 -2.11666 V 18.520833 19.05 h 2.11666 2.11667 z m 7.40833,1.058334 V 19.05 h 2.11667 2.11667 v -0.529167 -0.529166 h 0.52916 0.52917 V 15.345833 12.7 h -0.52917 -0.52916 v 0.529167 0.529166 h -1.05834 -1.05833 V 15.875 17.991667 h -0.52917 -0.52916 V 15.345833 12.7 h 1.5875 1.5875 v -0.529167 -0.529166 h 0.52916 0.52917 V 12.170833 12.7 h 0.52917 0.52916 v 2.645833 2.645834 h 0.52917 0.52917 V 17.4625 16.933333 h 2.11666 2.11667 V 15.875 14.816667 h -0.52917 -0.52917 V 15.345833 15.875 h -1.58749 -1.5875 v -0.529167 -0.529166 h 1.5875 1.58749 V 14.2875 13.758333 h 0.52917 0.52917 v 0.529167 0.529167 h 0.52916 0.52917 V 16.933333 19.05 h 0.52917 0.52916 v -2.116667 -2.116666 h 0.52917 0.52917 V 16.933333 19.05 h 0.52916 0.52917 v -2.116667 -2.116666 h 0.52917 0.52916 V 14.2875 13.758333 h 0.52917 0.52917 v 0.529167 0.529167 h 0.52916 0.52917 v 1.5875 1.5875 h 0.52917 0.52916 v -1.5875 -1.5875 h 1.5875 1.5875 V 14.2875 13.758333 h 0.52917 0.52917 v 0.529167 0.529167 h 0.52916 0.52917 V 16.933333 19.05 h -0.52917 -0.52916 v 0.529167 0.529166 h -2.11667 -2.11667 V 19.579167 19.05 h -0.52916 -0.52917 v 0.529167 0.529166 h -5.82083 -5.82083 V 19.579167 19.05 h -1.05834 -1.05833 v 0.529167 0.529166 h -2.64583 -2.64584 z m 11.64167,-1.058334 v -0.529166 h -2.11667 -2.11666 V 18.520833 19.05 h 2.11666 2.11667 z m 6.35,-1.5875 v -2.116666 h -0.52917 -0.52917 V 16.933333 19.05 h 0.52917 0.52917 z m 5.29166,1.5875 v -0.529166 h 0.52917 0.52917 v -1.5875 -1.5875 h -0.52917 -0.52917 V 15.345833 15.875 h -1.05833 -1.05833 v 1.058333 1.058334 h -0.52917 -0.52917 V 18.520833 19.05 h 1.5875 1.5875 z m -71.966656,-4.7625 V 12.7 h 2.116666 2.116667 v -0.529167 -0.529166 h 0.529166 0.529167 V 12.7 13.758333 H 73.024993 70.908327 V 14.2875 14.816667 H 70.37916 69.849994 Z"
         id="path3" /><path
         style="fill:#1f1f1f"
         d="M 59.266661,15.875 V 0 h 0.529167 0.529166 V 15.875 31.75 H 59.795828 59.266661 Z M 27.516664,29.104167 V 28.575 H 26.987498 26.458331 V 28.045833 27.516667 H 25.399998 24.341664 V 26.9875 26.458333 h -0.529166 -0.529167 v 0.529167 0.529167 h -4.762499 -4.7625 V 26.9875 26.458333 H 13.229165 12.699999 V 21.166667 15.875 h 0.529166 0.529167 V 15.345833 14.816667 H 12.699999 11.641666 V 15.345833 15.875 h -1.5875 -1.5875001 V 15.345833 14.816667 H 7.9374993 7.4083327 V 10.583333 6.35 h 2.1166664 2.1166669 v 0.5291667 0.5291666 h 0.529166 0.529167 V 6.8791667 6.35 h 0.529166 0.529167 V 5.8208333 5.2916667 h 3.175 3.174999 V 5.8208333 6.35 h 0.529167 0.529167 V 5.8208333 5.2916667 h 5.820833 5.820832 V 4.7625 4.2333333 h 0.529167 0.529167 V 3.7041667 3.175 h 0.529166 0.529167 v 0.5291667 0.5291666 h 0.529166 0.529167 V 4.7625 5.2916667 h 0.529167 0.529166 V 4.2333333 3.175 h 0.529167 0.529167 V 2.6458333 2.1166667 h 2.116666 2.116666 V 2.6458333 3.175 h 0.529167 0.529167 v 1.0583333 1.0583334 h 0.529166 0.529167 V 4.7625 4.2333333 h 0.529167 0.529166 V 3.7041667 3.175 h 0.529167 0.529166 v 0.5291667 0.5291666 h 0.529167 0.529167 V 4.7625 5.2916667 h 0.529166 0.529167 V 5.8208333 6.35 h 0.529167 0.529166 v 2.1166667 2.1166663 h 0.529167 0.529166 V 13.229167 15.875 h -0.529166 -0.529167 v 0.529167 0.529166 h -0.529166 -0.529167 v 0.529167 0.529167 h 0.529167 0.529166 V 18.520833 19.05 h 0.529167 0.529166 v 0.529167 0.529166 h 0.529167 0.529167 v 3.175 3.175 h -0.529167 -0.529167 v 0.529167 0.529167 h -4.762499 -4.7625 V 26.9875 26.458333 H 40.74583 40.216663 v 0.529167 0.529167 h -3.175 -3.174999 V 28.045833 28.575 H 33.337497 32.80833 v 0.529167 0.529166 h -2.645833 -2.645833 z m 4.233333,-1.058334 v -0.529166 h 0.529167 0.529166 V 26.9875 26.458333 h 2.116667 2.116666 V 25.929167 25.4 h 0.529167 0.529167 v 0.529167 0.529166 h 0.529166 0.529167 V 25.929167 25.4 h 0.529166 0.529167 V 23.8125 22.225 h 0.529167 0.529166 V 23.8125 25.4 h 0.529167 0.529166 v 0.529167 0.529166 h 0.529167 0.529167 V 25.929167 25.4 h 1.058333 1.058333 v 0.529167 0.529166 h 2.116667 2.116666 V 25.929167 25.4 h 0.529167 0.529166 V 24.870833 24.341667 H 50.270829 49.741662 V 23.8125 23.283333 h 0.529167 0.529166 V 22.225 21.166667 H 50.270829 49.741662 V 20.6375 20.108333 H 49.212496 48.683329 V 19.579167 19.05 h -2.116667 -2.116666 v 0.529167 0.529166 H 43.391663 42.333329 V 19.579167 19.05 H 39.687496 37.041663 V 18.520833 17.991667 H 36.512497 35.98333 V 17.4625 16.933333 H 34.924997 33.866664 V 17.991667 19.05 h -3.175 -3.175 v 0.529167 0.529166 H 26.458331 25.399998 V 19.579167 19.05 H 23.283331 21.166665 V 18.520833 17.991667 H 20.637498 20.108331 V 17.4625 16.933333 h -3.174999 -3.175 V 21.166667 25.4 h 0.529167 0.529166 v 0.529167 0.529166 h 2.645833 2.645833 V 25.929167 25.4 h 0.529167 0.529167 v 0.529167 0.529166 h 0.529166 0.529167 V 25.929167 25.4 h 0.529167 0.529166 V 23.8125 22.225 h 0.529167 0.529166 V 23.8125 25.4 h 0.529167 0.529167 v 0.529167 0.529166 h 0.529166 0.529167 V 25.929167 25.4 h 0.529167 0.529166 v 1.058333 1.058334 h 0.529167 0.529166 V 28.045833 28.575 h 1.5875 1.5875 z M 19.049998,22.754167 V 22.225 h 0.529167 0.529166 v 0.529167 0.529166 h -0.529166 -0.529167 z m 10.583333,0 V 22.225 h 0.529166 0.529167 v 0.529167 0.529166 H 30.162497 29.633331 Z M 19.049998,20.6375 v -0.529167 h 0.529167 0.529166 V 20.6375 21.166667 H 19.579165 19.049998 Z M 35.98333,19.579167 V 19.05 h 0.529167 0.529166 v 0.529167 0.529166 H 36.512497 35.98333 Z m 3.175,-2.116667 v -0.529167 h 0.529166 0.529167 v 0.529167 0.529167 h 0.529167 0.529166 V 17.4625 16.933333 h 0.529167 0.529166 v 0.529167 0.529167 h 2.645834 2.645833 V 17.4625 16.933333 H 47.095829 46.566662 V 15.875 14.816667 h 1.5875 1.5875 V 12.7 10.583333 h -1.5875 -1.5875 V 9.525 8.4666667 h 0.529167 0.529167 V 7.9375 7.4083333 h 0.529166 0.529167 V 6.8791667 6.35 H 48.154162 47.624996 V 5.8208333 5.2916667 H 47.095829 46.566662 V 4.7625 4.2333333 H 46.037496 45.508329 V 4.7625 5.2916667 H 44.979163 44.449996 V 5.8208333 6.35 H 43.391663 42.333329 V 4.7625 3.175 H 40.216663 38.099997 V 4.7625 6.35 H 37.041663 35.98333 V 5.8208333 5.2916667 H 35.454163 34.924997 V 4.7625 4.2333333 H 34.39583 33.866664 V 4.7625 5.2916667 H 33.337497 32.80833 V 5.8208333 6.35 h 0.529167 0.529167 v 0.5291667 0.5291666 h 0.529166 0.529167 V 7.9375 8.4666667 h 0.529166 0.529167 V 8.9958333 9.525 h -0.529167 -0.529166 v 0.529167 0.529166 h 0.529166 0.529167 v 0.529167 0.529167 h 0.529167 0.529166 V 12.170833 12.7 H 36.512497 35.98333 v 0.529167 0.529166 h 0.529167 0.529166 V 14.2875 14.816667 H 36.512497 35.98333 V 15.345833 15.875 h 0.529167 0.529166 v 0.529167 0.529166 h 0.529167 0.529167 v 0.529167 0.529167 h 0.529166 0.529167 z M 38.099997,16.404167 V 15.875 H 37.57083 37.041663 v -0.529167 -0.529166 h 0.529167 0.529167 V 15.345833 15.875 h 0.529166 0.529167 v 0.529167 0.529166 h -0.529167 -0.529166 z m 2.116666,0 V 15.875 h 0.529167 0.529166 v 0.529167 0.529166 H 40.74583 40.216663 Z m -3.175,-3.175 V 12.7 h 0.529167 0.529167 v 0.529167 0.529166 H 37.57083 37.041663 Z m 0,-2.116667 V 10.583333 H 36.512497 35.98333 V 10.054167 9.525 h 0.529167 0.529166 v 0.529167 0.529166 h 0.529167 0.529167 V 11.1125 11.641667 H 37.57083 37.041663 Z m -17.991665,4.233333 v -0.529166 h 1.058333 1.058334 V 15.345833 15.875 h 0.529166 0.529167 v -0.529167 -0.529166 h 0.529167 0.529166 V 14.2875 13.758333 h 0.529167 0.529166 v 0.529167 0.529167 h 0.529167 0.529167 V 15.345833 15.875 h 0.529166 0.529167 v -0.529167 -0.529166 h 0.529167 0.529166 V 15.345833 15.875 h 0.529167 0.529166 v -0.529167 -0.529166 h 0.529167 0.529167 V 13.758333 12.7 h 0.529166 0.529167 v 1.058333 1.058334 h 0.529166 0.529167 V 15.345833 15.875 h 0.529167 0.529166 v -0.529167 -0.529166 h 0.529167 0.529167 v -1.5875 -1.5875 H 33.337497 32.80833 V 11.1125 10.583333 h 0.529167 0.529167 V 9.525 8.4666667 H 33.337497 32.80833 V 7.9375 7.4083333 H 32.279164 31.749997 V 6.8791667 6.35 H 29.104164 26.458331 V 7.4083333 8.4666667 H 25.929164 25.399998 V 7.9375 7.4083333 H 24.870831 24.341664 V 6.8791667 6.35 H 23.283331 22.224998 V 6.8791667 7.4083333 H 21.695831 21.166665 V 7.9375 8.4666667 H 20.637498 20.108331 V 7.9375 7.4083333 H 19.579165 19.049998 V 6.8791667 6.35 h -2.116666 -2.116667 v 0.5291667 0.5291666 h -0.529166 -0.529167 v 1.5875 1.5874997 H 13.229165 12.699999 V 10.054167 9.525 H 12.170832 11.641666 V 8.9958333 8.4666667 H 11.112499 10.583332 V 7.9375 7.4083333 H 9.5249991 8.4666659 v 3.1749997 3.175 h 0.5291666 0.5291666 v 0.529167 0.529167 h 0.5291669 0.529166 V 14.2875 13.758333 h 0.529167 0.529167 V 13.229167 12.7 h 0.529166 0.529167 v -0.529167 -0.529166 h 0.529166 0.529167 V 12.7 13.758333 h 0.529167 0.529166 v 0.529167 0.529167 h 0.529167 0.529167 V 15.345833 15.875 h 1.587499 1.5875 z M 16.933332,11.1125 V 9.525 h 1.058333 1.058333 v 0.529167 0.529166 h 0.529167 0.529166 V 11.1125 11.641667 H 19.049998 17.991665 V 12.170833 12.7 H 17.462498 16.933332 Z M 68.79166,19.579167 V 19.05 h 0.529167 0.529167 V 17.4625 15.875 h 1.587499 1.5875 v -0.529167 -0.529166 h 0.529167 0.529167 V 15.875 16.933333 h -1.5875 -1.5875 v 1.5875 1.5875 H 69.849994 68.79166 Z m 7.408333,0 V 19.05 H 75.670826 75.14166 v -0.529167 -0.529166 h 0.529166 0.529167 V 17.4625 16.933333 h 2.116667 2.116666 V 15.875 14.816667 H 79.904159 79.374993 V 15.345833 15.875 h -1.5875 -1.5875 v -0.529167 -0.529166 h 1.5875 1.5875 V 14.2875 13.758333 h 0.529166 0.529167 v 0.529167 0.529167 h 0.529167 0.529166 v 1.5875 1.5875 h 0.529167 0.529166 v -1.5875 -1.5875 h 1.5875 1.5875 V 15.345833 15.875 h -1.058333 -1.058333 v 1.058333 1.058334 H 83.079159 82.549992 V 18.520833 19.05 h 1.058334 1.058333 v -0.529167 -0.529166 h 0.529167 0.529166 V 18.520833 19.05 h 0.529167 0.529166 v -2.645833 -2.645834 h 0.529167 0.529167 v 0.529167 0.529167 h 0.529166 0.529167 V 15.345833 15.875 h -0.529167 -0.529166 v 2.116667 2.116666 H 85.195826 82.549992 V 19.579167 19.05 h -0.529166 -0.529167 v 0.529167 0.529166 h -2.645833 -2.645833 z m 4.233333,-1.058334 V 17.991667 H 78.31666 76.199993 V 18.520833 19.05 h 2.116667 2.116666 z m 9.524999,1.058334 V 19.05 h -0.529166 -0.529167 v -0.529167 -0.529166 h 0.529167 0.529166 v -1.5875 -1.5875 h 0.529167 0.529166 V 14.2875 13.758333 H 90.487492 89.958325 V 12.7 11.641667 h 0.529167 0.529166 V 12.7 13.758333 h 0.529167 0.529167 V 14.816667 15.875 h -0.529167 -0.529167 v 1.058333 1.058334 H 90.487492 89.958325 V 18.520833 19.05 h 1.058333 1.058334 v -0.529167 -0.529166 h 1.058333 1.058333 V 15.875 13.758333 h 0.529167 0.529166 V 15.875 17.991667 H 94.720825 94.191658 V 18.520833 19.05 h 1.058333 1.058334 v -0.529167 -0.529166 h 0.529166 0.529167 V 18.520833 19.05 h 0.529166 0.529167 v -2.645833 -2.645834 h 0.529167 0.529166 V 16.404167 19.05 h 0.529166 0.52917 V 17.4625 15.875 h 0.52916 0.52917 v -0.529167 -0.529166 h -0.52917 -0.52916 V 14.2875 13.758333 h 0.52916 0.52917 v 0.529167 0.529167 h 1.05833 1.05834 V 14.2875 13.758333 h 0.52916 0.52917 v 0.529167 0.529167 h 0.52917 0.52916 V 15.875 16.933333 h -1.05833 -1.05833 V 16.404167 15.875 h -0.52917 -0.52917 v 0.529167 0.529166 h -0.52916 -0.52917 v 1.5875 1.5875 H 97.895824 94.191658 V 19.579167 19.05 h -0.529167 -0.529166 v 0.529167 0.529166 h -1.5875 -1.5875 z m 14.816665,-4.233334 v -0.529166 h -0.52917 -0.52916 V 15.345833 15.875 h 0.52916 0.52917 z m 2.11667,4.233334 V 19.05 h -0.52917 -0.52917 v -0.529167 -0.529166 h 0.52917 0.52917 V 17.4625 16.933333 h 2.11666 2.11667 V 15.875 14.816667 h -0.52917 -0.52916 V 15.345833 15.875 h -1.5875 -1.5875 v -0.529167 -0.529166 h 1.5875 1.5875 V 14.2875 13.758333 h 0.52916 0.52917 v 0.529167 0.529167 h 0.52917 0.52916 v 2.645833 2.645833 h -2.64583 -2.64583 z m 4.23333,-1.058334 v -0.529166 h -2.11667 -2.11666 V 18.520833 19.05 h 2.11666 2.11667 z m 7.40833,1.058334 V 19.05 h 2.11667 2.11667 v -0.529167 -0.529166 h 0.52916 0.52917 V 15.345833 12.7 h -0.52917 -0.52916 v 0.529167 0.529166 h -1.05834 -1.05833 V 15.875 17.991667 h -0.52917 -0.52916 V 15.345833 12.7 h 1.5875 1.5875 v -0.529167 -0.529166 h 0.52916 0.52917 V 12.170833 12.7 h 0.52917 0.52916 v 2.645833 2.645834 h 0.52917 0.52917 V 17.4625 16.933333 h 2.11666 2.11667 V 15.875 14.816667 h -0.52917 -0.52917 V 15.345833 15.875 h -1.58749 -1.5875 v -0.529167 -0.529166 h 1.5875 1.58749 V 14.2875 13.758333 h 0.52917 0.52917 v 0.529167 0.529167 h 0.52916 0.52917 V 16.933333 19.05 h 0.52917 0.52916 v -2.116667 -2.116666 h 0.52917 0.52917 V 16.933333 19.05 h 0.52916 0.52917 v -2.116667 -2.116666 h 0.52917 0.52916 V 14.2875 13.758333 h 0.52917 0.52917 v 0.529167 0.529167 h 0.52916 0.52917 v 1.5875 1.5875 h 0.52917 0.52916 v -1.5875 -1.5875 h 1.5875 1.5875 V 14.2875 13.758333 h 0.52917 0.52917 v 0.529167 0.529167 h 0.52916 0.52917 V 16.933333 19.05 h -0.52917 -0.52916 v 0.529167 0.529166 h -2.11667 -2.11667 V 19.579167 19.05 h -0.52916 -0.52917 v 0.529167 0.529166 h -5.82083 -5.82083 V 19.579167 19.05 h -1.05834 -1.05833 v 0.529167 0.529166 h -2.64583 -2.64584 z m 11.64167,-1.058334 v -0.529166 h -2.11667 -2.11666 V 18.520833 19.05 h 2.11666 2.11667 z m 6.35,-1.5875 v -2.116666 h -0.52917 -0.52917 V 16.933333 19.05 h 0.52917 0.52917 z m 5.29166,1.5875 v -0.529166 h 0.52917 0.52917 v -1.5875 -1.5875 h -0.52917 -0.52917 V 15.345833 15.875 h -1.05833 -1.05833 v 1.058333 1.058334 h -0.52917 -0.52917 V 18.520833 19.05 h 1.5875 1.5875 z m -71.966656,-4.7625 V 12.7 h 2.116666 2.116667 v -0.529167 -0.529166 h 0.529166 0.529167 V 12.7 13.758333 H 73.024993 70.908327 V 14.2875 14.816667 H 70.37916 69.849994 Z"
         id="path2" /><path
         style="fill:#000000"
         d="M 27.516664,29.104167 V 28.575 H 26.987498 26.458331 V 28.045833 27.516667 H 25.399998 24.341664 V 26.9875 26.458333 h -0.529166 -0.529167 v 0.529167 0.529167 h -4.762499 -4.7625 V 26.9875 26.458333 H 13.229165 12.699999 V 21.166667 15.875 h 0.529166 0.529167 V 15.345833 14.816667 H 12.699999 11.641666 V 15.345833 15.875 h -1.5875 -1.5875001 V 15.345833 14.816667 H 7.9374993 7.4083327 V 10.583333 6.35 h 2.1166664 2.1166669 v 0.5291667 0.5291666 h 0.529166 0.529167 V 6.8791667 6.35 h 0.529166 0.529167 V 5.8208333 5.2916667 h 3.175 3.174999 V 5.8208333 6.35 h 0.529167 0.529167 V 5.8208333 5.2916667 h 5.820833 5.820832 V 4.7625 4.2333333 h 0.529167 0.529167 V 3.7041667 3.175 h 0.529166 0.529167 v 0.5291667 0.5291666 h 0.529166 0.529167 V 4.7625 5.2916667 h 0.529167 0.529166 V 4.2333333 3.175 h 0.529167 0.529167 V 2.6458333 2.1166667 h 2.116666 2.116666 V 2.6458333 3.175 h 0.529167 0.529167 v 1.0583333 1.0583334 h 0.529166 0.529167 V 4.7625 4.2333333 h 0.529167 0.529166 V 3.7041667 3.175 h 0.529167 0.529166 v 0.5291667 0.5291666 h 0.529167 0.529167 V 4.7625 5.2916667 h 0.529166 0.529167 V 5.8208333 6.35 h 0.529167 0.529166 v 2.1166667 2.1166663 h 0.529167 0.529166 V 13.229167 15.875 h -0.529166 -0.529167 v 0.529167 0.529166 h -0.529166 -0.529167 v 0.529167 0.529167 h 0.529167 0.529166 V 18.520833 19.05 h 0.529167 0.529166 v 0.529167 0.529166 h 0.529167 0.529167 v 3.175 3.175 h -0.529167 -0.529167 v 0.529167 0.529167 h -4.762499 -4.7625 V 26.9875 26.458333 H 40.74583 40.216663 v 0.529167 0.529167 h -3.175 -3.174999 V 28.045833 28.575 H 33.337497 32.80833 v 0.529167 0.529166 h -2.645833 -2.645833 z m 4.233333,-1.058334 v -0.529166 h 0.529167 0.529166 V 26.9875 26.458333 h 2.116667 2.116666 V 25.929167 25.4 h 0.529167 0.529167 v 0.529167 0.529166 h 0.529166 0.529167 V 25.929167 25.4 h 0.529166 0.529167 V 23.8125 22.225 h 0.529167 0.529166 V 23.8125 25.4 h 0.529167 0.529166 v 0.529167 0.529166 h 0.529167 0.529167 V 25.929167 25.4 h 1.058333 1.058333 v 0.529167 0.529166 h 2.116667 2.116666 V 25.929167 25.4 h 0.529167 0.529166 V 24.870833 24.341667 H 50.270829 49.741662 V 23.8125 23.283333 h 0.529167 0.529166 V 22.225 21.166667 H 50.270829 49.741662 V 20.6375 20.108333 H 49.212496 48.683329 V 19.579167 19.05 h -2.116667 -2.116666 v 0.529167 0.529166 H 43.391663 42.333329 V 19.579167 19.05 H 39.687496 37.041663 V 18.520833 17.991667 H 36.512497 35.98333 V 17.4625 16.933333 H 34.924997 33.866664 V 17.991667 19.05 h -3.175 -3.175 v 0.529167 0.529166 H 26.458331 25.399998 V 19.579167 19.05 H 23.283331 21.166665 V 18.520833 17.991667 H 20.637498 20.108331 V 17.4625 16.933333 h -3.174999 -3.175 V 21.166667 25.4 h 0.529167 0.529166 v 0.529167 0.529166 h 2.645833 2.645833 V 25.929167 25.4 h 0.529167 0.529167 v 0.529167 0.529166 h 0.529166 0.529167 V 25.929167 25.4 h 0.529167 0.529166 V 23.8125 22.225 h 0.529167 0.529166 V 23.8125 25.4 h 0.529167 0.529167 v 0.529167 0.529166 h 0.529166 0.529167 V 25.929167 25.4 h 0.529167 0.529166 v 1.058333 1.058334 h 0.529167 0.529166 V 28.045833 28.575 h 1.5875 1.5875 z M 19.049998,22.754167 V 22.225 h 0.529167 0.529166 v 0.529167 0.529166 h -0.529166 -0.529167 z m 10.583333,0 V 22.225 h 0.529166 0.529167 v 0.529167 0.529166 H 30.162497 29.633331 Z M 19.049998,20.6375 v -0.529167 h 0.529167 0.529166 V 20.6375 21.166667 H 19.579165 19.049998 Z M 35.98333,19.579167 V 19.05 h 0.529167 0.529166 v 0.529167 0.529166 H 36.512497 35.98333 Z M 47.624996,17.4625 V 16.933333 H 47.095829 46.566662 V 15.875 14.816667 h 1.5875 1.5875 V 12.7 10.583333 h -1.5875 -1.5875 V 9.525 8.4666667 h 0.529167 0.529167 V 7.9375 7.4083333 h 0.529166 0.529167 V 6.8791667 6.35 H 48.154162 47.624996 V 5.8208333 5.2916667 H 47.095829 46.566662 V 4.7625 4.2333333 H 46.037496 45.508329 V 4.7625 5.2916667 H 44.979163 44.449996 V 5.8208333 6.35 H 43.391663 42.333329 V 4.7625 3.175 H 40.216663 38.099997 V 4.7625 6.35 H 37.041663 35.98333 V 5.8208333 5.2916667 H 35.454163 34.924997 V 4.7625 4.2333333 H 34.39583 33.866664 V 4.7625 5.2916667 H 33.337497 32.80833 V 5.8208333 6.35 h 0.529167 0.529167 v 0.5291667 0.5291666 h 0.529166 0.529167 V 11.641667 15.875 h 1.058333 1.058333 v 0.529167 0.529166 h 0.529167 0.529167 v 0.529167 0.529167 h 4.762499 4.7625 z M 19.049998,15.345833 v -0.529166 h 1.058333 1.058334 V 15.345833 15.875 h 0.529166 0.529167 v -0.529167 -0.529166 h 0.529167 0.529166 V 14.2875 13.758333 h 0.529167 0.529166 v 0.529167 0.529167 h 0.529167 0.529167 V 15.345833 15.875 h 0.529166 0.529167 v -0.529167 -0.529166 h 0.529167 0.529166 V 15.345833 15.875 h 0.529167 0.529166 v -0.529167 -0.529166 h 0.529167 0.529167 V 13.758333 12.7 h 0.529166 0.529167 v 1.058333 1.058334 h 0.529166 0.529167 V 15.345833 15.875 h 0.529167 0.529166 v -0.529167 -0.529166 h 0.529167 0.529167 v -1.5875 -1.5875 H 33.337497 32.80833 V 11.1125 10.583333 h 0.529167 0.529167 V 9.525 8.4666667 H 33.337497 32.80833 V 7.9375 7.4083333 H 32.279164 31.749997 V 6.8791667 6.35 H 29.104164 26.458331 V 7.4083333 8.4666667 H 25.929164 25.399998 V 7.9375 7.4083333 H 24.870831 24.341664 V 6.8791667 6.35 H 23.283331 22.224998 V 6.8791667 7.4083333 H 21.695831 21.166665 V 7.9375 8.4666667 H 20.637498 20.108331 V 7.9375 7.4083333 H 19.579165 19.049998 V 6.8791667 6.35 h -2.116666 -2.116667 v 0.5291667 0.5291666 h -0.529166 -0.529167 v 1.5875 1.5874997 H 13.229165 12.699999 V 10.054167 9.525 H 12.170832 11.641666 V 8.9958333 8.4666667 H 11.112499 10.583332 V 7.9375 7.4083333 H 9.5249991 8.4666659 v 3.1749997 3.175 h 0.5291666 0.5291666 v 0.529167 0.529167 h 0.5291669 0.529166 V 14.2875 13.758333 h 0.529167 0.529167 V 13.229167 12.7 h 0.529166 0.529167 v -0.529167 -0.529166 h 0.529166 0.529167 V 12.7 13.758333 h 0.529167 0.529166 v 0.529167 0.529167 h 0.529167 0.529167 V 15.345833 15.875 h 1.587499 1.5875 z M 16.933332,11.1125 V 9.525 h 1.058333 1.058333 v 0.529167 0.529166 h 0.529167 0.529166 V 11.1125 11.641667 H 19.049998 17.991665 V 12.170833 12.7 h -0.529167 -0.529166 z"
         id="path1" /></g></g></svg>
